<?xml version="1.0" encoding="UTF-8"?> <svg xmlns="http://www.w3.org/2000/svg" width="207" height="223" viewBox="0 0 207 223"><defs><clipPath id="pl9ha"><path d="M0 60.13h177.528v162.562H0z"></path></clipPath></defs><g><g><g><path fill="#ebc627" d="M48.513 52.224c-1.432.75-2.84 1.6-4.119 2.59-4.567 3.538-8.535 7.734-12.284 12.121-2.005 2.348-4.178 4.764-5.38 7.55-2.689 6.22-6.878 11.76-7.908 18.785-.349 2.368-1.721 4.73-1.825 7.203-.283 6.69-1.774 13.2-2.571 19.812-.605 5.014-.644 9.951.399 14.906.944 4.476 1.916 8.97 2.025 13.567.109 4.748 1.957 8.92 4.148 12.895 3.93 7.12 9.028 13.344 14.826 19.012 3.903 3.814 8.337 6.49 13.403 8.506 4.992 1.989 10.162 3.249 15.266 4.7 7.682 2.18 15.523 3.77 23.618 3.038 6.525-.589 12.975-1.712 19.275-3.411 5.905-1.595 11.942-2.939 17.451-5.776 3.65-1.881 7.174-4.014 10.74-6.06 7.862-4.512 15.532-9.338 22.057-15.747 5.641-5.537 10.206-11.967 13.51-19.209 1.629-3.58 2.98-7.32 4.141-11.085 2.081-6.747 3.986-13.562 2.961-21.034.033-7.905-.998-15.909-3.023-23.808-2.081-8.1-5.636-15.556-9.524-22.852-3.596-6.744-9.663-11.146-15.233-16.005-2.687-2.344-5.91-3.745-8.999-5.363-35.743-19.463-79.652-2.061-79.652-2.061-4.835 1.908-8.759 5.346-13.302 7.726z"></path></g><g><g><path fill="#fefefe" d="M87.52 30.542c-6.318.143-12.44-.186-17.197-1.094-2.21-.422-4.167-1.54-4.632-4.33-.532-5.249-.474-17.029-.379-19.009.095-1.979.29-5.046 5.5-4.763l38.427-.157s7.454-.239 9.504.461c1.948.701 2.582 2.324 2.677 3.871.04.653.038 1.308.081 1.961.272 4.163.144 7.905.358 12.214-.067 3.24.895 5.762 3.2 8.152 2.084 2.161 3.581 3.94 5.797 6.531 0 0 1.536 1.978.477 2.59-.82.472-3.866-.877-3.866-.877-2.282-1.062-3.995-2.28-5.855-2.989-1.885-.87-4.826-2.079-6.873-2.197 0 0-21.82-.213-27.219-.364"></path></g><g><path fill="#e5e7e9" d="M124.968 86.994c.187.125.492.231.697.184 1.1-.258 2.141-.642 3.057-1.276 1.521-1.053 3.08-2.061 4.58-3.137 2.331-1.671 4.208-2.377 7.936-2.451 1.821-.035 3.648.11 5.473.102 0 0 39.705.551 42.205.357 2.301-.096 4.084-.981 4.7-2.124.79-1.461.896-3.36.832-4.987l-.3-12.855s0-7.495-4.932-7.551c-22.57-.559-50.406.095-50.406.095-3.1.194-5.06 1.509-5.38 4.369 0 0-.4 6.336-.229 11.786-.25 3.05-.3 5.039-1.719 7.27-1.304 2.051-3.222 3.967-4.65 5.887 0 0-2.945 3.336-1.864 4.331"></path></g><g><path fill="#231f20" d="M64.44 61.59s-14.739.487-22.228 7.741c0 0-13.76 24.157-1.49 40.516 0 0 8.158 4.472 17.983 1.827 0 0 16.922-2.869 21.961-20.069 0 0 5.312-28.379-16.226-30.015"></path></g><g><path fill="#231f20" d="M43.678 115.59s-11.108 0-19.802 9.82c0 0-8.532 10.303-9.337 14.167 0 0-1.61 9.337-7.567 14.972-5.956 5.635-6.761 18.836-1.448 20.929 5.312 2.092 9.015 1.127 12.074 2.092 3.059.966 4.991 1.932 7.083 3.381 2.093 1.45 6.118 5.635 13.202 1.288 0 0 1.401-4.066-.024-11.048-1.426-6.983 9.683-15.515 9.683-15.515s6.761-11.108 5.635-19.318c-1.127-8.211-.645-14.973-1.771-18.193z"></path></g><g><path fill="#fefefe" d="M107.849 122.486l-15.469-4.091 8.832-26.865 15.859 4.183-5.429 17.402-3.124-.817-1.264 3.643z"></path></g><g><path fill="#231f20" d="M132.387 123.727c-.022.407-.052.812-.066 1.22-.083 2.357-1.198 4.185-2.945 5.672-.557.473-1.169.881-1.756 1.32-.26.195-.53.38-.777.591-1.325 1.134-1.326 2.403.014 3.44 1.093.845 2.186 1.693 3.318 2.484.906.633 1.488 1.501 1.921 2.47.154.345.108.79.104 1.188 0 .111-.163.286-.279.312-.128.03-.379-.04-.419-.134-.984-2.313-3.13-3.44-4.962-4.889-.319-.253-.678-.456-.982-.724-1.03-.91-1.296-2.035-.788-3.31.371-.932.988-1.657 1.816-2.238a27.881 27.881 0 0 0 2.501-1.948c2.103-1.867 2.514-4.252 1.987-6.89-.032-.159-.12-.304-.164-.46-.213-.792-.102-1.175.32-1.16.59.02.835.416 1.011.892.263.706.292 1.43.146 2.164"></path></g><g><path fill="#231f20" d="M27.723 205.722l-.034-.624.042.599c0 .007-.008.025-.008.025"></path></g><g><path fill="#231f20" d="M58.045 82.725l-.114-.05.178.017a.957.957 0 0 1-.064.034"></path></g><g><path fill="#b9a2be" d="M106.381 103.04c-.05.21-.142.313-.276.382a1.496 1.496 0 0 1-.938.14c-.404-.062-.605-.313-.597-.81.008-.42.226-.708.757-.85a.869.869 0 0 1 .757.143c.205.146.33.319.318.577l-.02.418"></path></g><g><path fill="#df5c25" d="M104.674 109.167a.572.572 0 0 1-.374.432c-.558.2-.97.028-1.252-.426-.174-.282-.153-.582.043-.861.33-.467 1.02-.56 1.356-.158.241.287.306.64.227 1.013"></path></g><g><path fill="#57b2c9" d="M102.097 104.455c-.313-.085-.587-.384-.621-.678-.046-.395.175-.81.533-.972.456-.207.931-.135 1.116.447.028.086.065.17.081.257.095.505-.128.833-.629.951-.163.038-.32.017-.48-.005"></path></g><g><path fill="#219f6d" d="M107.904 108.17c-.11.532-1.032.773-1.38.545-.464-.305-.52-1.09-.102-1.456.477-.42 1.136-.148 1.375.288.104.192.148.452.107.623"></path></g><g><path fill="#e9c423" d="M101.382 107a.652.652 0 0 1-.485-.724c.04-.272.258-.45.567-.473.186-.014.352.014.505.137.218.175.317.422.22.663-.092.231-.26.387-.523.404-.107.007-.215-.006-.284-.008"></path></g><g><path fill="#a6d7be" d="M107.6 105.675c-.33-.091-.5-.412-.402-.763.095-.345.444-.521.815-.386.36.13.514.397.415.755-.09.326-.463.496-.828.394"></path></g><g><g></g><g clip-path="url(#pl9ha)"><path fill="#231f20" d="M10.695 147.262c1.23-2.718 1.852-6.884 1.852-6.884.813-3.548 2.963-7.854 5.544-10.409l.199.071-.197-.072.143-.14c1.766-1.69 3.323-4.065 5.119-5.725.42-.388.862-.757 1.239-1.183 1.33-1.499 2.99-2.537 4.79-3.336 1.119-.497 2.222-1.009 3.298-1.597 2.31-1.263 4.809-1.998 7.389-2.475.479-.088.968-.159 1.428-.31.572-.19.992-.51.924-1.244-.036-.388.06-.806.179-1.186.17-.548-.006-.982-.38-1.328-2.765-2.574-4.42-5.842-5.688-9.31-.812-2.216-1.547-4.484-2.023-6.79-.343-1.656-.29-3.414-.023-5.122.239-1.533.489-3.064.745-4.595.788-4.713 2.304-9.146 4.796-13.26.76-1.257 1.524-2.49 2.395-3.674 2.216-3.013 5.155-4.97 8.692-6.029 2.42-.724 4.88-1.314 7.326-1.95 1.117-.29 1.629-.486 2.775-.494.975-.007 1.684-.062 3.104-.089 1.28-.024 2.224.301 3.069.515 2.309.588 4.424 1.565 6.194 3.254 2.624 2.503 4.776 5.37 6.627 8.456 1.409 2.35 2.074 4.958 2.057 7.717-.023 3.687-.372 7.342-1.39 10.893-.81 2.83-2.108 5.465-3.403 8.11a26.109 26.109 0 0 1-5.285 7.3c-2.05 1.995-4.17 3.92-6.973 4.848-.606.201-.868.637-.907 1.288-.183 3.018-.225 6.034-.068 9.054.045.86.416 1.415 1.14 1.993 2.248 1.795 4.8 2.687 7.594 3.011 3.279.38 6.456.881 9.685 1.27 5.254.632 7.538 4.198 7.538 4.198s.225-.508.32-1.323c.155-1.308.133-2.05-.051-3.348-.195-1.374-.317-2.58-.472-4.132-.174-1.743-.593-3.2.287-4.917.649-1.265.813-1.216 1.165-1.568 1.025-3.306 2.71-7.652 3.408-10.215 1.027-3.774 3.193-9.844 4.522-13.527 1.154-3.192 3.964-2.543 3.964-2.543l12.772 3.726c1.61.758 1.883 2.48 1.479 4.275l-4.241 13.016c-.346.778-.617 1.974-.925 2.722.176.528.22 1.171.296 1.913.216 5.122-.745 9.075-3.923 13.23-2.537 3.318-4.636 6.894-6.472 10.635-.031.062.008.16.015.241 2.105.73 1.667.324 1.74 2.236.242 6.271.486 12.542.606 18.816.04 2.114.206 3.578.344 5.693l14.174-.46a61.944 61.944 0 0 0 2.92-.166c-3.66-9.044-1.96-18.784-1.96-18.784.47-2.646-.263-2.524 3.544-2.754 0 0 13.785-.895 16.409-.054 4.42 1.416 7.692 3.54 9.417 4.867 1.725 1.326 2.915 3.161 1.365 5.563-.944 1.464-2.167 2.698-3.223 3.726-2.1 2.044-4.227 3.844-6.321 5.894-.098.096-.808.707-1.038.96 1.558.074 3.452-.01 4.493-.038 1.87-.05 3.09-.194 4.639-.204 4.81-.028 20.516.457 25.327.436.483-.002 2.719-.07 2.749.526.03.893-1.597.918-2.506.966-1.305.068-2.947.288-6.731.288-5.195 0-7.303-.164-13.19-.184 0 0-33.71.775-36.386.971-5.337.387-8.83.266-13.06.563-.987.07-.841 1.275-.828 2.263.037 2.937.107 13.902.176 16.84.03 1.223.09 2.447.073 3.67-.024 1.58-.615 2.85-2.138 3.552-1.036.48-2.05 1.008-3.095 1.463 0 0-9.168 3.841-15.701 5.221-.513.108-.858.441-.89 1.02-.123 2.277.078 15.342-.052 16.504-.13 1.16-1.218 4.417-1.726 2.466-.397-1.52-.667-18.97-.667-18.97-.143-.39-1.242-.189-1.304-.175-.816.172-1.356.103-1.493 2.301 0 0 1.109 17.358-.613 17.257-1.862-.186-1.798-18.024-1.798-18.024-.066-.909-.642-.847-1.535-.694-17.823 3.038-39.798.81-39.798.81-1.286-.017-1.38.031-1.52 1.317 0 0-.388 8.57-1.086 10.234-.56 1.332-1.276.806-1.244-.088.096-2.69.142-7.939.264-10.629.026-.556-.654-.912-1.255-1.023 0 0-1.55-.23-1.696 1.297l-.67 8.122c-.085 1.891-.558 2.923-1.081 3.007-1.104.177-.768-7.199-.768-7.199.236-1.542.21-3.087.305-4.63.078-1.284-.056-1.437-1.23-1.655-3.537-.657-6.987-1.634-10.367-2.85-1.454-.524-1.94-.73-3.35-1.372-1.113-.505-1.012-1.822-1.012-1.822l.166-17.964c-.031-.689-.423-1.023-1.077-1.092-1.565-.167-3.04-.652-4.413-1.39-3.323-1.785-4.106-8.72-4.106-8.72-.415-2.429.25-4.763 1.213-6.908a34.085 34.085 0 0 1 5.372-8.426c1.493-1.719 3.02-3.408 3.984-5.535zm96.616-27.8c-.15-1.583-.488-4.677-.488-4.677.023-1.889 1.368-2.89 2.865-2.89a1.96 1.96 0 0 1 1.495.747l4.647-14.086c.397-1.447.022-2.538-1.308-3.124l-11.707-3.105c-1.268-.086-1.666.525-2.158 1.787-1.301 3.34-2.246 6.794-3.298 10.214-1.123 3.651-2.372 7.242-3.481 10.916-.82 2.716.333 3.071 1.132 3.515.798.443 11.42 2.683 11.42 2.683 1.078.178.993-.8.88-1.98zm-16.016 13.992c.264.616.719 1.872.944 2.43.643 1.592 1.153 3.147 1.869 4.711.265.578.819 2.142 1.06 2.782 1.205-.334 2.935-.873 4.137-1.399.508-.224 1.012-1.109 1.215-1.62.747-1.892 1.194-2.398 2.025-4.254.298-.666 1.643-2.943 2.114-3.484 1.509-1.733 2.614-3.738 3.92-5.607 2.312-3.306 2.864-7.036 2.692-10.947a4.834 4.834 0 0 0-.094-.728c-.158-.796-.521-1.682-1.27-1.948-.9-.32-1.705.623-1.767 1.553-.081 1.22.007 2.275.403 3.683.27.963.493 1.98.47 2.96-.027 1.105-1.342 1.92-2.467 1.66-2.771-.639-4.87-1.379-7.725-1.669-2.027-.205-4.08-.907-5.91-1.885-.595-.319-1.12-.69-1.352-.142-.836 1.98.04 4.572.294 6.593.14 1.13.19 2.075.146 3.395 0 1.804.063 2.192-.704 3.916zm1.645 10.548c.014-.623-3.947-10.117-3.947-10.117-1.19-2.446-2.804-3.366-5.855-4.255-3.051-.89-5.873-.829-8.993-1.22-2.507-.316-4.606-.434-6.566-1.221-.45-.181-1.092-.477-1.552-.63-.837-.28-1.58.026-2.241.606-.243.21-.465.45-.722.642-2.36 1.767-4.915 2.733-7.92 1.897-.662-.184-.958.01-.977.621a368.487 368.487 0 0 0-.175 7.209v.072a177.949 177.949 0 0 1-.384 4.965c-.21.98-.414 1.963-.595 2.949-.084.458.229.728.699.778 1.607.174 3.21.46 4.82.501 4.69.121 9.384.05 14.067-.233 4.679-.282 9.36-.548 14.017-1.143 2.117-.27 4.345-.567 6.324-1.421zm-30.204-22.657c.044-1.622-.127-8.078-.127-8.078-.004-.64-.325-.883-.941-.664-1.522.54-3.072.895-4.682 1.029-1.035.087-2.066.263-3.091.445-.738.132-.962.464-.69 1.204.395 1.064.45 2.066-.164 3.041-.284.45-.27.894-.191 1.399.379 2.412.736 4.83 1.07 7.25.097.703.54.981 1.12 1.067 2.76.406 5.233-.346 7.437-2.035.966-.74 1.316-.723.849-1.851-.323-.779-.613-1.985-.59-2.807zm-24.98-22.187c1.455 3.964 3.28 7.628 6.302 10.625.766.76 1.552 1.307 2.67 1.396 1.665.132 3.334.285 4.922.891.275.104.639.12.92.036 2.077-.622 4.274-.547 6.348-1.07 3.162-.8 6.274-1.787 8.97-3.777 3.134-2.312 5.628-5.135 7.499-8.58.805-1.484 1.446-3.026 2.17-4.538 1.865-3.893 2.623-8.03 2.754-11.738 0-1.055-.04-1.539.006-2.016.236-2.4-.433-4.65-1.496-6.699-1.36-2.62-3.145-4.97-5.194-7.142-3.656-3.876-8.074-5.16-13.213-4.459-3.251.446-6.37 1.405-9.458 2.462-2.142.734-3.997 2.003-5.59 3.601-3.765 3.775-6.041 8.4-7.383 13.52-.345 1.313-.54 2.666-.801 4.001-.89 4.541-1.07 9.01.574 13.487zm14.49 17.544c-.093-.123-.19-1.325-.313-1.373-.312-.123-.421 1.152-.462 1.383-.02.111.133.341.243.367.27.063.446-.119.533-.377zm-1.635-1.533c.045-.4-.86-.634-1.165-.689-.57-.105-2.365-1.068-2.922-.433-.042.047-.19.658-.161.721.316.706 3.047 1.618 3.727 1.682.194-.09.47-.82.52-1.28zm-5.499-.52c.093-.069.288-1.093.2-1.163-.152-.12-1.347.08-1.354.28-.004.14-.19.902-.16 1.042.118-.066.877.16 1.314-.16zm-27.02 15.319v.001l-.148-.054v-.002l.149.055zm6.346 49.737s4.606 4.613 7.877 3.676c2.79-.799 5.692-1.755 5.52-5.342-.027-.564-.024-1.13-.052-1.693-.08-1.61-.19-3.222-.248-4.834-.158-4.319 1.209-8.079 4.113-11.264.975-1.069 1.943-2.144 2.918-3.214 4.399-4.828 6.56-10.583 7.076-17.067.179-2.257.215-4.51.275-6.163.26-4.914-.612-9.108-1.252-13.33-.187-1.237-.842-1.785-2-2.039-1.475-.323-2.965-.625-4.34-1.319a2.505 2.505 0 0 0-1.637-.219c-2.98.576-5.998 1.031-8.75 2.43-1.782.907-3.53 1.884-5.303 2.812-.86.45-1.605 1.047-2.345 1.67-2.673 2.245-4.665 5.058-6.692 7.873-2.245 3.116-3.893 6.493-4.803 10.201 0 0-1.083 6.09-4.607 9.757-2.353 2.447-4.1 5.364-5.936 8.2-1.9 2.932-2.316 6.14-1.481 9.514.93 3.755 3.337 6.617 7.105 6.737 11.735.371 14.562 3.614 14.562 3.614zm78.046-35.666c-.048-.652-.415-.896-.977-.598-2.178 1.154-4.57 1.674-6.907 2.364-4.476 1.321-9.071 1.98-13.706 2.318-4.145.302-8.305.441-12.46.572-4.483.14-8.968.187-13.45-.143-.87-.064-1.888-.478-2.606.097-.502.403-.675 1.241-.92 1.911 0 0-2.08 4.91-5.72 8.606-1.135 1.154-2.174 2.4-3.223 3.628-2.242 2.628-3.375 5.654-3.241 9.108.088 2.25.177 4.498.288 6.747.098 1.978-.505 3.691-2.13 4.884-3.69 2.706-8.924 3.258-12.561-.17-.65-.612-1.324-1.195-1.963-1.814a6.78 6.78 0 0 0-2.47-1.53c-2.393-.852-4.894-1.216-7.42-1.396-.797-.056-.786.216-.854.962-.22 2.41-.621 12.496-.588 14.901 0 0-.4 3.05.714 3.45l2.744 1.075c2.608.955 5.357 1.39 8.03 2.103 0 0 30.962 5.07 62.076-1.793 10.468-2.31 16.887-5.74 16.887-5.74.838-.385 1.196-.942 1.183-1.877zm27.022 14.01c-.06-1.135-.363-1.89-1.264-2.89 0 0-6.175-6.649-6.613-7.193 0 0-1.037 9.452 1.934 18.147.691-.017 4.988-.03 6.214-.169zm9.012 7.578c3.225-9.934.974-18.273.974-18.273-.142-.679-.673-1.156-1.347-1.18-2.841-.1-4.74.082-7.036.161-3.054.105-3.093.08-6.624.097-.704.004-1.708-.017-1.54.228.188.271 1.11 1.114 1.27 1.286 1.89 2.037 3.038 3.684 5.044 5.583.7.663.85.428 1.229-.029.854-1.032 1.728-2.05 2.526-3.123.506-.679 1.266-1.598 1.99-2.234.264-.23.574.023.73.143.263.203.432.403.217.705-1.033 1.456-2.113 2.838-3.473 4.59-.958 1.235-1.58 2.303-1.471 3.774l.34 8.515c1.762-.159 5.328-.09 7.17-.243zm2.608-18.78s.276 1.452.323 1.752c.495 3.166.593 4.595.575 7.219-.014 1.951-.583 4.514-1.22 6.695.447-.14 2.938-2.453 3.038-2.553 1.838-1.842 2.022-1.916 3.837-3.78a7.997 7.997 0 0 0 1.054-1.338c1.07-1.72 1.069-2.707-.371-3.75-1.441-1.044-4.343-2.606-4.343-2.606s-2.48-1.529-2.893-1.64z"></path></g></g><g><path fill="#231f20" d="M69.595 31.17c-2.341-.452-4.41-1.671-4.891-4.725-.542-5.748-.434-18.656-.325-20.825.108-2.17.325-5.532 5.845-5.241L110.93.056s7.897-.293 10.066.467c2.06.759 2.725 2.535 2.82 4.229.039.716.035 1.434.078 2.15.27 4.558.12 8.659.33 13.38-.083 3.549.926 6.309 3.358 8.919 2.199 2.36 3.777 4.3 6.116 7.132 0 0 1.618 2.16.494 2.835-.87.522-4.092-.944-4.092-.944-2.413-1.154-4.223-2.482-6.19-3.253-1.994-.944-5.104-2.257-7.272-2.378 0 0-23.114-.147-28.831-.292-6.694.182-13.18-.154-18.212-1.13zm47.797-.906c2.173.067 6.02 1.795 7.942 2.799 1.4.73 4.733 3.128 6.115 3.894.104.068-.7-1.065-.785-1.176-1.484-1.652-3.308-3.856-4.81-5.492-2.031-2.213-3.504-4.94-3.733-7.86-.133-1.69-.074-3.396-.172-5.092-.218-3.754-.025-7.632-.195-11.387-.073-1.6-.491-2.757-1.864-3.294-1.951-.764-4.368-.67-6.428-.601 0 0-25.841.287-30.144.302-4.193-.03-8.386-.012-12.578-.066-2.841.086-3.921 1.063-4.03 4.64 0 0-.435 5.206.206 18.109.242 1.795 1.543 3.568 3.428 3.974 3.629.846 9.286 1.127 14.094 1.125z"></path></g><g><path fill="#231f20" d="M122.83 88.935c-1.133-1.08 1.956-4.706 1.956-4.706 1.498-2.086 3.51-4.169 4.878-6.396 1.489-2.425 1.54-4.587 1.803-7.9-.18-5.922.24-12.808.24-12.808.336-3.107 2.392-4.536 5.645-4.745 0 0 29.2-.712 52.879-.106 5.174.063 5.174 8.207 5.174 8.207l.316 13.968c.067 1.77-.047 3.832-.873 5.42-.647 1.241-2.518 2.203-4.931 2.308-2.623.21-44.276-.389-44.276-.389-1.915.008-3.832-.149-5.743-.11-3.91.08-5.88.846-8.326 2.663-1.574 1.17-3.208 2.264-4.803 3.408-.962.69-2.054 1.106-3.207 1.387-.216.051-.536-.064-.732-.2m11.364-30.856c0 .726-.405 3.545-.502 12.241-.045 2.826-.1 4.424-1.2 6.457-1.313 2.428-4.715 6.153-6.386 8.37 0 0-.633 1.07.366.273 1.92-1.53 7.725-6.06 12.86-5.82 0 0 46.494.641 50.136.527 2.365-.492 3.324-1.257 3.718-3.494.489-3.123-.273-17.39-.273-17.39-.25-3.168-1.767-4.102-3.39-4.6-1.136-.349-4.1-.277-5.28-.414-5.096-.21-45.072.196-45.072.196-4.737.028-4.978 2.928-4.977 3.654"></path></g><g><path fill="#231f20" d="M167.796 148.314l10.496-.364.056 1.707-9.381.331s-.275 7.087 3.264 10.626c2.51 2.51 4.183 4.099 6.637 4.802l.059 1.771s-7.366-1.303-10.043-8.247c-2.23-5.784-2.092-10.542-2.092-10.542z"></path></g><g><path fill="#231f20" d="M170.42 118.508c-.736 2.355-.147 7.14 1.582 12.045 1.566 4.446 8.504 15.945 8.504 15.945h-1.215c-2.734-2.886-7.897-12.757-7.897-12.757-4.556-9.11-2.593-15.454-2.593-15.454.736-3.606 2.87-1.398 2.87-1.398 3.68 3.46 8.244 21.27 8.244 21.27l-.663 2.43c-2.208-3.754-5.276-15.352-5.276-15.352s-2.987-8.55-3.556-6.729"></path></g><g><path fill="#231f20" d="M181.437 147.8s-12.485-18.613-16.091-22.073c0 0-1.086-1.049-2.061-.367-.756.527-1.178 2.796-.81 4.195.368 1.398 3.018 5.225 4.49 6.624 1.472 1.398 7.163 7.104 7.507 8.316.184.647 2.063 3.344 2.872 3.933l1.165.15s.168.228-2.417-4.819c-1.562-3.047-5.08-5.594-6.183-6.55-1.104-.957-5.632-6.93-5.814-8.243-.194-1.39-.368-2.355.662-1.473 1.03.884 5.152 6.7 6.035 7.95.883 1.251 1.62 1.692 3.459 4.121 1.84 2.43 5.444 8.034 5.812 8.475.368.442 1.374-.239 1.374-.239"></path></g><g><path fill="#231f20" d="M177.58 148.687s-2.357-5.733-6.103-7.852c0 0-4.597-3.455-7.393-3.455-2.796 0-2.067 1.337-1.094 2.675.972 1.337 3.404 2.067 4.74 3.404 1.339 1.337 2.798 2.796 3.77 3.04.973.243 3.04.608 3.162 1.945h1.459s-1.703-3.039-3.405-3.769c-1.702-.729-3.282-.486-4.012-1.824-.73-1.337-3.891-2.918-3.891-2.918s-1.215-1.823 1.459-.364c2.675 1.459 3.89 2.309 5.228 3.039 1.338.729 4.864 3.404 5.107 6.808z"></path></g><g><path fill="#231f20" d="M206.309 124.741c-1.079 4.064-2.22 8.113-3.901 11.98-.336.774-.488 1.53-.418 2.394.155 1.947.206 3.902-.171 5.84-.086.442-.163.91.161 1.294.67.795.522 1.707.314 2.573-.842 3.521-2.152 6.812-4.094 9.928-2.496 4.005-6.307 6.087-10.333 7.984-.956.45-2.011.65-3.07.635-1.957-.028-3.924.136-5.872-.175l-.059-1.772c.435.153.885.29 1.335.323 2.939.215 5.831.172 8.607-1.096 2.211-1.01 4.175-2.362 6.062-3.855a4.73 4.73 0 0 0 .931-.97c1.513-2.147 3.025-4.3 3.93-6.798.535-1.479.989-2.98 1.047-4.74-3.401-.15-6.526.28-9.662.434-3.892.191-7.744.992-11.664.821-.149-.006-.301.01-.45.023a3.759 3.759 0 0 0-.656.1l-.056-1.708c.983-.09 1.936-.168 2.875-.29.533-.069.781-.483.601-.973-.62-1.686-2.271-5.246-2.958-6.906l.663-1.748c.326-.47.221-1.005.18-1.512-.483-6.046-1.051-17.002-1.031-18.183.02-1.18.246-2.218.91-2.882.663-.664 1.929-.742 2.921 3.824.192.886.603 1.63.86 2.497 1.109 3.742 2.07 7.515 2.787 11.352.074.395.244 1.69.303 2.751.291-.42.395-2.499.342-2.93-.293-2.38-.461-4.79-.952-7.13-.501-2.383-.309-4.767-.435-7.15-.023-.446.03-.903.112-1.344a.795.795 0 0 1 .368-.493c.293-.148.602-.023.788.232.703.971 1.416 1.928 1.92 3.036.837 1.84 2.198 4.011 2.633 5.465.804-1.77 2.855-8.336 2.855-8.336l1.225-2.424 1.537-2.593c.235-.468.495-.926.777-1.366.251-.393.648-.344.888.032.3.472.357.961.307 1.505-.119 1.273-.21 2.551-.321 3.824a74.707 74.707 0 0 1-.175 1.777c-.057.51-.016.662-.031 1.117a433.36 433.36 0 0 1-.514 4.042 1.25 1.25 0 0 1-.07-.139l.038.126s-.229.69-.383 1.505c-.617 3.241-1.741 6.336-2.669 9.487-.125.426-.203.865-.292 1.252.229 1.087.439 2.111.673 3.131.021.094.342 1.84.424 1.823.117-.022.303-2.159.324-2.268.202-1.025.175-1.669.411-2.686.479-2.059 1.579-3.865 2.388-5.77l1.339-2.515.105-.166-.009-.016 1.342-2.519.044.055c.803-1.41 1.178-2.289 1.775-3.47.507-1.006 1.24-2.119 1.74-3.127.166-.336.387-.665.84-.616.452.05.645.415.675.78.192 2.244.478 4.506-.111 6.724m-21.333 11.876c.009-1.048.026-2.115-.143-3.143-.671-4.076-1.697-8.07-2.995-11.99-.257-.777-.821-3.738-1.432-3.207-.359.704-.232 2.492-.132 3.272.124.965.11 1.947.155 2.921.201 4.348.394 8.694.609 13.04.15 3.048.961 5.916 2.432 8.59.207.378.316.86.929.975.369-.895.426-1.838.438-2.802.033-2.553.115-5.105.139-7.656m7.73-9.304c-.098.186-.451 1.022-.383 1.178.517 1.195.766 1.74 1.411 3.934 2.079-4.555 3.685-12.992 3.249-16.898-.413.003-1.064 2.176-1.173 2.417-1.307 2.876-1.382 4.156-2.297 7.162-.305 1.002-.189 1.028-.807 2.207m-6.457 18.25c-.007.075-.196 1.287-.025 1.401.643-1.515 2.115-3.944 2.556-5.55.098-.358.334-.758.251-1.07-.297-1.13-1.128-2.189-1.57-3.72-.18.351-.272.98-.318 1.172-.599 2.554-.565 4.483-.894 7.766m1.67 1.292c1.67.094 3.664.28 5.199-.479-.996-2.015-2.504-2.917-3.182-4.183-.33.657-.776 1.7-1.112 2.351-.366.71-.905 1.353-.905 2.311m5.693-2.373c.183.2.773.834 1.127 1.07 0-.737-.223-1.705-.272-2.2a50.793 50.793 0 0 0-1.28-7.306c-.801-3.208-2.01-6.282-3.058-9.41-.651-1.944-1.683-3.676-2.616-5.468-.096-.184-.681-1.483-.814-1.138-.21.526.1 1.936.116 2.51.083 2.935.754 5.794 1.126 8.692.269 2.094.735 4.13 1.541 6.082 1.062 2.57 2.222 5.087 4.13 7.168m7.14-1.636c0-.354.004-.429 0-.502-.013-.218.026-.978-.032-1.448-.037-.291-.825 1.168-.943 1.353-.723 1.134-1.264 2.065-1.974 3.208-.162.26-.737 1.027-.413 1.027.442 0 .899-.016 1.193-.063 1.237-.198 1.459.151 1.815-1.634.146-.734.27-1.473.354-1.941m1.042-8.047c1.195-3.39 2.199-6.849 3.24-10.29.36-1.19.294-1.326-.075-3.126-.74.757-1.175 1.602-1.615 2.444-1.109 2.126-2.19 4.265-3.362 6.361-1.241 2.217-2.341 4.527-2.739 7.095-.342 2.203-.792 5.14-.854 7.65.511-.366 1.039-1.376 1.21-1.687 1.518-2.757 3.148-5.473 4.195-8.447"></path></g><g><path fill="#231f20" d="M55.49 129.334s.004 3.559-.251 8.782c0 0 0 4.547-.919 8.826 0 0 20.111 2.004 31.676-.007l8.382-2.012s-2.85-10.896-5.532-13.074c0 0-1.844-3.52-15.924-4.359 0 0-6.537-.67-7.71-2.01 0 0-5.532 3.854-9.722 3.854"></path></g><g><path fill="#57b2c9" d="M107.335 119.55s.157 3.898 1.407 2.881l-1.828 2.309-2.564-.753z"></path></g><g><path fill="#fefefe" d="M103.338 90.466l12.772 3.726s2.611.94 1.48 4.275c0 0-4.992 15.751-5.132 15.872-.419-1.028-1.868-2.27-1.868-2.27l2.308-13.748-10.443-5.22-1.82 2.056-6.408 19.937s-1.357 2.241.95 3.085l12.041.93s.795 4.142-.753 4.237c0 0-5.826-1.374-7.648-1.768 0 0-4.115-.392-6.489-2.133 0 0-1.424-1.978-.395-4.35 0 0 6.883-20.966 7.12-21.44 0 0 .817-3.687 4.285-3.189"></path></g><g><path fill="#f9f9f9" d="M55.91 88.877c.337-2.104.607-4.231 1.026-6.304.597-2.957 5.345-12.596 7.227-14.083.26.579-3.547 8.184-3.736 8.498-1.597 2.663-2.651 5.73-3.433 9.067-.221.943-.158 2.387-1.144 2.739l.06.083"></path></g><g><path fill="#f9f9f9" d="M10.29 161.76c-.24-.395.45-1.563.61-1.967.764-1.93 1.954-3.7 3.499-5.316 1.79-1.87 3.736-3.652 5.437-5.57 1.65-1.859 2.69-3.98 3.577-6.124.655-1.586 1.294-3.184 1.759-4.804 1.268-4.417 4.427-8.096 7.489-11.816.69-.84 1.5-1.624 2.318-2.392.476-.448 1.06-.85 1.867-.468-.035.586-.7.801-1.07 1.185-3.406 3.55-6.57 7.226-8.525 11.425-.945 2.03-1.56 4.146-2.377 6.21-1.238 3.124-2.841 6.088-5.693 8.593-1.624 1.427-3.015 3.026-4.447 4.585-1.06 1.153-1.941 2.393-2.57 3.741-.316.681-1.415 3.992-1.785 3.161l-.088-.444"></path></g><g><path fill="#f9f9f9" d="M27.475 165.008c1.506-2.71 2.953-5.454 4.454-8.167.87-1.574 1.622-3.188 2.038-4.947.578-2.439 1.227-4.862 1.733-7.315a25.69 25.69 0 0 1 1.924-5.757c.867-1.844 1.938-3.525 3.703-4.717 2.224-1.5 3.654-3.73 5.068-5.95 2.523-3.965 2.515-8.362 2.215-12.809a.676.676 0 0 0-.658-.656c-.093-.006-.303.351-.298.538.024 1.073.182 2.15.139 3.218-.214 5.361-1.945 10.158-6.191 13.571-3.442 2.768-5.522 6.184-6.526 10.38-.305 1.277-.63 2.551-.89 3.838-.85 4.227-2.044 8.31-4.258 12.077-1.446 2.46-2.604 5.09-3.9 7.636-.288.568-.293 1.141-.128 1.734 0 0 .52.726 1.575-2.674"></path></g><g><path fill="#f9f9f9" d="M43.11 106.127c.252-2.81-.102-16.943.315-19.64.038-.242.079-.49.061-.73-.204-2.78.687-5.336 1.803-7.78 1.362-2.985 8.846-14.237 11.21-16.533.282-.273 1.279-.85 1.648-.997.194-.077 1.424-.617 1.566-.487.377.347-1.544 1.507-1.752 1.662-2.885 2.156-10.18 13.151-11.553 18.445-1.96 6.08-1.814 16.99-1.72 23.755.012 1.786-.477 4.311-1.578 2.305"></path></g><g><path fill="#f9f9f9" d="M55.378 106.592c1.255-1.235 8.546-8.652 9.981-9.687 4.795-3.451 6.777-8.242 7.566-13.65.372-2.557.667-5.128 1.045-7.684.096-.648.03-3.517.76-5.801 1.12.806.707 5.882.572 6.721-.612 3.823-1.015 7.686-2.07 11.431-.8 2.836-2.178 5.274-4.357 7.357-1.81 1.729-9.779 9.491-11.899 10.919-.498.336-1.09.625-1.846.544.008.012.248-.15.248-.15"></path></g></g></g></g></svg> 