<?xml version="1.0" encoding="UTF-8"?> <svg xmlns="http://www.w3.org/2000/svg" xmlns:xlink="http://www.w3.org/1999/xlink" width="198px" height="211px" viewBox="0 0 198 211" version="1.1"><!-- Generator: Sketch 59.1 (86144) - https://sketch.com --><title>sameday</title><desc>Created with Sketch.</desc><g id="Symbols" stroke="none" stroke-width="1" fill="none" fill-rule="evenodd"><g id="section,-3-value-props-new" transform="translate(-146.000000, -296.000000)" fill-rule="nonzero"><g id="sameday" transform="translate(146.000000, 296.000000)"><path d="M144.617843,188.779943 C143.646014,187.396678 142.699436,183.465052 142.699436,183.465052 C142.209313,180.157979 141.021882,177.142669 139.120956,174.402188 C139.045851,174.293428 139.004414,174.160572 138.929957,174.051813 C138.07467,172.794239 137.57613,171.311332 136.646386,170.103254 C135.848722,169.070364 135.259539,167.920899 134.628271,166.796181 C133.881109,165.47218 133.839672,163.93066 133.457674,162.490084 C132.112264,157.458488 121.433801,158.183335 117.888341,158.225015 C117.888341,158.225015 109.177492,158.249763 107.774458,159.407694 C107.051899,159.999033 107.035066,161.115284 106.129925,161.898093 C105.632032,161.515155 104.992347,161.198645 104.469204,160.890602 C104.170728,160.715414 103.157462,160.398904 103.274004,160.065461 C103.389898,159.748952 103.340044,159.424627 102.958046,159.357547 C102.534611,159.282653 102.385049,159.632377 102.319009,159.965819 C102.169447,160.715414 103.057754,161.090537 103.78873,161.481941 C103.962895,161.573768 104.38633,161.732023 104.535892,161.856413 C105.084286,162.331829 105.51549,162.62294 104.976161,163.097705 C103.730459,164.197674 102.252321,164.914055 100.658289,165.255312 C99.0804426,165.597221 97.4779933,166.013373 95.8334595,165.696863 C94.829258,165.496928 93.8742629,165.63825 92.8856003,165.813438 C91.1005689,166.121481 89.3239544,165.988625 87.5712958,165.521675 C87.3388597,165.463714 87.1562776,165.32174 86.9568617,165.19735 C85.8859723,164.547398 84.8066661,163.956059 83.6024012,163.564654 C81.7759327,162.972664 80.2065036,161.94824 79.167987,160.257582 C79.0689265,160.09086 78.0724944,157.183658 77.9973897,157.000002 C77.9973897,157.000002 77.9060987,156.992189 73.3803934,157.900039 C70.2836197,158.524592 66.2059528,160.490731 62.8268891,163.722909 C62.7187642,163.939126 61.016607,165.296992 60.343902,167.021516 C60.343902,167.021516 58.8326143,170.019893 59.0153259,177.892263 C59.5054487,207.92228 62.453308,207.797239 62.453308,207.797239 C63.6407391,208.647126 64.1969023,208.938237 66.6714724,209.172038 C69.1460426,209.405187 73.3642071,208.979918 78.9938218,209.796591 C78.9938218,209.796591 86.0685544,211.104311 95.0947142,210.729188 C98.6816108,210.612614 99.5621486,210.546186 100.674475,209.721697 C100.948996,209.521762 101.231286,209.58819 101.529762,209.67155 C102.269155,209.879952 103.024734,209.94638 103.78873,209.963313 C104.91789,209.98806 105.706489,209.31336 106.454299,208.647126 C106.82788,208.313684 107.118587,207.739277 107.226065,207.263861 C107.226065,207.263861 109.941488,208.346898 113.777654,207.889066 C115.85404,207.638984 117.356781,207.497661 119.349646,206.905671 C122.562961,205.947675 123.56781,204.432204 123.56781,204.432204 C125.012928,204.973397 126.557106,205.181799 128.035244,205.639631 C129.537986,206.106581 130.816708,206.764348 131.838391,207.972426 C132.328513,208.555299 132.676844,209.27168 133.341132,209.680017 C134.619854,210.471292 135.998284,211.170739 137.617567,210.962989 C138.746728,210.821015 140.324574,210.729188 142.284418,209.696298 C142.284418,209.696298 145.074298,208.105282 146.28698,206.806029 C147.822741,205.148585 148.271427,203.390848 148.611988,202.507746 C150.546581,197.534763 144.617843,188.779943 144.617843,188.779943 Z M117.132762,183.465052 C117.51476,183.031967 117.207219,182.407414 118.39465,182.748671 C118.785065,182.865246 119.291375,183.082114 119.631936,183.206503 C119.947246,183.331544 120.27939,183.431838 120.512473,183.623307 C120.678222,183.764629 120.711242,183.898136 120.611534,184.131285 C120.163496,185.231255 119.764664,186.888699 119.341229,187.996483 C119.2085,188.338392 119.167063,188.696583 119.108793,189.062588 C118.86794,190.628856 118.278756,192.028403 117.273907,193.278161 C116.269058,194.527268 115.480459,195.910534 115.529665,197.601191 C115.538082,197.767913 115.546499,197.942449 115.488228,198.092889 C115.239606,198.717442 113.861176,198.800803 113.861176,198.800803 C113.462344,198.834017 113.063512,198.89263 112.673745,198.842483 C111.793207,198.734375 111.369772,198.167783 111.402792,197.276215 C111.419626,196.943424 111.452646,196.618448 111.668896,196.218577 C112.183622,196.660128 112.748202,196.593049 113.279762,196.393113 C113.677946,196.251791 113.935633,196.218577 114.143466,196.667943 C114.217923,196.834664 114.450359,197.067814 114.716463,196.934958 C114.957316,196.809917 114.932065,196.551368 114.940482,196.318219 C114.948899,195.476798 114.674378,195.276862 113.844342,195.476798 C113.329616,195.601839 112.831076,195.793308 112.28333,195.751627 C111.918166,195.718413 111.727167,195.535411 111.843061,195.152473 C112.216642,193.952861 112.557203,192.736317 113.44551,191.703427 C113.736217,191.953508 114.018507,192.144977 114.417339,192.087016 C115.023356,192.003655 115.596353,192.103297 116.086476,192.527915 C116.302078,192.720036 116.584368,192.736317 116.783784,192.469954 C116.9832,192.20359 116.70091,192.05315 116.592785,191.870148 C116.302078,191.369984 115.804186,191.320489 115.305646,191.245594 C114.79092,191.162234 114.267777,191.37845 113.753051,191.228662 C113.7278,190.736964 114.068361,190.453668 114.284611,190.154091 C115.172918,188.954479 115.587936,187.554933 115.945331,186.147571 C116.186184,185.314616 116.584368,184.089605 117.132762,183.465052 Z M99.7447307,195.010499 C99.7447307,195.010499 96.3235824,195.468983 92.0303132,194.177544 C87.7292746,192.886106 86.5004064,192.153444 83.2456539,191.65328 C82.7225109,190.895219 84.4907084,188.971412 84.4907084,188.971412 C85.5784316,187.546466 86.8241336,186.688764 87.3725273,186.213999 L90.5444057,183.406439 C91.5822749,182.557202 92.387708,182.007543 93.2598289,181.241016 C93.674847,180.882826 94.3061149,180.782532 94.8784645,180.932972 C95.6010234,181.124441 96.3404162,181.224083 97.0545582,181.524312 C98.4329884,182.098719 99.8276048,182.324053 101.197618,182.915392 C101.613284,183.098395 102.434903,183.414905 103.522626,183.356943 C103.522626,183.356943 104.502872,183.29833 105.332908,183.273583 L105.332908,183.265116 C105.332908,183.265116 111.128919,182.998753 112.050894,183.240369 C113.279762,183.323729 114.300797,183.364758 115.205938,183.989963 C115.405354,184.131285 115.463625,184.256326 115.3555,184.473194 C114.641358,185.897489 114.25936,187.046954 113.852759,188.580008 C113.819091,188.704398 113.769885,188.846371 113.677946,188.929732 C113.677946,188.929732 110.979357,192.894572 110.713901,194.010823 L106.096904,193.102973 C106.096904,193.102973 105.748574,192.936252 105.141909,193.1948 C104.976161,193.294442 104.801348,193.377803 104.66862,193.461164 C104.618766,193.494378 104.577329,193.519777 104.527475,193.560806 C103.024734,194.73567 101.546596,195.010499 99.7447307,195.010499 Z M117.996466,205.914461 C117.107511,206.02322 116.252224,206.247903 115.38852,206.456305 C115.38852,206.456305 111.128919,207.497661 108.579891,206.38141 C107.92402,206.089648 107.616479,206.122862 107.616479,206.122862 C108.363642,204.848356 108.347455,203.015725 108.098185,201.716471 C107.882583,200.60022 107.733021,199.508717 107.741438,198.384 C107.749208,197.592725 107.707771,196.80145 107.67475,196.010176 C107.657917,195.643519 107.442314,195.393437 107.134774,195.227367 C106.778026,195.043713 106.454299,195.185687 106.396028,195.585557 C106.346174,195.910534 106.354591,196.251791 106.387611,196.576767 C106.429048,196.976638 106.254883,197.109494 105.881302,197.11796 C105.48247,197.134893 104.726891,197.209787 104.35331,196.992919 C104.062603,196.826849 103.847001,196.934958 103.722042,197.234535 C103.57248,197.584259 103.804916,197.734699 104.054186,197.834341 C104.419998,197.984129 105.133492,198.075956 105.565344,197.992596 C106.454299,197.825874 106.554007,197.926168 106.520339,198.809269 C106.495736,199.575145 106.554007,200.299992 106.919171,201.008557 C107.101753,201.366747 107.268149,201.807647 107.11017,202.316277 C106.669901,202.191236 106.363008,201.791366 105.922739,201.708005 C105.507721,201.624644 105.092055,201.674791 104.660203,201.516536 C104.062603,201.299668 103.656002,201.666325 103.680605,202.241383 C103.713625,202.89915 103.904624,202.841189 104.568912,202.832722 C105.523907,202.81579 106.570193,203.274273 106.570193,203.274273 C107.525188,203.590783 107.184628,204.240084 107.002045,204.856823 C106.910754,205.173333 106.844067,205.506775 106.711338,205.806352 C106.113738,207.197433 105.781594,207.347222 104.228999,206.922603 C104.228999,206.922603 103.589314,206.581346 103.340044,207.197433 C103.083005,207.805705 103.415149,208.172362 103.813333,208.32215 C103.995915,208.397045 104.212165,208.338432 104.361727,208.621727 C103.847001,209.013783 103.25717,208.938237 102.701007,208.855528 C102.426486,208.813848 102.136427,207.905347 102.227718,207.530875 C102.385049,206.922603 102.526194,206.306516 102.750861,205.714525 C103.165879,204.598274 103.198899,203.474208 103.090774,202.290878 C102.94186,200.51686 102.625902,198.734375 102.933443,196.943424 C102.958046,196.785169 102.908192,196.609981 102.875172,196.451726 C102.816901,196.176897 102.916609,196.04339 103.190482,195.943748 C103.871604,195.693666 104.494455,195.335475 105.117306,194.968819 C105.79778,194.568948 106.61163,194.469306 107.417064,194.669242 C108.306018,194.893925 109.227346,195.002033 110.066446,195.443584 C110.348736,195.593372 110.390174,195.72688 110.34032,195.968495 C110.249028,196.385298 110.132487,196.80145 110.032779,197.226068 C109.659198,198.875697 111.170356,199.967201 112.56562,199.991948 C113.022075,200.000415 113.486947,200.008881 113.935633,199.92552 C114.550067,199.808946 115.081627,200.025162 115.505062,200.374886 C117.190386,201.774433 119.17548,202.599573 121.143094,203.448809 C121.483655,203.598598 121.765945,203.815466 122.081255,203.956788 C120.395932,205.381734 119.607332,205.714525 117.996466,205.914461 Z" id="Shape" fill="#000000"></path><path d="M115.865847,123.869769 C116.642796,124.003212 118.432517,124.635928 119.013157,125.218522 C119.192894,125.402088 120.549844,126.375898 120.893384,128 C121.579826,121.372102 118.72698,119.748651 118.72698,119.748651 C117.018841,118.466294 115.677825,116.318183 113.888103,115.185543 C112.146822,114.095214 110.576991,112.846055 109.228326,111.297463 C108.198344,110.115351 106.866251,109.490446 105.411146,109.049107 C104.986024,108.916314 104.830507,109.057569 104.675627,109.415587 C104.28301,110.331464 104.062482,111.305925 103.882745,112.279735 C103.498413,114.420034 102.868697,116.518023 103.024214,118.749454 C103.122368,120.131405 103.465908,121.36364 104.233933,122.463082 C104.765495,123.220779 105.378641,123.902967 106.383766,124.03641 C106.841394,124.102806 107.299659,124.053335 107.749002,124.019486 C109.531075,123.895156 112.146822,123.595071 113.928895,123.695316 L114.419028,121.471696 C114.631908,120.539546 114.647843,120.048085 115.269274,120.115132 C115.424791,120.131405 115.710968,120.197801 115.841628,120.214726 C116.323476,120.264849 116.429916,120.223188 116.609653,120.59748 C116.756884,120.913838 116.364904,122.038016 116.233607,122.463082 L115.865847,123.869769 Z" id="Path" fill="#000000"></path><path d="M83.0514283,155.959534 C84.9001607,155.943527 84.3008244,152.773467 84.3008244,152.773467 C84.4209586,151.316174 84.7806939,150.01383 84.9855895,148.588552 C85.0456566,148.187732 84.9175135,147.835574 84.6091689,147.524395 C81.270772,144.198745 79.464754,137 79.464754,137 C79.464754,137.229223 79.4907831,137.459086 79.4560777,137.679985 C79.3366109,138.482264 79.3619725,139.317838 79.0883334,140.087463 C78.6518457,141.291843 78.1639672,142.471251 77.7361559,143.67499 C77.385097,144.665514 77.0854288,145.697657 77.2996682,146.745806 C77.4792021,147.605711 78.249396,149.251889 78.5230351,150.095787 C78.5230351,150.095787 78.9855519,153.969522 77,157 C79.2852201,156.434627 80.7234939,155.976181 83.0514283,155.959534 Z" id="Path" fill="#000000"></path><path d="M76.6627736,150.079755 C76.3432555,148.631223 75.3680864,146.282477 75.7451177,144.023944 C75.9745317,142.64899 77.2283205,139.9074 77.2283205,139.9074 C78.3753904,137.73844 77.9823831,135.430642 77.6954559,133 C77.3267321,133.319266 77.0564198,133.54064 76.8020834,133.77801 C75.8678126,134.644954 75.0479293,134.923272 73.8024479,136.101804 C72.5403516,137.272018 70.3765753,138.704555 69.7950524,141.39688 C69.1470698,144.400153 68.6473436,147.223639 69.1061715,149.507124 C69.5649994,151.78997 69.0492973,154.736299 68,159 C68,159 72.8355863,156.536728 75.4990888,156.536728 C76.0889191,154.900091 77.4903253,153.877033 76.6627736,150.079755 Z" id="Path" fill="#000000"></path><path d="M71.7278335,119.795266 C70.4174695,121.089688 68.9240685,122.037942 68.0535108,123.587639 C66.917129,125.624678 66.4605066,127.858974 66.8343419,130.21704 C67.1325047,132.105168 67.1325047,134.001677 66.9501145,135.906566 C66.7761323,137.712182 66.2367228,139.369532 65.2581539,140.894732 C65.2581539,140.894732 62.4291647,144.25907 60.7624283,147.623407 C60.5302364,148.093344 59.8666464,148.959085 60.0238124,150.624816 C60.1065995,151.506673 60.5050122,152.331158 60.8199911,153.155643 C61.2099958,154.178675 61.2597974,155.217178 61.0858152,156.256325 C60.9532266,157.056314 60.8697927,157.872419 60.6130235,158.664028 C60.4383945,159.199717 60.4966042,159.83468 60.6712331,160.420007 C60.986212,161.48365 62.0973697,162.061241 63.200766,161.994844 C63.200766,161.994844 63.7731609,161.978728 65.3661651,161.05497 C66.7593162,160.247245 66.6099114,160.156352 66.7011065,159.628398 C67.0497177,157.559128 67.2573321,155.810884 67.4727078,155.00316 C67.8543044,153.543712 67.9623157,152.883608 67.8374883,151.292655 C66.9003129,139.319895 71.6702706,136.326866 71.6702706,136.326866 C73.2872055,135.123338 74.1913954,134.257596 75.8426093,133.103059 C78.4057744,131.305824 79.8241496,128.320531 79.8241496,128.320531 C80.4043058,127.149878 81.1429217,126.102995 82.0387036,125.203732 C83.4570788,123.769425 85.116054,122.837287 87.2892144,123.389737 C88.0776318,123.596019 88.9236121,123.62116 89.7443682,123.670152 C90.7733856,123.728169 91.8017561,123.678532 92.7641557,123.299488 C94.3235277,122.672905 95.8660835,121.996686 97.4092861,121.328846 C97.4092861,121.328846 100.677435,120.18269 101.075848,117.222537 C101.656004,113.30575 102.170189,111.66516 103,109.059556 C99.0184597,109.99105 95.758719,108.531602 95.758719,108.531602 C94.2239245,107.863763 92.7971412,107.979152 92.374151,108.070045 C91.1795596,108.34208 90.0101923,108.688248 88.8738105,109.150449 C86.9244339,109.949793 85.2654587,111.203604 83.6562852,112.514141 C83.3490676,112.76168 83.0586661,113.025335 82.8018968,113.330891 C81.731486,114.616933 80.4877397,115.65608 78.8287645,116.100877 C78.8287645,116.109257 73.8680085,117.692474 71.7278335,119.795266 Z" id="Path" fill="#000000"></path><path d="M127.580424,154.807424 C126.46512,152.452568 125.95671,146.087761 125.95671,146.087761 C125.997639,145.12406 126.268151,144.218297 126.431865,143.288071 C126.743946,141.468175 127.211427,139.673386 126.981843,137.787184 C126.883359,136.988927 126.628834,136.396029 125.890841,135.942825 C124.554266,135.127832 123.323851,134.131299 122.101749,133.151503 C121.486541,132.657743 121.092603,132.032013 120.838718,131.315514 C120.600821,130.673047 120.44478,129.997747 120.22351,129.347555 C119.723414,127.914556 118.968793,126.687559 117.475539,126.078567 C117.311825,126.01226 117.172412,125.930503 117.049626,126.103029 C116.96713,126.218261 116.99207,126.350231 117.090555,126.457095 C117.155785,126.531126 117.221654,126.605158 117.270896,126.687559 C118.197545,128.351022 119.042337,130.030579 119.329476,131.957338 C119.436274,132.682206 119.796958,134.082373 119.698473,135.226326 C119.698473,135.226326 119.78033,138.767623 118.271089,148.573943 C117.582337,151.447666 117.845176,153.375069 118.090747,154.083199 C118.525613,155.343028 119.11588,156.725814 120.272752,157.253049 C121.732752,157.919979 122.380575,158.13435 125.111918,157.919979 C127.514554,157.730715 128.687414,157.16228 127.580424,154.807424 Z" id="Path" fill="#000000"></path><path d="M107.414591,157.918727 C110.344742,158.144913 112.262597,157.827206 112.262597,157.827206 C112.829592,157.642857 112.873102,157.551337 112.463153,157.049281 C109.333126,153.236793 112.620198,147.207544 112.620198,147.207544 C113.3354,145.677842 113.753507,144.063811 113.945225,142.407941 C114.10227,141.053436 113.901714,139.774108 113.596462,138.377765 C112.925451,135.33405 109.394313,135 109.394313,135 L108.853832,136.396343 C108.356863,138.9465 108.190979,140.63571 106.481838,142.608633 C106.159589,142.985175 104.98209,143.854621 105.086787,144.323337 C105.540246,146.29626 105.234994,148.236498 104.764538,150.15124 C104.511634,151.154698 104.25873,152.149658 104.110523,153.177958 C103.935802,154.37361 103.848781,156.012483 104.799211,156.848589 C105.627267,157.593175 106.228934,157.827206 107.414591,157.918727 Z" id="Path" fill="#000000"></path><path d="M119,157.692959 C116.126869,156.04859 116.126869,152.282666 116.126869,152.282666 C115.839181,149.569033 117.85549,140.55993 117.85549,140.55993 C117.919768,139.365331 118.103863,138.179871 118.143802,136.994411 C118.191854,135.566768 117.951594,134.146958 117.839889,132.719314 C117.711959,131.107585 117.279491,129.596384 116.574937,128.168741 C116.359016,127.726152 115.862895,125.906183 115.502818,125.479914 L114.878767,127.993141 C114.766437,128.510801 114.462525,128.477509 114.462525,128.477509 L113.806023,128.444217 C113.221911,128.393952 112.797556,128.34434 112.901773,127.734638 C112.957937,127.42587 113.613815,125.012519 113.613815,125.012519 C112.605348,124.945935 110.908554,125.16266 110.092295,125.246217 C108.83608,125.380038 108.851681,125.388524 109.211759,126.690833 C109.628001,128.193547 109.932538,129.713233 109.9082,131.30799 C109.892598,132.268239 109.612399,133.212168 109.796494,134.188736 C110.612753,134.338877 111.452726,134.464212 112.109228,135.015163 C112.109228,135.015163 115.655086,137.595627 114.910593,143.340147 C114.77455,144.375466 114.590455,145.36052 114.342083,146.362547 C113.942066,147.957304 112.69334,149.811217 112.701452,151.50585 C112.709565,152.808812 112.429366,154.30304 112.701452,155.564223 C112.89366,156.457234 113.454058,157.75171 114.366421,157.885531 C115.230731,158.010213 118.160027,158.127714 119,157.692959 Z" id="Path" fill="#000000"></path><path d="M118.840568,103.962633 C125.079019,106.859822 131.702783,109.437779 138.626742,110.506228 C152.110788,112.58449 162.88334,108.055311 175.713066,97.8066763 C190.93395,85.1286243 197.664927,63.0947432 194.036606,44.4097963 C191.673389,32.2206897 183.746834,21.8283354 174.748806,13.9025333 C165.91647,6.13086133 155.256979,0.724714535 143.069875,0.0761865698 C121.525422,-1.07734091 98.6788267,10.9363512 89.1824249,31.4764893 C79.5196818,52.3728638 83.5118742,77.5217931 99.9653731,92.1295671 C105.501421,97.0522475 112.093347,100.826346 118.840568,103.962633 Z" id="Path" fill="#58B3CA"></path><path d="M109.001916,40.0479701 L109.001916,33.166001 C109.090031,32.0024868 110.256696,32.0272151 110.256696,32.0272151 C110.833881,32.0272151 111.448635,32.0272151 111.774454,32.014851 C112.465027,31.9901227 114.259424,32.0396468 115.124861,32.014851 C115.501227,32.0024868 116.078412,32.0024868 116.618029,32.0024868 C116.618029,32.0024868 117.985514,31.9034385 117.985514,32.9555401 C117.997809,34.5399085 118.010787,37.5971651 117.985514,38.1417959 C117.973219,38.5131259 117.973219,39.1938976 117.973219,39.7880526 C117.973219,39.7880526 118.073628,40.9020426 116.893985,40.9144068 C116.253958,40.9267709 115.451363,40.963931 114.886473,40.9886593 C113.744398,41.0258193 111.26011,40.963931 109.90492,40.9144068 C109.917899,40.9144068 108.951369,40.8029943 109.001916,40.0479701 Z M110.883745,39.0330285 C110.883745,39.0330285 113.154917,38.8968201 114.259424,38.9463443 C115.350953,39.0082326 116.103685,39.0330285 116.103685,39.0330285 L116.103685,36.3841943 L116.103685,33.8838651 C116.103685,33.8838651 114.886473,33.8838651 113.393305,33.8838651 C111.887842,33.8838651 110.883745,33.8838651 110.883745,33.8838651 L110.883745,36.3346701 L110.883745,39.0330285 Z" id="Shape" fill="#F9F9F9"></path><path d="M121.08475,39.8209725 C121.036416,38.6498526 121,36.9420471 121,37.5519776 C121,38.4546881 121.121827,33.7948455 121.109247,34.5267622 C121.109247,34.9537135 121.133745,34.0388178 121.109247,33.2092856 C121.072832,32.1358478 122.277202,32.0870401 122.277202,32.0870401 C122.532112,32.0870401 122.812183,32.0748548 123.116089,32.0504176 C124.295961,31.9772393 125.244758,31.9894245 126.862282,32.0504176 C127.567424,32.0748548 128.224233,32.0870401 128.735379,32.0870401 C128.735379,32.0870401 129.829839,32.026047 129.854337,33.1117367 C129.878173,34.502325 130,36.8933059 130,37.6739637 C130,38.2351531 129.951004,39.0280628 129.914588,39.6745492 C129.914588,39.6745492 129.914588,40.8212319 128.941955,40.8700397 C128.260649,40.9065955 127.34893,40.9554033 126.923196,40.9920258 C126.387552,41.0285816 123.505407,40.9310327 122.009711,40.8700397 C122.021629,40.8456025 121.133745,40.9188474 121.08475,39.8209725 Z M122.945928,38.979255 L128.005076,38.979255 L128.005076,33.9046464 L122.945928,33.9046464 L122.945928,38.979255 Z" id="Shape" fill="#F9F9F9"></path><path d="M146.08475,39.8209725 C146.036416,38.6498526 146,36.9420471 146,37.5519776 C146,38.4546881 146.121165,33.7948455 146.109247,34.5267622 C146.109247,34.9537135 146.133745,34.0388178 146.109247,33.2092856 C146.072832,32.1358478 147.276539,32.0870401 147.276539,32.0870401 C147.532112,32.0870401 147.812183,32.0748548 148.116089,32.0504176 C149.295961,31.9772393 150.244096,31.9894245 151.862282,32.0504176 C152.567424,32.0748548 153.224233,32.0870401 153.734716,32.0870401 C153.734716,32.0870401 154.829839,32.026047 154.853675,33.1117367 C154.878173,34.502325 155,36.8933059 155,37.6739637 C155,38.2351531 154.951004,39.0280628 154.914588,39.6745492 C154.914588,39.6745492 154.914588,40.8212319 153.941955,40.8700397 C153.260649,40.9066621 152.348267,40.9554033 151.922534,40.9920258 C151.387552,41.0285816 148.505407,40.9310327 147.009049,40.8700397 C147.009049,40.8456691 146.121165,40.9188474 146.08475,39.8209725 Z" id="Path" fill="#F9F9F9"></path><path d="M133.00189,40.0480005 L133.00189,33.1659378 C133.090001,32.0024193 134.256618,32.0272152 134.256618,32.0272152 C134.83378,32.0272152 135.448509,32.0272152 135.774998,32.014851 C136.464859,31.9900551 138.259183,32.0395794 139.125267,32.014851 C139.501618,32.0024193 140.078779,32.0024868 140.617691,32.0024868 C140.617691,32.0024868 141.985803,31.9034381 141.985803,32.9555437 C141.998098,34.5399181 142.010393,37.5971862 141.985803,38.1418191 C141.972826,38.5131505 141.972826,39.1939248 141.972826,39.7880145 C141.972826,39.7880145 142.073231,40.9020087 140.894319,40.9144404 C140.254318,40.9268046 139.451073,40.9638972 138.886889,40.9886932 C137.744861,41.0257858 135.260675,40.9638972 133.90554,40.9144404 C133.90554,40.9144404 132.952028,40.8030275 133.00189,40.0480005 Z M134.884324,39.0329875 C134.884324,39.0329875 137.155404,38.8968461 138.259183,38.9463705 C139.350668,39.0082591 140.103369,39.0329875 140.103369,39.0329875 L140.103369,36.3841433 L140.103369,33.8838722 C140.103369,33.8838722 138.886889,33.8838722 137.393782,33.8838722 C135.887698,33.8838722 134.884324,33.8838722 134.884324,33.8838722 L134.884324,36.3346865 L134.884324,39.0329875 Z" id="Shape" fill="#F9F9F9"></path><path d="M158.08475,39.8209725 C158.036416,38.6498526 158,36.9420471 158,37.5519776 C158,38.4546881 158.121827,33.7948455 158.109247,34.5267622 C158.109247,34.9537135 158.133745,34.0388178 158.109247,33.2092856 C158.072832,32.1358478 159.277202,32.0870401 159.277202,32.0870401 C159.532112,32.0870401 159.812183,32.0748548 160.116089,32.0504176 C161.295961,31.9772393 162.244758,31.9894245 163.862282,32.0504176 C164.567424,32.0748548 165.224233,32.0870401 165.735379,32.0870401 C165.735379,32.0870401 166.829839,32.026047 166.854337,33.1117367 C166.878173,34.502325 167,36.8933059 167,37.6739637 C167,38.2351531 166.951666,39.0280628 166.914588,39.6745492 C166.914588,39.6745492 166.914588,40.8212319 165.941955,40.8700397 C165.260649,40.9066621 164.34893,40.9554033 163.923196,40.9920258 C163.387552,41.0285816 160.505407,40.9310327 159.009711,40.8700397 C159.009711,40.8456691 158.121827,40.9188474 158.08475,39.8209725 Z M159.93401,38.979255 L164.993158,38.979255 L164.993158,33.9046464 L159.93401,33.9046464 L159.93401,38.979255 Z" id="Shape" fill="#F9F9F9"></path><path d="M109.001916,54.0479402 L109.001916,47.1659928 C109.090031,46.0024823 110.256696,46.0272781 110.256696,46.0272781 C110.833881,46.0272781 111.448635,46.0272781 111.774454,46.0148464 C112.465027,45.9901181 114.259424,46.0396422 115.124861,46.0148464 C115.501227,46.0024823 116.078412,46.0024823 116.618029,46.0024823 C116.618029,46.0024823 117.985514,45.9035018 117.985514,46.9556001 C117.997809,48.5398959 118.010787,51.5972105 117.985514,52.1418396 C117.973219,52.5131684 117.973219,53.1939379 117.973219,53.7880235 C117.973219,53.7880235 118.073628,54.90201 116.893985,54.9143741 C116.253958,54.9268058 115.451363,54.9638981 114.886473,54.9886939 C113.744398,55.0257863 111.26011,54.9638981 109.90492,54.9143741 C109.917899,54.9143741 108.951369,54.8030295 109.001916,54.0479402 Z M110.883745,53.0206376 C110.883745,53.0206376 113.154917,52.8844972 114.259424,52.9339537 C115.363249,52.9834777 116.103685,53.0206376 116.103685,53.0206376 L116.103685,50.3718118 L116.103685,47.8714905 C116.103685,47.8714905 114.886473,47.8714905 113.393305,47.8714905 C111.887842,47.8714905 110.883745,47.8714905 110.883745,47.8714905 L110.883745,50.3222878 L110.883745,53.0206376 Z" id="Shape" fill="#F9F9F9"></path><path d="M121.08475,53.8209536 C121.036416,52.6499031 121,50.9421018 121,51.5520308 C121,52.4546726 121.121827,47.7948412 121.109247,48.5267561 C121.109247,48.9537064 121.133745,48.0388128 121.109247,47.2092827 C121.072832,46.1358475 122.277202,46.0870399 122.277202,46.0870399 C122.532112,46.0870399 122.812183,46.0748546 123.116089,46.0504175 C124.295961,45.9772393 125.244758,45.9894246 126.862282,46.0504175 C127.567424,46.0748546 128.224233,46.0870399 128.735379,46.0870399 C128.735379,46.0870399 129.829839,46.0260469 129.854337,47.111734 C129.878173,48.502319 130,50.8932941 130,51.6740166 C130,52.235138 129.951004,53.0280458 129.914588,53.6745307 C129.914588,53.6745307 129.914588,54.8212106 128.941955,54.8700182 C128.260649,54.9066406 127.34893,54.9553817 126.923196,54.9920041 C126.387552,55.0286264 123.505407,54.9310112 122.009711,54.8700182 C122.021629,54.8456477 121.133745,54.9310112 121.08475,53.8209536 Z M122.945928,52.9792382 L128.005076,52.9792382 L128.005076,47.9046418 L122.945928,47.9046418 L122.945928,52.9792382 Z" id="Shape" fill="#F9F9F9"></path><path d="M146.08475,53.8209536 C146.036416,52.6499031 146,50.9421018 146,51.5520308 C146,52.4546726 146.121165,47.7948412 146.109247,48.5267561 C146.109247,48.9537064 146.133745,48.0388128 146.109247,47.2092827 C146.072832,46.1358475 147.276539,46.0870399 147.276539,46.0870399 C147.532112,46.0870399 147.812183,46.0748546 148.116089,46.0504175 C149.295961,45.9772393 150.244096,45.9894246 151.862282,46.0504175 C152.567424,46.0748546 153.224233,46.0870399 153.734716,46.0870399 C153.734716,46.0870399 154.829839,46.0260469 154.853675,47.111734 C154.878173,48.502319 155,50.8932941 155,51.6740166 C155,52.235138 154.951004,53.0280458 154.914588,53.6745307 C154.914588,53.6745307 154.914588,54.8212106 153.941955,54.8700182 C153.260649,54.9066406 152.348267,54.9553817 151.922534,54.9920041 C151.387552,55.0286264 148.505407,54.9310112 147.009049,54.8700182 C147.009049,54.8456477 146.121165,54.9310112 146.08475,53.8209536 Z M147.933348,52.9792382 L152.993158,52.9792382 L152.993158,47.9046418 L147.933348,47.9046418 L147.933348,52.9792382 Z" id="Shape" fill="#F9F9F9"></path><path d="M133.00189,54.0479701 L133.00189,47.166001 C133.090001,46.0024868 134.256618,46.0272151 134.256618,46.0272151 C134.83378,46.0272151 135.448509,46.0272151 135.774998,46.014851 C136.464859,45.9901227 138.259183,46.0395793 139.125267,46.014851 C139.501618,46.0024868 140.078779,46.0024868 140.617691,46.0024868 C140.617691,46.0024868 141.985803,45.9034385 141.985803,46.9555401 C141.998098,48.5399085 142.010393,51.5971651 141.985803,52.1417959 C141.972826,52.5131259 141.972826,53.1938976 141.972826,53.7880526 C141.972826,53.7880526 142.073231,54.9020426 140.894319,54.9144068 C140.254318,54.9267709 139.451073,54.963931 138.886889,54.9886593 C137.744861,55.0258193 135.260675,54.963931 133.90554,54.9144068 C133.90554,54.9144068 132.952028,54.8029943 133.00189,54.0479701 Z M134.884324,53.0205968 C134.884324,53.0205968 137.155404,52.8844559 138.259183,52.9339801 C139.350668,52.9958685 140.103369,53.0205968 140.103369,53.0205968 L140.103369,50.3717626 L140.103369,47.871501 C140.103369,47.871501 138.886889,47.871501 137.393782,47.871501 C135.887698,47.871501 134.884324,47.871501 134.884324,47.871501 L134.884324,50.322306 L134.884324,53.0205968 Z" id="Shape" fill="#F9F9F9"></path><path d="M158.08475,53.8209536 C158.036416,52.6499031 158,50.9421018 158,51.5520308 C158,52.4546726 158.121827,47.7948412 158.109247,48.5267561 C158.109247,48.9537064 158.133745,48.0388128 158.109247,47.2092827 C158.072832,46.1358475 159.277202,46.0870399 159.277202,46.0870399 C159.532112,46.0870399 159.812183,46.0748546 160.116089,46.0504175 C161.295961,45.9772393 162.244758,45.9894246 163.862282,46.0504175 C164.567424,46.0748546 165.224233,46.0870399 165.735379,46.0870399 C165.735379,46.0870399 166.829839,46.0260469 166.854337,47.111734 C166.878173,48.502319 167,50.8932941 167,51.6740166 C167,52.235138 166.951666,53.0280458 166.914588,53.6745307 C166.914588,53.6745307 166.914588,54.8212106 165.941955,54.8700182 C165.260649,54.9066406 164.34893,54.9553817 163.923196,54.9920041 C163.387552,55.0286264 160.505407,54.9310112 159.009711,54.8700182 C159.009711,54.8456477 158.121827,54.9310112 158.08475,53.8209536 Z M159.93401,52.9792382 L164.993158,52.9792382 L164.993158,47.9046418 L159.93401,47.9046418 L159.93401,52.9792382 Z" id="Shape" fill="#F9F9F9"></path><path d="M109.001916,68.0482059 L109.001916,61.1659921 C109.090031,60.0024823 110.256696,60.027278 110.256696,60.027278 C110.833881,60.027278 111.448635,60.027278 111.774454,60.0148464 C112.465027,59.9901182 114.259424,60.0396421 115.124861,60.0148464 C115.501227,60.0024823 116.078412,60.0024823 116.618029,60.0024823 C116.618029,60.0024823 117.985514,59.9035018 117.985514,60.9555996 C117.997809,62.5398945 118.010787,65.5970046 117.985514,66.1415659 C117.973219,66.5131648 117.973219,67.1942041 117.973219,67.7880867 C117.973219,67.7880867 118.073628,68.9022077 116.893985,68.9143691 C116.253958,68.9265305 115.451363,68.9636904 114.886473,68.9886889 C113.744398,69.0258488 111.26011,68.9636904 109.90492,68.9143691 C109.917899,68.9143691 108.951369,68.8028894 109.001916,68.0482059 Z M110.883745,67.0205661 C110.883745,67.0205661 113.154917,66.8847636 114.259424,66.9340849 C115.363249,66.9834062 116.103685,67.0205661 116.103685,67.0205661 L116.103685,64.3718094 L116.103685,61.8714895 C116.103685,61.8714895 114.886473,61.8714895 113.393305,61.8714895 C111.887842,61.8714895 110.883745,61.8714895 110.883745,61.8714895 L110.883745,64.3222854 L110.883745,67.0205661 Z" id="Shape" fill="#F9F9F9"></path><path d="M121.08475,67.8207756 C121.036416,66.6495321 121,64.9422732 121,65.5521987 C121,66.4544358 121.121827,61.7948309 121.109247,62.5267416 C121.109247,62.9536895 121.133745,62.0388011 121.109247,61.2092757 C121.072832,60.1358467 122.277202,60.0870394 122.277202,60.0870394 C122.532112,60.0870394 122.812183,60.0748542 123.116089,60.0504172 C124.295961,59.9772394 125.244758,59.9894246 126.862282,60.0504172 C127.567424,60.0748542 128.224233,60.0870394 128.735379,60.0870394 C128.735379,60.0870394 129.829839,60.0260468 129.854337,61.1117276 C129.878173,62.5023046 130,64.8929997 130,65.6740507 C130,66.2353686 129.951004,67.0277392 129.914588,67.6742869 C129.914588,67.6742869 129.914588,68.8208937 128.941955,68.8701671 C128.260649,68.9067893 127.34893,68.9553969 126.923196,68.9920191 C126.387552,69.0286412 123.505407,68.9307602 122.009711,68.8701671 C122.021629,68.8455304 121.133745,68.9307602 121.08475,67.8207756 Z M122.945928,66.9791316 L128.005076,66.9791316 L128.005076,61.9046308 L122.945928,61.9046308 L122.945928,66.9791316 Z" id="Shape" fill="#F9F9F9"></path><path d="M146.08475,67.8207756 C146.036416,66.6495321 146,64.9422732 146,65.5521987 C146,66.4544358 146.121165,61.7948309 146.109247,62.5267416 C146.109247,62.9536895 146.133745,62.0388011 146.109247,61.2092757 C146.072832,60.1358467 147.276539,60.0870394 147.276539,60.0870394 C147.532112,60.0870394 147.812183,60.0748542 148.116089,60.0504172 C149.295961,59.9772394 150.244096,59.9894246 151.862282,60.0504172 C152.567424,60.0748542 153.224233,60.0870394 153.734716,60.0870394 C153.734716,60.0870394 154.829839,60.0260468 154.853675,61.1117276 C154.878173,62.5023046 155,64.8929997 155,65.6740507 C155,66.2353686 154.951004,67.0277392 154.914588,67.6742869 C154.914588,67.6742869 154.914588,68.8208937 153.941955,68.8701671 C153.260649,68.9067893 152.348267,68.9553969 151.922534,68.9920191 C151.387552,69.0286412 148.505407,68.9307602 147.009049,68.8701671 C147.009049,68.8455304 146.121165,68.9307602 146.08475,67.8207756 Z M147.933348,66.9791316 L152.993158,66.9791316 L152.993158,61.9046308 L147.933348,61.9046308 L147.933348,66.9791316 Z" id="Shape" fill="#F9F9F9"></path><path d="M133.00189,68.048113 L133.00189,61.1659541 C133.090001,60.0024869 134.256618,60.0272156 134.256618,60.0272156 C134.83378,60.0272156 135.448509,60.0272156 135.774998,60.0148512 C136.464859,59.9900549 138.259183,60.03958 139.125267,60.0148512 C139.501618,60.0024869 140.078779,60.0024869 140.617691,60.0024869 C140.617691,60.0024869 141.985803,59.9034367 141.985803,60.9555571 C141.998098,62.5399536 142.010393,65.5975347 141.985803,66.1421077 C141.972826,66.5130389 141.972826,67.1940929 141.972826,67.7879882 C141.972826,67.7879882 142.073231,68.9021331 140.894319,68.9142948 C140.254318,68.9271321 139.451073,68.9642928 138.886889,68.9886161 C137.744861,69.0257768 135.260675,68.9642928 133.90554,68.9142948 C133.90554,68.9142948 132.952028,68.8034883 133.00189,68.048113 Z M134.884324,67.0204511 C134.884324,67.0204511 137.155404,66.8846457 138.259183,66.9339681 C139.350668,66.9961278 140.103369,67.0204511 140.103369,67.0204511 L140.103369,64.3718402 L140.103369,61.8715342 C140.103369,61.8715342 138.886889,61.8715342 137.393782,61.8715342 C135.887698,61.8715342 134.884324,61.8715342 134.884324,61.8715342 L134.884324,64.3223827 L134.884324,67.0204511 Z" id="Shape" fill="#F9F9F9"></path><path d="M158.08475,67.8207756 C158.036416,66.6495321 158,64.9422732 158,65.5521987 C158,66.4544358 158.121827,61.7948309 158.109247,62.5267416 C158.109247,62.9536895 158.133745,62.0388011 158.109247,61.2092757 C158.072832,60.1358467 159.277202,60.0870394 159.277202,60.0870394 C159.532112,60.0870394 159.812183,60.0748542 160.116089,60.0504172 C161.295961,59.9772394 162.244758,59.9894246 163.862282,60.0504172 C164.567424,60.0748542 165.224233,60.0870394 165.735379,60.0870394 C165.735379,60.0870394 166.829839,60.0260468 166.854337,61.1117276 C166.878173,62.5023046 167,64.8929997 167,65.6740507 C167,66.2353686 166.951666,67.0277392 166.914588,67.6742869 C166.914588,67.6742869 166.914588,68.8208937 165.941955,68.8701671 C165.260649,68.9067893 164.34893,68.9553969 163.923196,68.9920191 C163.387552,69.0286412 160.505407,68.9307602 159.009711,68.8701671 C159.009711,68.8455304 158.121827,68.9307602 158.08475,67.8207756 Z M159.93401,66.9791316 L164.993158,66.9791316 L164.993158,61.9046308 L159.93401,61.9046308 L159.93401,66.9791316 Z" id="Shape" fill="#F9F9F9"></path><path d="M109.001916,82.0481798 L109.001916,75.1659799 C109.090031,74.0025057 110.256696,74.0268292 110.256696,74.0268292 C110.833881,74.0268292 111.448635,74.0268292 111.774454,74.0146674 C112.465027,73.9896683 114.259424,74.0396666 115.124861,74.0146674 C115.501227,74.0025057 116.078412,74.0025057 116.618029,74.0025057 C116.618029,74.0025057 117.985514,73.9031847 117.985514,74.9551762 C117.997809,76.5395821 118.010787,79.5969113 117.985514,80.1414875 C117.973219,80.5130965 117.973219,81.1941546 117.973219,81.7880535 C117.973219,81.7880535 118.073628,82.902205 116.893985,82.9143668 C116.253958,82.9265285 115.451363,82.9636894 114.886473,82.9886886 C113.744398,83.0258495 111.26011,82.9636894 109.90492,82.9143668 C109.917899,82.9143668 108.951369,82.802884 109.001916,82.0481798 Z M110.883745,81.0205118 C110.883745,81.0205118 113.154917,80.8847056 114.259424,80.9340283 C115.363249,80.9833509 116.103685,81.0205118 116.103685,81.0205118 L116.103685,78.3719526 L116.103685,75.8713614 C116.103685,75.8713614 114.886473,75.8713614 113.393305,75.8713614 C111.887842,75.8713614 110.883745,75.8713614 110.883745,75.8713614 L110.883745,78.3219543 L110.883745,81.0205118 Z" id="Shape" fill="#F9F9F9"></path><path d="M121.08475,81.8207865 C121.036416,80.6495538 121,78.9423107 121,79.5522306 C121,80.4544593 121.121827,75.7948309 121.109247,76.5266017 C121.109247,76.9534124 121.133745,76.0391984 121.109247,75.2095475 C121.072832,74.136195 122.277202,74.086922 122.277202,74.086922 C122.532112,74.086922 122.812183,74.0749367 123.116089,74.0503002 C124.295961,73.9770565 125.244758,73.9897077 126.862282,74.0503002 C127.567424,74.0749367 128.224233,74.086922 128.735379,74.086922 C128.735379,74.086922 129.829839,74.0263295 129.854337,75.1116674 C129.878173,76.502631 130,78.8930377 130,79.6740814 C130,80.2353942 129.951004,81.0277574 129.914588,81.6742991 C129.914588,81.6742991 129.914588,82.8208953 128.941955,82.8701683 C128.260649,82.9067902 127.34893,82.9553973 126.923196,82.9920191 C126.387552,83.028641 123.505407,82.9307608 122.009711,82.8701683 C122.021629,82.8455318 121.133745,82.9307608 121.08475,81.8207865 Z M122.945928,80.9791502 L128.005076,80.9791502 L128.005076,75.9046964 L122.945928,75.9046964 L122.945928,80.9791502 Z" id="Shape" fill="#F9F9F9"></path><path d="M146.08475,81.8207865 C146.036416,80.6495538 146,78.9423107 146,79.5522306 C146,80.4544593 146.121165,75.7948309 146.109247,76.5266017 C146.109247,76.9534124 146.133745,76.0391984 146.109247,75.2095475 C146.072832,74.136195 147.276539,74.086922 147.276539,74.086922 C147.532112,74.086922 147.812183,74.0749367 148.116089,74.0503002 C149.295961,73.9770565 150.244096,73.9897077 151.862282,74.0503002 C152.567424,74.0749367 153.224233,74.086922 153.734716,74.086922 C153.734716,74.086922 154.829839,74.0263295 154.853675,75.1116674 C154.878173,76.502631 155,78.8930377 155,79.6740814 C155,80.2353942 154.951004,81.0277574 154.914588,81.6742991 C154.914588,81.6742991 154.914588,82.8208953 153.941955,82.8701683 C153.260649,82.9067902 152.348267,82.9553973 151.922534,82.9920191 C151.387552,83.028641 148.505407,82.9307608 147.009049,82.8701683 C147.009049,82.8455318 146.121165,82.9307608 146.08475,81.8207865 Z M147.933348,80.9791502 L152.993158,80.9791502 L152.993158,75.9046964 L147.933348,75.9046964 L147.933348,80.9791502 Z" id="Shape" fill="#F9F9F9"></path><path d="M133.00189,82.0481147 L133.00189,75.1659681 C133.090001,74.0025029 134.256618,74.0275019 134.256618,74.0275019 C134.83378,74.0275019 135.448509,74.0275019 135.774998,74.0146646 C136.464859,73.9903413 138.259183,74.0396636 139.125267,74.0146646 C139.501618,74.0025029 140.078779,74.0025029 140.617691,74.0025029 C140.617691,74.0025029 141.985803,73.9031827 141.985803,74.9558417 C141.998098,76.5402354 142.010393,79.5975408 141.985803,80.1421128 C141.972826,80.5130433 141.972826,81.1940961 141.972826,81.7879903 C141.972826,81.7879903 142.073231,82.9021332 140.894319,82.9142949 C140.254318,82.9271322 139.451073,82.9642928 138.886889,82.9886161 C137.744861,83.0257768 135.260675,82.9642928 133.90554,82.9142949 C133.90554,82.9142949 132.952028,82.8034887 133.00189,82.0481147 Z M134.884324,81.0204547 C134.884324,81.0204547 137.155404,80.8846495 138.259183,80.9339718 C139.350668,80.9961313 140.103369,81.0204547 140.103369,81.0204547 L140.103369,78.371916 L140.103369,75.8713442 C140.103369,75.8713442 138.886889,75.8713442 137.393782,75.8713442 C135.887698,75.8713442 134.884324,75.8713442 134.884324,75.8713442 L134.884324,78.3225938 L134.884324,81.0204547 Z" id="Shape" fill="#F9F9F9"></path><path d="M158.08475,81.8207865 C158.036416,80.6495538 158,78.9423107 158,79.5522306 C158,80.4544593 158.121827,75.7948309 158.109247,76.5266017 C158.109247,76.9534124 158.133745,76.0391984 158.109247,75.2095475 C158.072832,74.136195 159.277202,74.086922 159.277202,74.086922 C159.532112,74.086922 159.812183,74.0749367 160.116089,74.0503002 C161.295961,73.9770565 162.244758,73.9897077 163.862282,74.0503002 C164.567424,74.0749367 165.224233,74.086922 165.735379,74.086922 C165.735379,74.086922 166.829839,74.0263295 166.854337,75.1116674 C166.878173,76.502631 167,78.8930377 167,79.6740814 C167,80.2353942 166.951666,81.0277574 166.914588,81.6742991 C166.914588,81.6742991 166.914588,82.8208953 165.941955,82.8701683 C165.260649,82.9067902 164.34893,82.9553973 163.923196,82.9920191 C163.387552,83.028641 160.505407,82.9307608 159.009711,82.8701683 C159.009711,82.8455318 158.121827,82.9307608 158.08475,81.8207865 Z M159.93401,80.9791502 L164.993158,80.9791502 L164.993158,75.9046964 L159.93401,75.9046964 L159.93401,80.9791502 Z" id="Shape" fill="#F9F9F9"></path><path d="M147.964887,39.4601654 L149.185616,40.6593441 C149.185616,40.6593441 150.02046,41.4258198 150.568432,40.6593441 C151.117082,39.8928685 151.851554,38.3845486 152.263211,37.6551212 C152.686398,36.9133445 156,31.1027598 156,30.3486335 C156,29.5821579 155.551721,28.2345832 154.442892,29.5573915 C153.334062,30.8926167 150.904811,35.3432773 150.904811,35.3432773 L149.447395,37.6180729 C149.447395,37.6180729 148.737337,37.0617403 147.765501,36.109753 C146.495264,34.8734583 145.336249,33.8968396 144.439691,34.1069827 C143.704541,34.2800774 143.866627,35.4916057 145.112449,36.6290372 C146.358271,37.7664012 147.964887,39.4601654 147.964887,39.4601654 Z" id="Path" fill="#000000"></path><path d="M156.109376,41.5424718 C156.260124,41.6362258 156.486538,41.7650896 156.658988,41.8705469 L157.973481,42.5852132 C158.124228,42.6554967 158.910812,43.088965 158.997037,42.9835717 C159.039856,42.901521 158.608731,42.5500394 158.339497,42.3625954 C158.124228,42.1985579 157.466688,41.7299159 156.992744,41.4136081 C156.79859,41.2964476 156.691249,41.2378673 156.443132,41.0855331 C156.443132,41.0855331 156.130493,40.9097923 156.044268,41.0621265 C155.915223,41.3198541 156.109376,41.5424718 156.109376,41.5424718 Z" id="Path" fill="#000000"></path><path d="M155.991125,44.8609673 L155.539314,42.0972403 C155.48126,41.8351925 154.936689,42.1449031 155.006101,42.5261405 L155.748182,44.7179789 C155.805605,44.9800918 156.049179,45.1230151 155.991125,44.8609673 Z" id="Path" fill="#000000"></path><path d="M143.905673,31.5094936 C143.748979,31.423967 143.526084,31.285001 143.359066,31.178122 L142.04235,30.4407035 C141.886263,30.3765294 141.105223,29.9169847 141.005011,30.0131874 C140.949136,30.0879794 141.37306,30.4407035 141.65183,30.6223745 C141.863792,30.782693 142.511217,31.2529723 142.99041,31.5736093 C143.180507,31.6911646 143.291651,31.7552803 143.537017,31.9049226 C143.537017,31.9049226 143.849797,32.0865936 143.950009,31.9476859 C144.084231,31.7232516 143.905673,31.5094936 143.905673,31.5094936 Z" id="Path" fill="#000000"></path><path d="M145.007307,28.1342046 L145.337356,30.8974018 C145.391989,31.1571626 146.052086,30.8856062 145.996704,30.5076962 L145.295445,28.2877406 C145.227339,28.0279154 144.951925,27.8744438 145.007307,28.1342046 Z" id="Path" fill="#000000"></path><path d="M103.992021,156.780482 L103.4375,156.764423 C103.181516,156.813243 103.113697,156.361656 102.857713,156.402768 C102.942819,156.764423 102.652926,157.495443 102.345745,157.651539 C101.714761,157.972083 101.09242,158.251515 100.333777,158.284276 C99.3530585,158.333739 98.380984,158.292627 97.400266,158.210403 C95.8138298,158.070366 94.4069149,158.694752 93,159.270318 C90.8769947,160.149083 88.8643617,159.894704 86.8517287,158.875901 C85.7174202,158.300978 85.3257979,158.070366 84.3530585,157.281533 C83.5006649,156.583274 82.7333777,156.320544 82.7074468,156.098925 C82.6908245,156.082224 82.6223404,156.016702 82.6050532,156 L82.1615691,156.008351 L82,157.059914 C82.0425532,157.101026 82.09375,157.133787 82.119016,157.174899 C82.1702128,157.240421 82.8949468,157.553257 82.9720745,157.602077 C84.1143617,158.317037 84.3962766,158.563708 85.2912234,159.122572 C85.8882979,159.491936 86.5106383,159.83689 87.0990691,160.223599 C87.9009309,160.749059 88.8304521,160.699597 89.7167553,160.798522 C90.2885638,160.864044 90.8344415,161.028491 91.4308511,160.99573 C92.6163564,160.930208 93.6569149,160.461919 94.6628989,159.935816 C95.4301862,159.533048 96.2147606,159.33584 97.0930851,159.368601 C98.0485372,159.409713 98.9860372,159.434765 99.9414894,159.565809 C101.297207,159.754667 102.474069,159.204796 103.49734,158.415963 C103.676197,158.275925 103.838431,158.202053 104,158.169292 L104,156.780482 L103.992021,156.780482 Z" id="Path" fill="#000000"></path><path d="M52.209068,180.08451 L48.6925421,180.08451 C48.2425235,180.22778 48.1258929,180.802181 48.359219,181.258401 C48.359219,181.258401 51.2257974,199.372507 51.3341112,200.867271 C51.4341081,202.269602 51.9340927,205.157454 52.0257728,206.567708 C52.0757387,207.260291 52.1340865,207.471565 51.4341081,207.556074 C51.4341081,207.556074 2.8788077,207.977962 0.728776446,207.724433 C0.595577169,207.733016 0.462377892,207.758765 0.345422429,207.808943 C0.0621303084,207.927124 -0.0210380206,208.155564 0.00430232968,208.467854 C0.0374397108,208.813815 0.237563502,208.906907 0.545546221,208.91549 C1.3375946,208.940579 38.8010988,208.695633 39.5677419,208.780143 C41.9593511,209.050838 44.2926126,208.949162 46.675905,208.957745 C48.217508,208.957745 50.717496,208.982834 52.2757326,209 L65.6671331,208.91549 C65.6755798,208.932656 65.6840266,208.949162 65.6918237,208.957745 C66.2337173,208.85607 66.9257038,208.459271 67.0920405,207.142109 C67.9588104,200.588653 68.9256422,181.849308 68.9256422,181.849308 C68.9999126,180.768509 69.2167314,180.126764 68.2589961,180.075927 L64.0589955,180.075927 L64.0589955,180.067344 L62.4255175,180.067344 C62.3839333,180.075927 62.3507959,180.08451 62.300765,180.08451 L54.4423975,180 L52.209068,180.08451 Z M65.6755798,207.589746 C64.7418854,207.724433 61.975239,207.868364 58.6255695,207.640584 C57.2839604,207.547491 53.600708,207.471565 53.600708,207.471565 L50.0591667,182.406543 C49.8841233,181.477598 49.9258374,181.477598 50.8424434,181.317161 L66.7502706,181.519852 C67.6339341,181.486181 67.5923499,182.018327 67.6917621,182.930107 L65.6755798,207.589746 Z" id="Shape" fill="#000000"></path><path d="M80.9955023,181.152281 C80.6957983,181.73942 81.0056222,182.597184 80.037228,183.161378 C79.827046,183.281983 79.8075847,183.59026 79.6877031,183.808526 C79.6277623,183.921482 79.5078807,184.019143 79.3280583,183.996787 C79.148236,183.974431 79.098415,183.846178 79.0688339,183.725573 C78.9987732,183.432592 78.9388324,183.123726 79.1186548,182.845453 C79.5281205,182.205954 79.6472236,181.551159 79.5577017,180.844004 C79.487641,180.354525 79.8075847,179.978592 80.1563312,180.000948 C80.5961565,180.030952 80.9752625,180.415122 80.9955023,180.844004 C81.0056222,180.904012 80.9955023,180.96402 80.9955023,181.152281 Z" id="Path" fill="#000000"></path><path d="M96.4957047,140.499529 C97.0610487,139.719535 97.0610487,139.551205 96.9256147,138.523912 C96.8541701,137.974591 96.7106597,137.885923 96.2882048,138.124909 C95.8819025,138.355583 95.7626212,138.807232 95.5793503,139.206234 C94.9655482,140.552868 93.9777492,141.341175 92.6395612,141.553838 C92.2730194,141.607177 91.8984013,141.553838 91.5318596,141.368191 C90.8385365,141.013522 90.3446371,140.437878 89.890498,139.799889 C89.6593904,139.471543 89.4282827,139.515877 89.1654909,139.74655 C88.8865464,139.985536 89.0139041,140.21621 89.1574145,140.61452 C89.2766959,140.942866 89.4922722,141.261514 89.7389113,141.625188 C90.3763212,142.563814 90.9739706,143.033473 92.4320613,142.998145 C92.4239849,142.98914 95.0612218,142.944806 96.4957047,140.499529 Z" id="Path" fill="#000000"></path><path d="M99.0005928,162.698595 C98.9946738,162.458107 99.0326541,162.287887 99.1337705,162.132811 C99.2033189,162.032254 99.2856918,161.977736 99.3932205,162.00863 C99.7093943,162.078898 100.139509,163.148072 99.9560197,163.488511 C99.7853549,163.798662 99.6965697,164.070045 99.8420787,164.418359 C99.9308639,164.627953 99.9496074,164.859961 99.7409623,164.968999 C99.4815124,165.092575 99.4183763,164.821192 99.3108476,164.604329 C99.0005928,164.000382 99.1401828,163.295273 99.0005928,162.698595 Z" id="Path" fill="#000000"></path><path d="M83.9997611,159.426069 C84.0174439,159.818793 83.0489734,160.648883 82.5518162,160.639815 C82.1593952,160.630747 81.810501,160.567967 81.4874508,160.898608 C81.3133438,161.085553 81.0861885,161.005334 81.0256591,160.729102 C80.8773961,160.04201 81.3915559,159.444206 82.054659,159.62278 C82.3947118,159.711369 82.5865016,159.658355 82.7789715,159.426069 C82.9442372,159.220988 83.1537097,159.096126 83.3801849,159.024975 C83.7209178,158.917552 83.8780222,159.176345 83.9997611,159.426069 Z" id="Path" fill="#000000"></path><path d="M86.2163541,164 C86.0615116,164 85.9635723,163.881743 86.0128155,163.798746 C86.3142933,163.285032 86.0686245,162.397018 87.044187,162.341687 C87.1842566,162.334635 87.3035345,162.154537 87.4441512,162.063945 C87.6126724,161.953282 87.7598549,161.988 87.864907,162.154537 C87.9426019,162.286355 88.0826714,162.424684 87.935489,162.59122 C87.8227767,162.71653 87.7177246,162.917784 87.5913337,162.931345 C86.980718,162.993729 86.749275,163.493338 86.4127797,163.875233 C86.3635365,163.930565 86.279276,163.965282 86.2163541,164 Z" id="Path" fill="#000000"></path><path d="M93,163.272297 C92.7719668,163.760686 92.6032485,164.318923 92.561069,164.898441 C92.5525013,165.044685 92.3580799,164.996119 92.2308821,164.975383 C92.087208,164.947007 91.9606694,164.856423 92.0114166,164.744558 C92.2565853,164.256169 92.3916917,163.753592 92.3666476,163.216092 C92.3580799,163.08349 92.561069,163 92.7469227,163 C92.9070732,163.007094 93,163.076396 93,163.272297 Z" id="Path" fill="#000000"></path><path d="M118.999743,187.626525 C119.006292,187.852459 118.887323,188.099937 118.684859,187.958521 C118.278838,187.682871 117.851534,187.718225 117.410587,187.697233 C117.305808,187.690052 117.201028,187.640888 117.109892,187.58399 C117.004567,187.520463 116.976735,187.39341 117.018756,187.287348 C117.040039,187.231002 117.144819,187.167476 117.207577,187.167476 C117.571577,187.167476 117.914839,187.047051 118.271744,187.004516 C118.691408,186.962533 118.964816,187.21664 118.999743,187.626525 Z" id="Path" fill="#000000"></path><path d="M82.481,192.436 C82.493,192.487 82.506,192.513 82.519,192.564 C82.493,192.487 82.481,192.436 82.481,192.436 Z" id="Path" fill="#000000"></path><path d="M82.4615,192.353 C82.4875,192.43 82.5125,192.532 82.5385,192.647 C82.5125,192.558 82.4875,192.455 82.4615,192.353 Z" id="Path" fill="#000000"></path><path d="M82.3975,192.1225 C82.4995,192.5065 82.5765,192.7625 82.6025,192.8775 C82.5635,192.7235 82.4865,192.4165 82.3975,192.1225 Z" id="Path" fill="#000000"></path><path d="M82.494,193.468 C82.506,193.493 82.506,193.519 82.506,193.532 C82.506,193.519 82.494,193.493 82.494,193.468 Z" id="Path" fill="#000000"></path><path d="M82.4615,192.353 C82.4875,192.455 82.5125,192.558 82.5385,192.647 C82.5125,192.532 82.4875,192.443 82.4615,192.353 Z" id="Path" fill="#000000"></path><path d="M82.487,192.461 C82.5,192.487 82.5,192.513 82.513,192.539 C82.5,192.526 82.487,192.5 82.487,192.461 Z" id="Path" fill="#000000"></path><path d="M82.495125,193.480875 C82.508125,193.531875 82.508125,193.531875 82.495125,193.480875 L82.495125,193.480875 Z" id="Path" fill="#000000"></path><path d="M181.944712,191.74633 C183.212281,190.091066 184.110115,188.223128 185.134248,186.428218 C185.687869,185.461579 186.023575,184.478286 185.998708,183.364314 C185.990201,182.889002 186.007215,182.372693 185.578584,182.118382 C185.100219,181.832042 184.614001,182.118382 184.193878,182.41369 C184.169011,182.429705 184.143489,182.454687 184.110115,182.470702 C183.061115,183.093348 182.515347,184.142621 181.928352,185.117587 C180.57702,187.362186 179.309451,189.648423 178,191.918006 L181.944712,191.74633 Z M179.334972,192 C179.754441,191.090374 180.073133,190.14039 180.702664,189.312758 C181.307328,188.509469 181.701276,187.558845 182.221522,186.690856 C182.926963,185.526919 183.640257,184.346967 184.932693,183.380328 C185.033471,184.683272 184.370565,185.502577 183.883693,186.379533 C183.464224,187.141185 182.968845,187.870808 182.565735,188.649115" id="Shape" fill="#000000"></path><path d="M180.015599,209 L162.967438,209 C162.802166,209 162.636249,208.932362 162.520688,208.806937 C162.429659,208.705809 162.371556,208.588264 162.35477,208.453646 C161.038407,207.420695 159.37407,205.958936 157.892435,204.606841 C155.946619,202.834473 154.315207,201.263706 154.199646,201.146161 C150.506857,197.400483 151.01171,191.814801 151.036243,191.579055 C151.069813,191.259911 151.334506,191.008404 151.657303,191.008404 C151.657303,191.008404 155.61543,191.041894 157.776228,191.008404 C161.311493,190.95784 168.954017,191.150902 171.048964,191.176513 C173.143267,191.201467 191.342519,191.008404 191.342519,191.008404 C191.665315,191.008404 191.930008,191.252031 191.963579,191.579055 C191.988112,191.814801 192.493611,197.400483 188.808569,201.129744 C188.7014,201.238752 187.417962,202.473302 185.78655,203.977089 C184.155783,205.480219 182.16865,207.252586 180.636659,208.445766 C180.619873,208.579728 180.562416,208.697273 180.470741,208.798401 C180.346788,208.932362 180.189263,209 180.015599,209 Z M163.447758,207.73984 L179.535278,207.73984 C179.568849,207.706349 179.601774,207.672859 179.634699,207.639368 C182.607007,205.371211 187.881498,200.289856 187.931208,200.239292 C190.547795,197.585009 190.762777,193.721131 190.738245,192.276444 L152.237045,192.276444 C152.220259,193.721131 152.435887,197.593546 155.052473,200.247829 C155.093791,200.289856 160.367637,205.371211 163.339944,207.639368 C163.389655,207.672859 163.423226,207.706349 163.447758,207.73984 Z" id="Shape" fill="#000000"></path><path d="M143.973688,208.887643 C143.973688,208.887643 157.604933,208.98853 159.4908,208.98853 C161.376668,208.98853 173.270818,208.792231 175.44629,208.98853 C175.44629,208.98853 184.9929,209.014338 186.182288,208.98853 C189.515647,208.925182 192.997778,208.595933 194.594042,208.792231 C194.594042,208.792231 196.769514,208.792231 197.348457,208.792231 C197.927665,208.792231 198.796213,208 196.47991,208 C196.47991,208 187.653339,208.164234 183.2791,208.100886 C178.912803,208.037539 164.710291,208.196298 162.53482,208.196298 C160.359348,208.196298 145.562275,208.297967 145.562275,208.297967 C145.562275,208.297967 141.078441,208.488008 143.973688,208.887643 Z" id="Path" fill="#000000"></path><path d="M100.420715,131.999211 C98.4223428,131.710562 97.0985292,130.852824 96.0650489,129.225583 C95.9711567,129.077154 95.9711567,128.814497 96.1163234,128.770721 C96.2954511,128.630501 96.4918922,128.700953 96.5857845,128.752937 C97.1837646,129.077154 97.7304704,129.497131 98.3197938,129.837765 C98.6787151,130.047753 99.0116662,130.29331 99.3872351,130.45063 C100.531921,130.940376 101.31702,130.713287 102.07748,129.698228 C102.444392,129.199591 102.778009,128.674277 103.144921,128.175639 C103.213509,128.079879 103.38398,127.992327 103.495186,128.000535 C103.716931,128.009427 103.828137,128.202315 103.870755,128.412304 C103.964647,128.814497 104.127127,129.225583 103.828137,129.610676 C103.272774,130.319302 102.700764,131.010144 101.992245,131.570342 C101.522118,131.946543 101.001382,132.008103 100.420715,131.999211 Z" id="Path" fill="#000000"></path><path d="M84.9038375,129 C85.1359485,129.029151 85.2768962,129.145754 85.467628,129.29208 C85.9072812,129.643033 86.2971501,130.037999 86.7361567,130.388952 C87.6982212,131.164021 88.6020963,131.105148 89.4561872,130.206045 C89.7464876,129.899103 89.9617883,129.525858 90.235925,129.204627 C90.3432521,129.072591 90.5255788,128.911976 90.7247159,129.058302 C90.8572583,129.153185 91.0150162,129.336092 90.9988525,129.467557 C90.8242844,130.607869 89.4148081,131.858497 88.1546846,131.968242 C87.6814109,132.011682 87.0102933,132.055694 86.6449933,131.770473 C84.5223738,130.396383 84.8126742,130.586149 84.0911258,129.862522 C83.908799,129.723627 84.0413415,129.482418 84.1325049,129.328661 C84.2572888,129.116603 84.4893998,129.006859 84.9038375,129 Z" id="Path" fill="#000000"></path><path d="M57.6272543,91.9896448 C56.8184465,93.002411 56.679579,93.7090849 57.3739803,94.7478024 C58.313502,96.1604849 58.2808235,97.7947515 57.1125527,99.0623728 C56.4508298,99.7776972 55.7727359,100.526958 55.8217854,101.658834 C55.8299391,101.777944 55.7972606,101.948291 55.6257147,101.990877 C55.4623224,102.032799 55.3805944,101.922339 55.282559,101.82053 C54.9721455,101.463201 54.939467,101.062619 55.0783345,100.620116 C55.3234548,99.8628707 55.7645822,99.2327198 56.2629127,98.6371707 C57.3985051,97.2837105 57.4230299,96.4499417 56.401844,95.0365939 C55.9524992,94.4237439 55.7891069,93.7603221 56.0586883,93.0197119 C56.1648774,92.7216046 56.2547591,92.4155123 56.4181514,92.1347059 C57.2351128,90.7047226 57.7416608,90.6022483 58.6566576,91.9643589 C58.9834422,92.4580991 59.4735554,92.824079 59.8328273,93.3091687 C60.0697939,93.6239114 60.2825543,93.9386541 60.4787524,94.2793482 C61.2297837,95.6328084 61.2055774,96.041375 60.167893,97.2071874 C59.8742328,97.539231 59.7512904,97.8286878 59.9965381,98.2459049 C60.1519678,98.5180609 60.257711,98.8241532 60.3882974,99.11361 C60.4621902,99.2753066 60.6176199,99.4283527 60.625264,99.5820643 C60.6418262,99.9141078 60.7972559,100.373246 60.4539091,100.552244 C60.1188435,100.730576 59.9309264,100.280088 59.7430093,100.067154 C59.4818365,99.7437608 59.2939194,99.3518296 59.0896313,98.9778647 C58.5095727,97.9138613 58.5586222,97.3775344 59.3104816,96.4665772 C60.0538687,95.5729208 60.0697939,95.4877473 59.4245058,94.5435191 C58.8445747,93.7004345 58.2563624,92.8833012 57.6272543,91.9896448 Z" id="Path" fill="#000000"></path><path d="M59.4099017,51.4042146 C59.7911703,53.5555341 65.0245606,74.3963439 65.0245606,74.3963439 C65.2483037,75.1684758 65.1241457,75.3262791 64.4522697,75.7581275 C63.3658869,76.4562283 61.7815787,76.9711995 60.4300668,77.4199322 C60.4300668,77.4199322 65.7546357,71.829281 62.7767829,68.6316545 C62.2465247,68.0582378 61.1433288,67.950438 60.4546398,68.4154056 C59.7665973,68.8810226 58.7712638,70.1181222 58.5805648,70.9486999 C58.5473914,71.0818261 58.4975988,71.2149523 58.4146975,71.4889974 C58.4063556,70.0518838 57.7346089,69.329106 57.7346089,69.329106 C58.7132587,67.8010769 59.5674918,66.20616 60.1397181,64.486689 C60.6538099,62.9417107 60.2477097,61.1558064 59.4347979,59.8434418 C58.8542298,58.913117 57.8673028,58.9297415 57.1623827,59.7935682 C56.7145084,60.3417884 56.40767,60.9648191 56.3081495,61.6791548 C56.258357,62.0529472 56.0924896,63.1161385 56.0924896,64.063023 C55.8768944,62.9001494 54.9894878,61.836958 54.3260183,61.5130393 C54.3260183,61.5130393 52.2941592,60.6325231 51.066676,62.0196981 C50.5276232,62.6343515 50.2954089,63.3071908 50.3949293,64.1212089 C50.7266641,66.8704923 54.2679486,69.2213062 54.2679486,69.2213062 C54.2679486,69.2213062 53.3557104,69.8278422 53.2478481,71.4721131 C53.1151542,73.6320046 52.7419688,74.670389 54.1269775,77.3614865 C54.2099435,77.5192898 54.2264979,77.6939773 54.2762904,77.8595733 C54.2845676,77.8848998 54.2596714,77.9264611 54.2347751,78.0095838 C54.2347751,78.0095838 52.202916,78.0095838 48.8192217,76.921196 C47.4590446,76.4809054 48.0976824,79.2635677 48.5703883,80.6260008 C49.2504768,82.6027626 50.0382983,84.4386054 51.9043547,85.5932317 C52.9741831,86.2491218 54.0274571,86.9218961 55.2963263,87.1543799 C55.6364029,87.2128256 56.0344845,87.1881485 56.3164267,87.3537446 C56.7394047,87.6031127 56.3911156,88.0518454 56.4325662,88.4174554 C56.5154676,89.1317911 56.9633418,89.5383131 57.5272909,89.8539196 C58.0082739,90.120172 58.505876,90.0039301 58.8874033,89.6552044 C59.3352775,89.248033 59.6338388,88.7415041 59.6172197,88.0849646 C59.5923234,87.1297029 59.6006653,87.0965837 60.5380584,86.8472156 C67.5290609,84.9951379 66.9903961,77.021203 66.9903961,77.021203 C67.0647616,74.8697536 66.301707,74.5625893 66.301707,74.5625893 C65.8374077,71.2565136 59.6915852,45.7890812 59.6915852,45.7890812 C59.6254969,45.5315957 59.2108608,45 58.8376107,45 C58.5307723,45 58.3483505,45.1661155 58.2239338,45.4568502 L58.4810444,47.167944 C58.505876,47.109823 58.5390495,47.0433898 58.5639458,46.9852039 C58.7629866,47.1015108 59.4099017,51.4042146 59.4099017,51.4042146 Z M61.0353372,74.2300984 C60.6951959,74.9859955 60.1726976,75.9243729 59.7252113,76.6302665 C59.6338388,76.780277 58.7380903,77.9011347 58.3483505,77.8680155 C58.9620274,76.2237445 59.0615479,73.673566 59.4430751,72.0539721 C59.5923234,71.3974326 60.3052621,70.5337358 60.7449885,70.0187646 C60.9687316,69.7531616 61.2758934,69.5869162 61.5830552,69.7278352 C63.1499037,70.425936 61.0353372,74.2300984 61.0353372,74.2300984 Z M57.1955561,62.7340338 C57.245284,62.1525645 57.3614235,61.5545357 57.751228,61.0644364 C58.1741413,60.5328408 58.4395291,60.5328408 58.7132587,61.1392468 C59.1694102,62.1443172 59.3601091,63.1493876 58.9952009,64.2706999 C58.572223,65.574947 57.6765392,67.2861058 57.120932,68.5485318 C56.7974744,68.2829288 56.9135493,67.4270247 56.9218911,67.2029831 C56.9965153,65.715866 57.0711394,64.2292034 57.1955561,62.7340338 Z M53.6376526,67.3939055 C51.8960775,66.081476 51.1081914,64.4202558 51.6804176,63.1078262 C51.9375282,62.5180447 52.476581,61.654218 53.3557104,62.3353046 C54.2845676,62.8918371 55.0226613,63.6560464 55.2465984,64.7607991 C55.4953671,65.9736762 55.777374,67.2029831 55.5534368,68.4985283 C54.807066,68.2744867 54.2099435,67.825754 53.6376526,67.3939055 Z M54.4006425,71.4558782 C54.4836085,70.9155807 54.6743721,70.4506131 55.1388008,70.1181222 C55.7524777,69.6778317 56.2169063,69.7447195 56.6398843,70.3674904 C57.0214116,70.9409071 57.1541055,71.588355 57.2204524,72.2533367 C57.4194932,74.3294561 57.4111514,76.3646635 55.7442005,78.0673801 C54.4669894,75.9574921 54.0606305,73.7813657 54.4006425,71.4558782 Z M60.2477097,85.3769828 C59.1859646,85.6594701 58.0746209,85.8010384 56.9467227,85.7925963 C53.7703465,85.7672698 50.5607967,83.3833367 49.8641538,80.1688259 C49.7397371,79.5960586 49.3748289,79.0810874 49.4246214,78.3083061 C50.7101097,78.790158 51.9789789,79.180445 53.3059178,79.3220134 C54.6660303,79.4629323 56.0178655,79.5376129 57.3863198,79.4298131 C58.7298131,79.3220134 60.0731125,79.180445 61.3754785,78.790158 C62.6771978,78.3998709 64.1121284,77.5277319 65.3892748,77.0543222 C65.3892748,77.0627643 65.7462292,83.9236343 60.2477097,85.3769828 Z" id="Shape" fill="#000000"></path><path d="M58,46.7118783 C58,46.7118783 56.8508808,50.4196313 55.7832287,53.3924537 C54.7155766,56.3653414 52.4988053,66.6200936 51.4311532,68.9580044 C50.3635012,71.2965682 49.670776,74.3108476 49.0024529,77 L48,77 C48,77 49.2143819,70.0522068 51.8549478,63.1878498 C54.1858494,57.1252114 53.3545284,56.0229135 55.2779035,51.1294265 C56.4352203,48.1899655 56.9160799,46.4947353 57.7392034,45 L58,46.7118783 Z" id="Path" fill="#000000"></path><path d="M100.513,120.487 L100.487,120.513 C100.5,120.5 100.513,120.5 100.513,120.487 Z" id="Path" fill="#000000"></path><path d="M92.651794,151.830619 C97.0352747,152.152809 100.460955,148.593228 100.460955,148.593228 C102.426119,146.767917 104.655193,145.116292 105.983755,142.828682 C108.130437,139.136739 108.600969,133.719564 108.600969,133.719564 C108.625429,131.737356 108.328692,129.491068 107.593606,127.591506 C106.537322,124.849344 104.109994,123.065356 104.043694,122.958175 C104.530962,122.942033 106.917095,122.165292 107.444915,122 C107.444915,122.198221 109.030306,127.426214 109.170629,127.888514 C109.170629,127.888514 110.483098,132.084081 109.805944,135.304685 L109.153893,138.162422 C108.658901,140.681182 107.461651,142.878399 105.752673,144.835426 C105.430831,145.207332 105.28214,145.53727 105.389635,145.991822 C105.843432,147.940455 105.538326,149.856805 105.067794,151.747973 C104.861172,152.573786 104.135097,155.002152 104.03597,158 L102.739593,157.603558 C102.830352,156.752565 103.656197,152.796542 103.812612,151.904871 C104.019234,150.765263 104.135097,149.501686 104.233581,148.395007 C104.283144,147.891384 104.159557,147.684769 104.258684,146.619413 C104.258684,146.619413 100.436495,151.227563 96.0942103,152.49114 C94.6002222,152.920511 93.1467861,153.118732 91.6116024,152.854652 C89.7378414,152.524069 88.3674404,152.061769 86.8155209,151.020948 C86.1711943,150.58383 85.7006621,150.277782 84.8587248,149.427434 C84.8007934,150.046632 84.6604705,151.194634 84.6360105,151.640792 C84.5780791,152.615109 84.0251554,156.802281 83.8848326,157.603558 L82.7867095,157.207117 C82.8279052,156.959179 83.2817017,153.821221 83.2817017,153.821221 C83.4059325,152.351029 83.7689696,151.037736 83.9839597,149.600473 C84.0412475,149.196284 83.9176604,148.841165 83.5958189,148.527369 C83.5958189,148.527369 78.5931152,145.13308 77,130.655212 L78.7990938,127.062702 L82.489328,125.064352 C79.0964753,128.458641 78.6014831,132.051151 79.0964753,134.850778 C79.0964753,134.850778 79.7156983,137.501901 80.7887177,140.243418 C80.7803498,140.23567 84.7679655,151.235957 92.651794,151.830619 Z" id="Path" fill="#000000"></path><path d="M112,158.721057 L108.706759,158.959408 C107.679568,158.562156 106.806837,158.721057 106.146409,158.641606 C105.486616,158.562156 104.174024,157.925862 104.027191,157.218409 C103.880359,156.502665 103,157.775252 103,157.775252 C103,157.775252 103.391553,158.951117 104.622148,159.472035 C105.853379,159.993644 106.366975,159.516251 107.247334,159.834743 C108.127693,160.152545 110.614309,159.914194 110.614309,159.914194 L112,158.721057 Z" id="Path" fill="#000000"></path><path d="M76,157.923021 C76,157.923021 77.8628627,157.254176 78.7609013,156.91939 C79.6589399,156.58533 80.3994164,156.58533 81.1476739,156.58533 C81.8959313,156.58533 82.4198411,156.58533 83.0851029,156 L84,157.374728 C84,157.374728 83.1603177,157.830065 81.5133733,157.830065 C79.8670773,157.830065 80.0998541,157.997095 78.3783433,158.331155 L76.4409142,159 L76,157.923021 Z" id="Path" fill="#000000"></path><path d="M105.374163,183.491765 C105.374163,183.491765 104.88546,183.313451 105.02509,182.023453 L105.186051,180.58388 C105.186051,180.58388 105.336024,179.874544 105.908762,180.019546 L114.689251,180.640705 C114.689251,180.640705 115.101674,180.960102 114.976266,182.099873 C114.768115,183.974453 114.861848,183.165183 114.861848,183.165183 C114.861848,183.165183 114.691836,184.009071 114.321431,183.999926 L105.374163,183.491765 Z" id="Path" fill="#58B3CA"></path><path d="M110.838345,182.201121 C110.838345,182.201121 110.414704,182.099801 109.19381,182.023498 C107.972917,181.947821 108.346527,182.032254 108.047639,182.615157 C108.047639,182.615157 107.37514,186.519733 107.075602,187.102636 C106.776714,187.685539 105.755296,191.767111 106.054184,192.384413 C106.054184,192.384413 105.929431,193.4489 106.178937,193.669052 C106.453135,193.888579 107.823472,194.167522 108.770168,193.871692 C110.091125,193.457656 109.468008,192.570167 109.866309,191.074132 C110.364672,189.266007 110.265259,186.426543 110.564148,184.753511 C110.738932,183.857892 111.261987,182.860327 110.838345,182.201121 Z" id="Path" fill="#58B3CA"></path><path d="M111.7107,182.430506 C111.7107,182.430506 111.400695,182.092764 110.451344,182.022088 C109.501369,181.950787 109.792037,182.029593 109.559378,182.595624 C109.559378,182.595624 108.900695,186.385216 108.822726,186.959378 C108.493385,189.239138 107.815366,191.495756 108.047401,192.093684 C108.047401,192.093684 107.989393,193.587255 108.202716,193.799282 C108.416039,194.011935 108.97804,194.066974 109.889343,193.909361 C111.052018,193.71297 110.684004,193.618528 111.226668,192.171865 C111.94336,190.222343 111.614019,186.393347 111.924024,184.39629 C112.040666,183.52379 112.060002,183.067212 111.7107,182.430506 Z" id="Path" fill="#58B3CA"></path><path d="M39.8965317,127.65025 C40.3006936,126.166438 40.2159499,125.512776 40.6787804,124.368868 C41.2524295,122.368663 43.9577063,111.517878 43.9577063,111.517878 C44.3879431,109.491527 45.0984857,107.563225 45.7373221,105.602239 C45.7764345,105.471507 45.815547,105.327702 45.8872531,105.223116 C46.0502216,104.987797 46.2588213,104.922431 46.5130521,105.105457 C46.7738017,105.295018 46.891139,105.569556 47.0280325,105.837558 C47.6799064,107.118735 48.090587,108.484888 48.4686739,109.857577 C48.4686739,109.857577 50.5220767,116.086974 51.4868502,118.923866 C53.0448288,123.492962 53.5272155,124.63687 54.4463578,127.401859 C55.0200068,127.441079 55.0134881,128.500011 54.9939319,129.219038 C54.9939319,129.219038 55.2351252,136.749222 50.5742267,139.037038 C50.3004396,139.16777 50.0005776,139.220063 49.6550844,139.344259 C50.0918399,140.285532 49.9549464,141.037243 49.2835163,141.645148 C48.8141671,142.070028 48.2209618,142.115785 47.6994626,141.769344 C47.2496696,141.46866 47.1258136,140.906511 47.3996006,140.305142 C47.4973817,140.082897 47.6277565,139.867188 47.7776875,139.586114 C46.9824013,139.370405 46.2066713,139.141624 45.4244226,138.952062 C39.6553384,137.102199 39.0816893,131.042755 39.0816893,131.042755 C39.0816893,131.042755 38.6188588,127.140394 39.8965317,127.65025 Z M48.840242,114.237111 C48.5012676,112.570274 47.5234567,110.458946 47.0736637,108.818255 C46.9041764,108.203813 46.7607642,106.909563 46.2848962,106.43239 C46.0567403,106.595805 45.9263656,107.465175 45.8676969,107.674347 C45.8676969,107.674347 41.9629721,123.257643 41.415398,125.068286 C41.1807234,125.826534 41.0373111,126.617465 40.8873801,127.395322 C40.7765615,127.970545 40.8938988,128.13396 41.4219167,128.382351 C41.5066603,128.13396 41.4479917,127.905178 41.389323,127.656787 C41.1481297,126.597855 41.7217787,126.473659 42.4583963,126.552099 C42.8038894,126.591318 43.1493826,126.708977 43.6774005,126.833173 C43.4492446,126.016096 43.5535445,125.297068 43.4753196,124.591113 C43.4296884,124.13355 43.2927949,123.564864 43.8468877,123.362229 C44.3553494,123.179204 44.6812864,123.630231 44.9941858,123.983208 C45.5026475,124.55843 45.8872531,125.225165 46.3631211,125.904973 C46.4543834,125.721948 46.5326083,125.617362 46.5717207,125.493167 C46.6434269,125.257848 46.7281705,125.015993 46.7477267,124.774139 C46.7738017,124.493064 46.865064,124.231599 46.9628451,123.983208 C47.1584073,123.473352 47.3213758,123.421059 47.8428749,123.643304 C48.3578553,123.859012 48.514305,124.310039 48.6381611,124.806822 C48.7620171,125.316678 48.6968297,125.878827 49.0097292,126.369073 C49.439966,126.159901 49.5964158,125.787314 49.8506466,125.50624 C50.2874021,125.02253 50.6328953,125.087896 50.9001636,125.689265 C51.0957258,126.133755 50.841495,126.963905 50.4960018,127.591421 C51.2978067,127.016198 52.0474617,126.865856 52.4581423,126.976979 C52.4581423,126.976979 53.0057164,127.990154 52.6602232,128.565377 C52.6602232,128.565377 53.266466,128.232009 53.6315154,127.865959 C51.9170869,124.545357 48.840242,114.237111 48.840242,114.237111 Z M40.2615811,129.356307 C40.0920939,131.395732 40.2550624,132.212809 40.8808614,133.330571 C41.1090172,133.735841 41.5588102,134.585601 41.8325973,134.958189 C42.9668579,136.50083 44.2314933,137.533616 46.2718587,137.945423 C47.9797684,138.291864 49.3617412,138.409523 51.0370571,137.291761 C51.1804694,137.226395 51.3108442,137.102199 51.4216628,136.98454 C52.1582803,136.180536 52.8362292,135.023555 53.09046,134.003842 C53.4750656,132.467737 53.7553714,131.114658 53.8075213,129.48704 C45.8676969,133.40901 40.2615811,129.356307 40.2615811,129.356307 Z M45.2614541,129.905383 C44.5313553,128.833378 43.8990376,127.820202 42.5366211,127.68947 C42.5366211,128.944501 43.6774005,129.905383 45.2614541,129.905383 Z M44.5443928,124.813358 C44.3553494,126.76127 44.889886,128.140497 45.9589592,128.51962 C45.9002906,127.166541 45.3787915,125.989949 44.5443928,124.813358 Z M47.3996006,128.96411 C47.9993246,127.696007 48.0710308,126.519415 47.76465,125.231702 C46.9432889,126.892003 46.865064,127.656787 47.3996006,128.96411 Z M49.439966,129.578552 C49.4790785,129.637382 49.5247096,129.696212 49.5638221,129.761578 C50.1244336,129.578552 50.6850452,129.382454 51.2521755,129.219038 C51.5390001,129.134062 51.6107062,128.918354 51.6954498,128.689572 C51.7541185,128.532694 52.014868,128.081667 51.8779745,127.937861 C51.7606372,127.820202 51.0892071,128.186253 50.965351,128.225473 C50.1961398,128.473864 49.9810214,129.029477 49.439966,129.578552 Z M48.8989107,128.584987 C49.9940589,128.17318 50.1635461,126.807027 50.1113962,126.284097 C49.9353902,126.754734 48.7424609,127.316883 48.8989107,128.584987 Z M49.016248,140.638509 C49.1140291,140.618899 49.1270665,140.533923 49.1270665,140.462021 C49.1270665,140.318215 49.1009916,140.180946 48.9184669,140.187483 C48.8858732,140.187483 48.840242,140.265922 48.8337233,140.305142 C48.8272045,140.455484 48.8858732,140.573143 49.016248,140.638509 Z" id="Shape" fill="#000000"></path></g></g></g></svg> 