<?xml version="1.0" encoding="UTF-8"?> <svg xmlns="http://www.w3.org/2000/svg" width="659" height="438"><path d="M503 0c115.311 0 207.6 92.284 207.6 207.6v103.8h103.8c115.311 0 207.6 92.284 207.6 207.6 0 115.315-92.284 207.6-207.6 207.6-34.586 0-69.214 2.878-103.8 2.878V830.4c0 115.311-92.284 207.6-207.6 207.6-115.316 0-207.6-92.284-207.6-207.6V729.478L191.6 726.6C76.289 726.6-16 634.315-16 519c0-115.316 95.164-207.6 207.6-207.6h103.8V207.6C295.4 95.164 387.684 0 503 0zm156 730H341v100.728C341 917.048 413.283 989 499.995 989S658.99 917.046 658.99 830.728L659 730zm-318-49h318V363H341v318zm369-322v318h104.047C900.74 677 973 604.717 973 518.005S900.736 359.01 814.047 359.01H710V359zm-414-1H191.953C105.26 358 33 430.285 33 517s72.264 159 158.953 159H296V358zm46-47h318V206.953C660 120.26 587.717 48 501.005 48S342.01 120.264 342.01 206.953L342 311z" fill="#FFF" fill-rule="evenodd"></path></svg> 