<?xml version="1.0" encoding="UTF-8"?> <svg xmlns="http://www.w3.org/2000/svg" width="132" height="27"><g fill="#FFF" fill-rule="evenodd"><path d="M46.99 24.54c1.62 0 3.095-.24 4.425-.72 1.33-.48 2.395-1.22 3.195-2.22.8-1 1.2-2.25 1.2-3.75 0-1.58-.375-2.83-1.125-3.75-.75-.92-1.725-1.585-2.925-1.995-1.2-.41-2.67-.725-4.41-.945-1.52-.2-2.68-.48-3.48-.84-.8-.36-1.2-.96-1.2-1.8 0-.7.375-1.305 1.125-1.815s1.825-.765 3.225-.765c1.1 0 2.11.23 3.03.69.92.46 1.57 1.01 1.95 1.65l3.15-1.62c-1.38-2.78-4.13-4.17-8.25-4.17-1.34 0-2.635.225-3.885.675-1.25.45-2.27 1.125-3.06 2.025-.79.9-1.185 1.97-1.185 3.21 0 2.14.735 3.665 2.205 4.575 1.47.91 3.485 1.505 6.045 1.785 1.54.18 2.735.51 3.585.99.85.48 1.275 1.18 1.275 2.1 0 1.06-.46 1.85-1.38 2.37-.92.52-2.07.78-3.45.78-1.36 0-2.57-.28-3.63-.84a4.858 4.858 0 0 1-2.28-2.49l-3.3 1.71c.74 1.84 1.88 3.16 3.42 3.96 1.54.8 3.45 1.2 5.73 1.2zm18.66-.09c.92 0 1.85-.23 2.79-.69.94-.46 1.61-1.1 2.01-1.92l.18 2.16h3.45V9.21h-3.51l-.12 2.04c-.42-.74-1.06-1.325-1.92-1.755a6.151 6.151 0 0 0-2.79-.645c-1.48 0-2.8.29-3.96.87-1.16.58-2.075 1.455-2.745 2.625-.67 1.17-1.005 2.585-1.005 4.245 0 1.68.325 3.11.975 4.29.65 1.18 1.545 2.07 2.685 2.67 1.14.6 2.46.9 3.96.9zm.42-3.36c-1.26 0-2.305-.405-3.135-1.215-.83-.81-1.245-1.905-1.245-3.285 0-1.38.415-2.47 1.245-3.27.83-.8 1.875-1.2 3.135-1.2.92 0 1.705.21 2.355.63.65.42 1.14.975 1.47 1.665.33.69.495 1.415.495 2.175 0 .78-.165 1.515-.495 2.205-.33.69-.82 1.245-1.47 1.665-.65.42-1.435.63-2.355.63zM81.76 24V3.03h-3.63V24h3.63zm9.93.42c1.02 0 1.915-.175 2.685-.525.77-.35 1.545-.915 2.325-1.695l.24 1.86h3.27V9.21h-3.63v7.74c0 1.16-.35 2.14-1.05 2.94-.7.8-1.61 1.2-2.73 1.2-1.14 0-2.02-.37-2.64-1.11-.62-.74-.93-1.69-.93-2.85V9.21h-3.66v7.95c0 1.48.265 2.77.795 3.87s1.255 1.94 2.175 2.52c.92.58 1.97.87 3.15.87zm19.14-.06c.64 0 1.215-.045 1.725-.135a7.324 7.324 0 0 0 1.605-.495l-1.02-3.12c-.64.3-1.23.45-1.77.45-.6 0-1.07-.18-1.41-.54-.34-.36-.51-.88-.51-1.56v-6.51h4.11V9.3h-4.08V5.04l-3.66.39V9.3h-2.76v3.15h2.76v6.51c0 1.76.445 3.1 1.335 4.02.89.92 2.115 1.38 3.675 1.38zm13.05.09c1.18 0 2.34-.205 3.48-.615 1.14-.41 2.1-1.005 2.88-1.785l-2.34-2.31c-.42.42-1.01.755-1.77 1.005a7 7 0 0 1-2.19.375c-1.28 0-2.305-.29-3.075-.87-.77-.58-1.215-1.34-1.335-2.28h11.55c.04-.64.06-1.1.06-1.38 0-2.52-.675-4.445-2.025-5.775-1.35-1.33-3.185-1.995-5.505-1.995-1.58 0-2.96.33-4.14.99a6.969 6.969 0 0 0-2.745 2.745c-.65 1.17-.975 2.505-.975 4.005 0 1.56.325 2.935.975 4.125a6.819 6.819 0 0 0 2.805 2.775c1.22.66 2.67.99 4.35.99zm3.69-9.51h-7.98c.28-.94.785-1.655 1.515-2.145.73-.49 1.605-.735 2.625-.735 1.08 0 1.96.245 2.64.735.68.49 1.08 1.205 1.2 2.145z"></path><path d="M13.5 1c2.777 0 5 2.223 5 5v2.5H21c2.777 0 5 2.223 5 5s-2.223 5-5 5c-.833 0-1.667.07-2.5.07V21c0 2.777-2.223 5-5 5a4.98 4.98 0 0 1-5-5v-2.43L6 18.5a4.98 4.98 0 0 1-5-5c0-2.777 2.292-5 5-5h2.5V6c0-2.708 2.223-5 5-5zm3.774 17.567h-7.64V21c0 2.085 1.736 3.823 3.82 3.823 2.083 0 3.82-1.738 3.82-3.823v-2.433zm-7.64-1.154h7.64V9.726h-7.64v7.687zm8.864-7.78v7.641H21c2.085 0 3.823-1.737 3.823-3.82 0-2.084-1.738-3.82-3.823-3.82h-2.502zm-9.996 0H6c-2.085 0-3.823 1.737-3.823 3.82 0 2.084 1.738 3.821 3.823 3.821h2.502v-7.64zm1.131-1.13h7.641V6c0-2.085-1.737-3.823-3.82-3.823-2.084 0-3.82 1.738-3.82 3.823v2.502z" stroke="#FFF"></path></g></svg> 