<?xml version="1.0" encoding="UTF-8"?> <svg xmlns="http://www.w3.org/2000/svg" width="435" height="320"><path d="M217.5-763c120.31 0 216.6 96.285 216.6 216.6v108.3h108.3c120.31 0 216.6 96.285 216.6 216.6S662.715-4.9 542.4-4.9c-36.086 0-72.214 3.003-108.3 3.003V103.4c0 120.31-96.285 216.6-216.6 216.6S.9 223.715.9 103.4V-1.897L-107.4-4.9C-227.71-4.9-324-101.185-324-221.5s99.29-216.6 216.6-216.6H.9v-108.3C.9-663.71 97.185-763 217.5-763zM381-2H50v105.395C50 193.715 125.238 269 215.495 269c90.256 0 165.494-75.288 165.494-165.605L381-2zM50-52h331v-333H50v333zm384-337v331h108.399C632.717-58 708-133.238 708-223.495c0-90.256-75.286-165.494-165.601-165.494H434V-389zM1-389h-108.399C-197.717-389-273-313.76-273-223.5S-197.714-58-107.399-58H1v-331zm49-49h331v-108.399C381-636.717 305.762-712 215.505-712c-90.256 0-165.494 75.286-165.494 165.601L50-438z" fill="#FFF" fill-rule="evenodd" opacity=".3"></path></svg> 