<?xml version="1.0" encoding="UTF-8"?> <svg xmlns="http://www.w3.org/2000/svg" xmlns:xlink="http://www.w3.org/1999/xlink" width="285px" height="184px" viewBox="0 0 285 184" version="1.1"><!-- Generator: Sketch 59.1 (86144) - https://sketch.com --><title>peaceofmind</title><desc>Created with Sketch.</desc><g id="Symbols" stroke="none" stroke-width="1" fill="none" fill-rule="evenodd"><g id="section,-3-value-props-new" transform="translate(-1006.000000, -303.000000)" fill-rule="nonzero"><g id="peaceofmind" transform="translate(1006.000000, 303.000000)"><path d="M124.534661,173.754895 C133.582306,177.956215 143.190578,181.69562 153.233934,183.246198 C172.791645,186.260147 188.416348,179.691751 207.025307,164.826131 C229.102482,146.43673 238.865046,114.47833 233.602825,87.3767483 C230.174859,69.6965119 218.677708,54.622934 205.626137,43.1277616 C192.816066,31.8549219 177.354281,24.013863 159.677782,23.0727826 C128.428378,21.3995379 95.2910523,38.8248584 81.5168959,68.6174319 C67.501239,98.9265455 73.2924605,135.403473 97.1569315,156.591199 C105.186825,163.73076 114.748138,169.205701 124.534661,173.754895 Z" id="Path" fill="#A3E1C2"></path><path d="M92.5352067,64 L100.620939,67.2702691 C100.620939,67.2702691 97.3229195,75.3538688 92.8633861,73.8021034 C88.0170141,72.1184803 92.5352067,64 92.5352067,64 Z" id="Path" fill="#A3E1C2"></path><path d="M86.4931579,61.1084385 C87.1411305,58.4162239 85.2611555,55.7375548 82.2941515,55.1255026 C79.3271475,54.5133876 76.3966242,56.1996668 75.7487194,58.8918186 C75.1007468,61.5840332 76.9807218,64.2627023 79.9477257,64.8745037 C82.9147297,65.4865559 85.8451852,63.8005903 86.4931579,61.1084385 Z" id="Path" fill="#FFFFFF"></path><path d="M91.6599617,61.9851869 C93.1196493,59.5540696 94.6314042,57.1757474 96.942211,55.4316836 C98.0112653,54.6212894 99.1840674,54.1896622 100.469639,54.0310813 C102.43376,53.7844651 104.12788,55.0264865 104.50163,57.0084217 C104.50163,57.0084217 105.031324,59.2809581 103.858522,62.7162906 C102.485957,65.8343961 100.904607,68.846781 98.7755199,71.5159001 C97.8115023,72.7225508 96.7340709,73.8149972 95.300288,74.4493208 C93.4932061,75.2598455 91.7555902,75.2422254 90.1134739,73.9474742 C89.2359344,73.2511539 88.7581142,72.3701488 88.6277527,71.278355 C88.4540233,66.8739821 91.6599617,61.9851869 91.6599617,61.9851869 Z M99.1318713,56.1715974 C96.5691053,57.880421 95.7088356,58.9902916 94.2054579,61.61523 C93.9973177,62.1878181 93.8665052,62.5137247 94.6662016,62.8484414 L100.652648,65.2971788 C103.467373,60.223503 102.78109,57.3255183 102.78109,57.3255183 C102.78109,57.3255183 101.982038,55.0441066 99.1318713,56.1715974 Z M92.5983323,64.4780398 C91.6252288,65.8259124 91.1560435,67.2172478 90.6521252,68.6620962 C90.4957301,69.1110825 90.400166,69.6044454 90.3828318,70.0801881 C90.304602,71.9564027 91.7729245,73.2955304 93.6061689,72.9783686 C94.6397813,72.8021676 95.5786674,72.3701488 96.3255233,71.5687604 C97.2115689,70.6264113 98.028664,69.6396856 98.6975479,68.5296191 C99.1408929,67.7987112 99.0970739,67.3934488 98.6369746,67.1559038" id="Shape" fill="#000000"></path><path d="M87.6088255,59.4945906 C87.723531,61.3559432 87.0173584,62.7520065 85.7550732,63.9285322 C83.4687526,66.0620462 80.2643945,66.5889362 77.6249876,65.315944 C74.9944193,64.0514082 73.6791679,60.6008644 75.3916987,57.87912 C76.4862466,56.1406434 78.1016836,55.0431511 79.893631,54.2792908 C81.9062819,53.4276805 85.4990807,54.6392672 86.7878818,56.3513993 C87.2645123,56.9923187 87.5999868,58.3005669 87.6088255,59.4945906 Z M81.8533157,56.3162733 C79.6023495,56.1845508 77.2189351,58.0546849 77.2719013,60.8467464 C77.3071903,62.795914 79.1256535,64.3411326 81.0588878,63.9197507 C82.5153607,63.6036167 83.7953886,62.8836639 84.7752309,61.7422641 C85.8256512,60.5043329 85.8344898,58.8448898 84.8281971,57.7649605 C84.0160266,56.8869407 82.9479291,56.5181828 81.8533157,56.3162733 Z" id="Shape" fill="#000000"></path><path d="M88.9862014,47.5096786 C88.3061879,48.7671227 88.5910888,50.17549 89.7122215,51.1143808 C90.8425555,52.0701029 92.5334218,52.2796562 93.6913598,51.6090111 C95.0607243,50.8209813 95.8602189,49.2869069 95.5569153,48.0713237 C95.3728884,47.3336016 94.8494342,46.8222021 94.1235504,46.5455718 C94.1235504,46.5455718 91.2285349,44.8186512 88.9862014,47.5096786 Z" id="Path" fill="#000000"></path><path d="M201.635258,64.8679105 L206.04709,60.5473029 L211.393255,65 L219.334424,57.0203429 L221.020368,60.5473029 C221.020368,60.5473029 226.498064,54.6131389 221.553623,48.1322601 C221.553623,48.1322601 215.551742,46.606894 210.528253,53.9165659 C210.528253,53.9165659 210.318968,47.4621442 203.233729,48.5378703 C203.2428,48.5378703 191.745728,53.2640881 201.635258,64.8679105 Z" id="Path" fill="#A3E1C2"></path><path d="M223.994554,65.9577347 C223.159973,65.0744219 222.483708,64.3396995 221.737081,63.4387606 C221.596355,63.2638606 221.341616,62.9227441 221.183299,62.7390311 C221.183299,62.7390311 212.232238,72.9291085 209.948704,74.5031433 C209.228136,75.1595852 208.665885,75.0721028 208.200058,74.7746627 C207.15504,74.1357173 199.047028,64.645823 199.047028,64.645823 C197.624136,62.7477794 196.420802,59.8351345 196.648829,57.3947649 C196.91269,54.5608542 197.896466,51.849354 200.320726,50.0562892 C202.675274,48.3157138 204.827203,48.0882596 207.646928,48.7530609 C210.378699,49.3478115 211.283643,52.4441694 211.283643,52.4441694 C213.505935,47.9046114 219.409244,48.000842 219.409244,48.000842 C221.297313,47.9658491 222.948885,49.0241915 223.844708,50.6772845 C225.135995,53.0651647 224.951619,55.5929519 224.090977,57.9545873 C223.765875,58.8292815 223.317638,59.6864145 222.870052,60.5173675 C222.746917,60.7360734 222.623782,60.9547146 222.483708,61.1558592 C222.615313,61.330824 222.650494,61.3833134 222.729327,61.4882923 C223.879889,62.9052477 225.021982,64.322203 226.164074,65.747777 C226.444874,66.0977065 226.893111,67.1209264 226.401223,67.584907 C225.935395,67.9432608 223.994554,65.9577347 223.994554,65.9577347 Z M221.236071,59.7214074 C221.236071,59.7214074 223.221215,56.9137414 223.010778,53.51126 C222.782099,50.8347528 221.042574,49.5052798 218.662617,49.6801797 C217.063817,49.7939068 215.728227,50.4149021 214.45453,51.3683305 C214.45453,51.3683305 212.680475,52.9864305 211.529261,54.6220918 C211.529261,54.6220918 210.870587,55.4355484 210.545485,54.5696024 C209.781266,52.0680599 208.297132,50.3886574 206.039659,50.1525198 C206.039659,50.1525198 203.255116,49.6801797 201.182019,51.4819928 C198.748638,53.5637494 197.852815,57.2811026 198.792289,60.5173675 C199.416433,62.4941453 201.348805,64.6020818 201.348805,64.6020818 L204.906036,60.7797498 C205.758207,59.8263863 206.048128,59.7913933 207.058616,60.7272604 C208.297132,61.8730852 209.473755,63.0801476 210.677741,64.2609654 C211.125326,64.6983125 211.099266,64.8120395 211.48561,64.3921889 C211.582033,64.2872101 211.679108,64.173483 211.76641,64.0598207 C213.409512,61.8818334 216.483976,58.8292815 217.265785,57.9720838 C218.100366,57.0711449 218.469119,56.502639 219.400123,57.657212 L221.236071,59.7214074 Z M211.977498,66.4217154 C211.380066,67.0425163 210.844527,66.9025444 210.237973,66.2726713 L205.863752,62.0218052 L202.516957,65.747777 C202.59579,65.9493105 202.806878,66.1067788 203.034906,66.4042189 C204.124227,67.5758348 209.008578,72.7541437 209.008578,72.7541437 C209.008578,72.7541437 216.501566,65.8527559 218.978598,62.660297 C219.478956,61.978064 219.813179,61.6719405 220.058797,61.2958311 C219.84836,60.9547146 219.496546,60.5786051 218.899765,59.9313651 C218.697147,59.7214074 218.565542,59.5727522 218.337515,59.3540462 C218.161607,59.4765215 217.9857,59.6864145 217.792854,59.8876239 L211.977498,66.4217154 Z" id="Shape" fill="#000000"></path><path d="M115.620939,14.6448237 C115.620939,14.6448237 115.54024,21.0209419 115.370906,21.5940449 C115.201571,22.1761709 106.318786,21.9612076 106.318786,21.9612076 C106.318786,21.9612076 105.319977,16.4358532 105.712224,15.862684 C106.095873,15.2806243 115.23729,14 115.23729,14 L115.620939,14.6448237 Z" id="Path" fill="#E6E8EB"></path><path d="M116.39801,11.3643122 C116.28268,9.63086925 115.874081,5.64565189 114.843359,5.57416929 C114.843359,5.57416929 114.772183,2 113.13713,2 L102.847697,2.30380432 C101.07952,2.29486734 100.431034,4.19811286 100.359859,5.57416929 C99.2665284,5.98517765 98.3781561,8.11184763 98.1738569,9.00534693 C97.9695576,9.89891242 97.6407017,12.5169838 97.6229079,14.2058081 C97.6051141,16.3234749 97.7118769,18.4412079 97.7830522,20.5588747 C97.8364336,22.1315182 97.8272072,22.9803988 97.9076088,24.5530423 C97.9517638,25.4554785 98.0407328,25.8039545 98.7867547,25.8397024 C105.824535,26.1524305 115.118833,25.9111983 115.118833,25.9111983 C116.140329,25.9111983 116.442824,25.2410573 116.486979,24.7406526 C116.833629,20.4873789 116.39801,11.3643122 116.39801,11.3643122 Z M113.794842,5.57416929 L112.710738,5.59203663 L112.657357,2.89353901 C112.666583,2.89353901 114.016935,2.75951081 113.794842,5.57416929 Z M111.777552,2.75951081 L111.911335,5.51161706 L110.711241,5.43119749 L110.480581,2.75951081 L111.777552,2.75951081 Z M110.000807,2.75951081 L110.062756,5.44907145 L108.801373,5.538428 L108.649796,2.77737815 L110.000807,2.75951081 Z M108.00131,2.76844117 L108.134434,5.56523232 L106.970588,5.60097361 L106.837464,2.88460203 L108.00131,2.76844117 Z M106.055195,2.91141297 L106.179752,5.59203663 L105.140462,5.60991059 L104.962524,3.01863686 L106.055195,2.91141297 Z M104.127533,3.04544118 L104.260657,5.58309965 C104.091945,5.58309965 103.371626,5.56523232 103.371626,5.56523232 L103.238502,3.09905643 C103.585151,3.06331513 104.127533,3.04544118 104.127533,3.04544118 Z M102.394284,3.18840636 L102.545861,5.56523232 L101.461757,5.60097361 C101.132901,3.25988895 102.394284,3.18840636 102.394284,3.18840636 Z M101.141468,7.16466026 C101.141468,7.16466026 111.777552,6.50345622 112.932831,6.61069997 C114.43476,6.74468846 114.43476,7.84373826 114.710235,9.83635357 C111.95549,10.1222707 110.995942,10.095526 108.587847,10.3099473 C105.886484,10.5511795 104.403007,10.8371628 103.718275,11.4626189 C102.332335,12.7225344 102.278954,16.1448015 102.074655,18.1730985 C102.074655,18.1730985 102.154397,22.6408598 102.456892,24.2134371 C100.954963,24.2759959 99.1960122,24.2045001 99.1960122,24.2045001 C99.0892494,20.9967205 98.7603935,16.5736441 98.8757237,13.3569275 C98.9291051,12.0344532 99.0002804,10.6048014 99.2757548,9.3538229 C99.2843222,9.33594895 99.764096,7.28084099 101.141468,7.16466026 Z M115.385081,20.415883 C115.385081,21.1753938 113.954986,21.1753938 113.954986,21.1753938 C112.044459,21.3809444 110.471354,21.3809444 108.801373,21.2826376 C107.068124,21.1843308 106.881619,21.3451964 106.79265,19.2900223 C106.757062,18.5394485 106.730701,17.7888746 106.757062,17.0383008 C106.784082,16.27879 107.085918,15.8320072 107.663887,15.7337667 C110.098344,15.3495428 111.902108,15.1797402 113.741461,15.1171813 C114.096678,15.1082443 115.447689,14.7776423 115.447689,15.7337667 C115.456256,15.7427036 115.385081,19.6563722 115.385081,20.415883 Z" id="Shape" fill="#000000"></path><path d="M204.295676,9.63053723 C204.188208,9.16337782 203.785535,8.94780161 203.302593,9.02866765 L195.87006,9.42387959 C195.27965,9.40597592 195.405029,8.99272719 195.387118,8.42673151 C195.333384,6.27968838 195.288938,4.12361356 195.225916,1.97654381 C195.217292,1.61720577 195.199381,1.25786108 195.127736,0.907501498 C195.020268,0.350524208 194.626882,-0.00881849004 194.09883,0 C192.748184,0.0360984321 191.388914,0.0720322361 190.038268,0.170855189 C189.144029,0.179833648 189.358302,2.71319678 189.358302,2.71319678 C189.323142,3.79122421 189.28732,6.33359907 189.295944,7.41161319 L189.269409,8.33688036 C189.206387,8.90287604 188.964916,9.5496712 188.222592,9.57662654 L180.780771,9.70241815 C180.289205,9.65749258 179.904444,9.90002412 179.824174,10.3671835 C179.62715,11.5620042 179.555505,11.6788106 179.689508,12.9095052 C179.796976,13.9336751 179.824174,14.8769125 181.201356,14.9398083 C183.410418,14.9218381 185.101379,14.912853 187.310441,14.8050316 C189.036561,14.715247 189.081008,14.7511875 189.06376,16.3502052 C188.884647,18.784772 189.126118,20.1412581 189.036561,22.0458362 C189.01865,22.4051743 189.054473,22.7645123 189.098919,23.1148652 C189.161941,23.6089134 189.46577,23.887452 189.948712,23.9323776 C191.237,24.0581026 192.516,24.0041919 193.795001,23.806586 C194.73435,23.6628241 194.95791,23.4652181 195.029555,22.4769886 C194.948623,20.1951688 195.109824,19.0901993 194.993733,16.5568628 C194.95791,14.5984405 195.109824,14.5175745 196.621672,14.6074257 C198.830735,14.5625001 201.039797,14.4277234 203.248859,14.2930132 C204.608793,14.1312811 204.57297,13.1880437 204.608793,12.1638737 C204.653239,10.915209 204.581594,10.8163727 204.295676,9.63053723 Z" id="Path" fill="#000000"></path><path d="M194.703499,13.9237411 C195.437257,14.2671439 195.620518,13.3656718 195.620518,12.9106423 C195.620518,12.4556765 195.620518,10.781532 195.620518,10.781532 C195.620518,10.781532 195.678503,9.98309979 194.432903,10.0002731 C193.515884,10.0088598 191.807838,10.0002731 191.807838,10.0002731 C191.807838,10.0002731 190.668901,9.99168645 190.620939,10.6699055 C190.620939,10.6699055 193.902449,13.5545783 194.703499,13.9237411 Z" id="Path" fill="#FFFFFF"></path><path d="M89.8861141,110 C89.8861141,110 86.3320728,113.703558 88.1275315,118.709466 C89.9229219,123.70684 93.7992198,125 93.7992198,125 C93.7992198,125 97.2886595,116.81305 89.8861141,110 Z" id="Path" fill="#A3E1C2"></path><path d="M85.0171724,107 C85.0171724,107 88.8344594,105.476652 88.6115421,100.781863 C88.3421951,94.9551232 83.9211852,95 83.9211852,95 C83.9211852,95 80.3638766,98.1536258 85.0171724,107 Z" id="Path" fill="#A3E1C2"></path><path d="M93.7999897,95.0772426 C93.4498173,95.2600248 93.2657964,95.591358 93.1782045,95.9666106 C92.9065918,97.0561994 92.6963194,98.1632268 92.3546592,99.2269807 C91.4435221,102.033947 90.11184,104.596774 87.9653849,106.697801 C87.1593839,107.482537 86.3708624,108.302151 85.7137935,109.199915 C83.882747,111.684591 82.7613374,114.613628 82.6211125,117.664735 C82.6123403,118.911917 82.9365211,120.219165 83.3658381,121.335235 C84.3908837,123.967816 86.9841353,125.964211 89.7526355,126.871018 C90.1030679,126.984046 90.4972962,127.132597 90.7952254,126.774783 C91.0229772,126.504808 91.0843175,126.287148 91.058001,126.008131 C91.0054329,125.388738 90.3571362,125.15364 89.7701799,124.961816 C87.6499763,124.281711 86.2043859,122.442263 85.4772046,120.428429 C84.688748,118.231812 84.5310437,115.999673 85.5736336,113.759137 C86.5022501,111.771784 87.1593839,110.350862 88.7889302,108.851144 C89.6212477,108.083846 91.3734096,106.209521 91.9341144,105.216167 C93.4760688,102.469912 94.1593242,101.231772 94.5621947,98.0411567 C94.5537475,98.0411567 94.9481707,94.4320148 93.7999897,95.0772426 Z" id="Path" fill="#000000"></path><path d="M90.2913099,132.944511 C90.1043516,132.872621 89.9079622,132.656951 89.8518608,132.459254 C89.6835568,131.902106 89.9921489,131.398876 90.188469,130.913618 C90.8803395,129.197577 91.6376731,127.508828 92.3108893,125.774814 C93.9656366,121.480052 93.9281895,117.337723 91.0392817,113.465647 C90.4783375,112.720121 89.9921489,111.920012 89.4778749,111.138541 C89.2160917,110.752465 88.9636009,110.35707 88.7299031,109.952356 C88.561599,109.656142 88.5802532,109.332637 88.8421058,109.116967 C89.103889,108.901297 89.917324,109.000479 90.1697454,109.27872 C93.1056701,112.459187 95.4524265,115.693572 95.6209386,119.728065 C95.6022151,122.585028 94.9475837,125.3701 93.9566215,127.688553 C93.2926284,129.251495 92.9934674,130.284581 92.1519471,132.145068 C92.1613088,132.135749 91.9088874,133.258697 90.2913099,132.944511 Z" id="Path" fill="#000000"></path><path d="M85.1794177,105.183104 C85.1794177,105.183104 85.8692709,105.8188 85.5243734,106.489529 C85.3675648,106.747502 85.1480792,106.9456 84.9128954,106.988277 C84.7874834,107.005475 84.6149765,107.014393 84.5287521,106.936682 C84.3249649,106.75642 84.1289686,106.550042 83.9800092,106.317548 C82.9922952,104.76143 81.8556218,103.22251 81.690964,100.781004 C81.2833314,97.5222651 82.7884498,94.3157579 82.7884498,94.3157579 C82.9374093,93.8768855 83.8154096,93.9628765 84.019255,94.1692548 C84.340605,94.4699047 84.1760054,94.8227861 84.089781,95.1750305 C84.089781,95.1667499 81.808585,100.677815 85.1794177,105.183104 Z" id="Path" fill="#000000"></path><path d="M96.1272374,128.990763 C95.6136422,128.516107 95.5496979,128.179373 95.6775865,127.792753 C95.7510544,127.574866 95.9252006,127.010709 96.1272374,127.000438 C96.4299525,126.990901 96.7510345,127.139093 97.0625929,127.25794 C98.2367192,127.703984 99.3652681,128.02091 100.814219,127.951216 C101.767941,127.891792 102.180858,127.971024 102.520307,128.67457 C102.813499,129.287881 102.418949,129.86231 101.942087,129.901925 C101.951611,129.912196 98.2646098,130.427201 96.1272374,128.990763 Z" id="Path" fill="#000000"></path><path d="M86.5373947,117.986183 C86.1564814,118.078199 85.804103,117.688082 85.6993572,117.482757 C85.4994006,117.103286 85.7088923,116.785413 86.0231299,116.641686 C87.1373349,116.107842 88.2515398,115.59453 89.3848151,115.111636 C90.0609663,114.824942 90.413274,115.091104 90.5846956,115.902517 C90.6418361,116.169439 90.6609065,116.477426 90.413274,116.569442 C89.041972,117.082754 87.8991615,117.493404 86.5373947,117.986183 Z" id="Path" fill="#000000"></path><path d="M90.6157706,97.3022087 C90.6629657,97.7598439 90.3797952,98.062747 90.0573052,97.9889348 C88.9640012,97.7450814 87.8785143,97.449833 86.9110444,96.8888608 C86.6751273,96.7488912 86.5256665,96.5126924 86.6908201,96.2617311 C86.7852103,96.1288693 87.0369368,95.9741372 87.1627709,96.0036621 C88.2481994,96.291256 89.3179351,96.6012669 90.3876708,96.9408027 C90.5213804,96.9921978 90.5764511,97.2360512 90.6157706,97.3022087 Z" id="Path" fill="#000000"></path><path d="M85.9507978,100.029624 C86.0874925,100.021857 86.2322386,99.9774746 86.3528306,100.014645 C87.3338478,100.299248 88.3068732,100.583851 89.2717876,100.905624 C89.5371257,100.995499 89.6416745,101.257911 89.6175799,101.534747 C89.5853744,101.841541 89.3521823,102.014078 89.0787928,101.999099 C87.8163348,101.939183 86.7227174,101.407702 85.7015029,100.778579 C85.5969541,100.718663 85.6130569,100.426293 85.6452028,100.254311 C85.6613056,100.164436 85.846249,100.10452 85.9507978,100.029624 Z" id="Path" fill="#000000"></path><path d="M91.6209386,120.072557 C91.574233,120.441689 91.2472245,120.564733 91.0603328,120.66727 C90.2101384,121.128306 89.3412341,121.579468 88.4536198,121.958474 C88.1639619,122.081518 87.8276677,121.928093 87.6781266,121.538453 C87.5286549,121.148813 87.6874816,120.851077 87.9771395,120.656637 C88.7899833,120.113571 89.612182,119.600887 90.4530214,119.098077 C90.7520343,118.924144 91.2098739,118.975033 91.4060513,119.303151 C91.5275274,119.518858 91.6115836,119.723931 91.6209386,120.072557 Z" id="Path" fill="#000000"></path><polygon id="Path" fill="#000000" points="208.986056 115 215.620939 125.97234 195.620939 127 195.897392 125.313049"></polygon><polygon id="Path" fill="#A3E1C2" points="200.21165 103 208.620939 103.125756 208.19165 115.456476 196.99165 124.922759 194.620939 126 200.21165 115.986114"></polygon><path d="M214.70121,127.550005 L194.833516,127.995857 C194.09962,127.995857 192.700351,128.074156 192.622863,127.550005 C192.545375,127.025854 194.833516,123.453863 194.833516,123.453863 C196.232144,121.069301 196.888552,119.156474 198.218017,116.527307 C198.597773,115.767612 199.115854,114.606068 199.167727,113.758367 C199.323343,111.042489 199.323343,107.251779 199.452704,104.098462 C199.49561,103.032688 199.815169,102.386236 200.843007,102.05492 L208.561719,102.002505 C209.65872,101.95009 209.606848,102.727257 209.667045,103.661669 L209.615173,113.496292 C209.615173,115.278405 209.839952,115.828439 210.824243,117.191232 C212.024349,118.851042 213.207163,121.733225 214.493722,123.331561 C215.227617,124.240089 216.013385,125.584763 216.548758,126.598121 C217.058514,127.550005 214.70121,127.550005 214.70121,127.550005 Z M206.748753,114.928971 C207.059346,114.631952 207.715754,113.680068 207.750335,113.243276 C207.923242,110.937659 207.896986,107.679512 207.698463,105.076876 C207.698463,104.403893 207.750335,104.020163 206.653974,103.923745 C205.030567,103.87133 204.322287,103.87133 202.561193,103.87133 C201.403995,103.915332 201.084437,104.360537 201.188181,105.557025 C201.369413,107.706043 201.067146,111.339508 201.049855,113.47882 C201.04153,114.666895 200.989658,115.583836 200.350541,116.597194 C199.279796,118.763684 198.131563,121.174131 197.155597,122.789939 C197.043528,122.982127 196.698353,123.584577 196.223178,124.309976 C196.223178,124.309976 204.426031,117.226175 206.748753,114.928971 Z M208.000731,116.300175 C204.823078,118.527493 202.923658,121.366319 199.314378,123.829181 C198.235308,124.502165 195.783225,126.091442 196.301307,126.213744 C196.378795,126.39752 197.570575,126.414992 197.855552,126.380048 C199.521866,126.380048 201.792716,126.170388 203.562775,126.170388 C206.498358,126.126385 209.485813,125.995671 212.78386,125.908313 C213.017605,125.925784 213.457558,125.881782 213.466524,125.541407 C213.483815,125.331747 213.36278,125.060612 213.216128,124.903367 C211.670209,122.467036 209.770789,118.457606 208.000731,116.300175 Z" id="Shape" fill="#000000"></path><polygon id="Path" fill="#FFFFFF" points="163.620939 46 134.620939 46 134.620939 11.444512 162.12241 11"></polygon><path d="M141.721281,11.2235372 C141.825978,9.92205193 141.825978,9.06600064 142.392766,7.74697755 C142.392766,7.74697755 143.106905,6 144.623077,6 C146.234899,6 146.479193,8.13132051 146.479193,8.13132051 C146.679539,8.88253334 146.723486,9.6162731 146.827538,11.1186988 C147.550725,11.171118 148.143363,11.1623815 148.953798,11.1449084 C151.054207,11.1012257 153.084172,11.0750161 155.175533,11.0401346 C156.648405,11.013925 158.129678,11.0750161 159.601903,11.0750161 C161.458019,11.0750161 163.374885,11.8961212 163.584279,14.4292642 C163.584279,14.4292642 164.812857,39.5162654 164.595061,41.6825385 C164.525263,46.3121271 162.521149,46.8187169 159.157909,47.2816886 C147.289628,48.1901592 138.549986,48.0765842 137.077115,47.8058162 C135.604243,47.5350483 134.480363,46.4519117 134.166917,44.8184379 C134.06222,44.2855738 133.940073,43.7440379 133.922623,43.2111738 L133.626627,17.9757162 C133.609177,17.4341156 133.635029,16.8838431 133.661526,16.3422425 C133.731324,14.4031193 133.914221,12.874484 135.621693,12.1407443 C136.545873,11.669036 141.721281,11.2235372 141.721281,11.2235372 Z M144.945571,18.1155008 C142.984758,18.2464842 143.577397,12.9181667 143.577397,12.9181667 C143.229052,12.9181667 142.375316,12.8657475 141.765228,12.8395379 C139.403722,12.7259629 136.597575,12.9705213 135.961636,13.547068 C135.247497,14.1759693 135.360596,15.2241598 135.299199,15.9928457 L135.70894,41.3506148 C135.752887,42.0494084 135.70894,42.7569386 135.770337,43.4470603 C135.891838,44.9058033 136.88517,46.1199232 138.340592,46.3033905 C146.618789,46.8886092 159.976746,45.5783873 159.976746,45.5783873 C162.068107,45.3162912 162.791294,44.1283809 162.834595,41.516609 C163.02654,38.6165314 161.920109,15.2853155 161.920109,15.2853155 C161.920109,13.9139379 161.013378,12.7696456 160.334138,12.6822802 C160.029094,12.6385975 159.715649,12.5512969 159.410605,12.5599687 C155.680924,12.6211244 151.951244,12.6910167 148.222209,12.7696456 C147.855769,12.7783821 147.332928,12.7259629 146.871485,12.7783821 C146.879886,12.7871187 147.332928,17.923297 144.945571,18.1155008 Z M146.156699,11.1361718 C146.026151,9.19704871 145.973802,7.65094035 145.355312,6.90844463 C144.840874,6.2358477 144.056936,6.64639379 143.682094,7.02197433 C142.653863,8.0352833 142.488415,9.73858463 142.453516,11.2235372 L146.156699,11.1361718 Z M144.352932,12.7871187 C144.335483,13.704261 144.204934,15.3377348 144.222384,16.2636783 C144.230785,16.6218117 144.405281,17.4166425 144.945571,17.4515887 C145.285514,17.4690617 145.651308,17.0672457 145.808354,16.8052143 C146.174149,16.193786 146.278846,15.3726809 146.287248,14.6738873 C146.287248,14.2895443 146.261396,13.1103059 146.209048,12.7346994 L144.352932,12.7871187 Z" id="Shape" fill="#000000"></path><path d="M140.92876,42 C140.612626,41.9531533 140.296493,41.9453455 140.032505,41.8672676 C139.874112,41.8204209 139.769169,41.6721307 139.681173,41.5472061 C139.52278,41.3286458 139.707246,41.1412589 139.883238,40.9851609 C140.23457,40.6729072 140.771019,40.7119461 141.254019,40.6885228 C145.033282,40.5167514 148.80342,40.305999 152.582684,40.1966899 C154.568785,40.1420354 156.572486,40.2044977 158.549461,40.0171686 C159.340773,39.9390907 159.525239,40.118612 159.613235,40.7353695 C159.674506,41.1881056 159.366846,41.4067237 158.813449,41.4301471 C157.521538,41.4847438 156.212028,41.5706294 154.929243,41.5003593 C151.018311,41.2896069 147.168651,41.7813819 143.292918,41.9063065 C142.502258,41.9297299 141.702473,41.9687688 140.92876,42 Z" id="Path" fill="#000000"></path><path d="M140.938604,29 C140.618364,28.9527845 140.306466,28.9449153 140.038208,28.8662812 C139.882901,28.8190657 139.769951,28.6695501 139.683954,28.5437005 C139.519021,28.3233617 139.709625,28.1345582 139.891244,27.9771733 C140.24614,27.6703312 140.773671,27.7018081 141.267188,27.6782004 C145.040122,27.5051354 148.804071,27.3005351 152.585348,27.1982932 C154.57546,27.1432085 156.565572,27.2140317 158.546699,27.0173006 C159.334144,26.9386082 159.524748,27.1196008 159.611386,27.7411543 C159.680697,28.1975121 159.368799,28.4177926 158.806614,28.4414004 C157.517309,28.4964851 156.210676,28.5830467 154.921371,28.5122235 C151.010457,28.299754 147.168213,28.7875887 143.300298,28.9056274 C142.513494,28.9291768 141.717064,28.968523 140.938604,29 Z" id="Path" fill="#000000"></path><path d="M148.64897,34.9523846 C145.941119,34.9619218 143.232605,34.9713884 140.524755,34.9619218 C140.04218,34.9619218 139.702788,34.7521034 139.631197,34.3706861 C139.559606,33.9892687 139.872484,33.731835 140.26557,33.588777 C141.078919,33.2931944 141.96386,33.3313432 142.830902,33.3884958 C146.959961,33.6269258 151.071121,33.3408804 155.182282,33.2645828 C156.263434,33.2455084 157.327351,33.083376 158.408502,33.0070784 C159.02564,32.9593924 159.445241,33.1501364 159.579805,33.6555374 C159.740221,34.2562397 159.427344,34.6948802 158.712763,34.7997894 C158.185113,34.876087 157.640228,34.9428474 157.103961,34.9428474 C154.288724,34.9713884 151.473487,34.9809256 148.666868,35 C148.64897,34.9809256 148.64897,34.971459 148.64897,34.9523846 Z" id="Path" fill="#000000"></path><path d="M156.620333,16.5244291 C156.626091,16.648181 156.590214,16.7162698 156.536618,16.7719788 C156.405066,16.9019207 156.243837,16.9700095 156.070649,16.994769 C155.849624,17.0257185 155.706555,16.9204903 155.640558,16.648181 C155.581204,16.4192009 155.652517,16.2335501 155.90942,16.0726129 C156.034771,15.9921902 156.178283,15.9798104 156.321351,16.0293295 C156.452903,16.0788028 156.542376,16.1530815 156.572496,16.2892591 C156.584455,16.3882515 156.608374,16.4749099 156.620333,16.5244291 Z" id="Path" fill="#BAA3BF"></path><path d="M156.620461,21.5782694 C156.626314,21.7020653 156.578145,21.8010562 156.48676,21.869144 C156.219808,22.0609818 155.977165,22.0362226 155.758382,21.8320052 C155.625131,21.7082551 155.588667,21.5411306 155.64944,21.3616724 C155.752529,21.0584183 156.104564,20.9037192 156.341355,21.0646081 C156.517372,21.1822142 156.608307,21.3678622 156.620461,21.5782694 Z" id="Path" fill="#E05C26"></path><path d="M153.105715,18 C152.924403,18 152.724078,17.8839279 152.66194,17.7372534 C152.574298,17.5356212 152.630408,17.278986 152.7992,17.1384682 C153.018073,16.9612365 153.287027,16.9245679 153.474368,17.2056488 C153.505901,17.2484288 153.536969,17.2850975 153.555982,17.3278776 C153.687213,17.5845127 153.618119,17.7922564 153.362149,17.9328194 C153.280535,17.9755542 153.193357,17.9877771 153.105715,18 Z" id="Path" fill="#58B3CA"></path><path d="M158.619986,19.4775334 C158.644426,19.7833913 158.192731,20.0580344 157.966884,19.9893621 C157.674052,19.8957642 157.521526,19.4775334 157.692609,19.2153761 C157.881795,18.9157612 158.272389,18.9594618 158.467459,19.1591896 C158.553001,19.2403479 158.614102,19.3776463 158.619986,19.4775334 Z" id="Path" fill="#22A06D"></path><path d="M153.121822,19.9997181 C152.864702,20.0086903 152.657407,19.8023301 152.62419,19.5422032 C152.599586,19.3178986 152.715843,19.1295491 152.931135,19.0487995 C153.064001,18.9949664 153.188255,18.977022 153.321121,19.0398273 C153.511808,19.1295491 153.636063,19.2999542 153.619454,19.5063144 C153.602846,19.703636 153.511808,19.8651354 153.329118,19.9369128 C153.254688,19.9728016 153.171647,19.9817738 153.121822,19.9997181 Z" id="Path" fill="#EAC523"></path><path d="M158.086315,18 C157.819107,18 157.620939,17.7913473 157.620939,17.4920432 C157.620939,17.1927392 157.844677,16.9750818 158.146404,17.0022974 C158.448132,17.0203739 158.62073,17.201811 158.62073,17.5011151 C158.62904,17.7823426 158.388042,18 158.086315,18 Z" id="Path" fill="#A7D8BF"></path><path d="M148.829195,64.24481 C146.729816,64.1832434 146.959795,66.3376175 145.391996,64.2008339 C144.169166,62.5300669 141.989624,62.9784931 139.641868,63.3390973 C137.560231,63.6556602 137.68442,66.170834 136.86898,65.7661233 C136.054198,65.3616081 133.440324,63.9722232 132.625542,65.792509 C131.810103,67.6125994 130.791625,67.208019 129.77249,67.208019 C128.754012,67.208019 126.910896,68.5448932 126.910896,70.1632146 C126.910896,71.7808845 125.281332,71.7808845 124.262197,71.7808845 C123.243062,71.7808845 122.835671,73.19659 122.835671,74.0057507 C122.835671,74.8149114 122.224584,76.2306169 121.20545,76.2306169 C120.186972,76.2306169 119.983276,77.0397775 119.983276,78.0509027 C119.983276,79.0620278 119.779581,80.4777333 118.149359,80.2757688 C116.519138,80.0731529 115.704356,81.8934387 116.111747,82.9052154 C116.519138,83.9163405 117.130224,85.3320459 116.111747,85.9385907 C115.092612,86.545787 114.428302,88.0227333 114.428302,89.2364743 C114.428302,90.4502154 116.111747,90.8020244 114.074134,91.0039888 C112.036522,91.2066047 112.443913,94.442596 113.46239,94.8471764 C114.481525,95.2511052 115.704356,96.2628818 114.074134,97.274007 C112.443913,98.2851321 113.46239,101.116543 115.092612,101.116543 C116.722833,101.116543 116.722833,103.544025 116.315442,104.757115 C115.908051,105.970856 116.111747,107.589177 117.945664,106.780016 C119.779581,105.970856 120.594363,105.566275 120.390667,107.184597 C120.186972,108.802267 120.319703,109.646608 122.631976,109.409463 C124.448151,109.224437 125.299073,108.380096 124.279938,109.391872 C123.260803,110.402998 123.854806,111.229749 125.076979,111.431713 C126.29981,111.634329 126.503505,112.645454 125.688723,113.454615 C124.873284,114.263124 125.839195,116.171362 127.035085,116.646304 C130.339552,117.965588 131.323205,115.169358 131.323205,115.169358 C133.883198,117.394224 136.443848,115.169358 136.443848,115.169358 C131.64189,110.561312 133.564513,102.304224 139.890245,97.3880191 C145.923576,92.7011415 155.85472,92.9389383 158.025063,87.6800453 C169.435956,102.242332 159.247893,113.366663 159.247893,113.366663 C159.451589,114.984333 164.191124,114.861199 164.95334,113.6657 C166.415348,111.378942 167.690745,111.616739 168.506185,112.627864 C169.320967,113.638989 172.271267,112.003077 172.208844,110.174322 C172.182561,109.339101 173.157014,108.046529 174.654505,107.949456 C176.293269,107.843913 176.559387,105.73371 175.743948,105.531094 C174.929165,105.32913 174.929165,103.508844 176.559387,103.508844 C178.188951,103.508844 178.818436,98.8740864 177.799301,99.4812827 C176.780824,100.087827 176.576471,97.8629613 177.595606,97.6609969 C178.614741,97.4583809 179.030674,94.8028745 177.808501,94.8028745 C176.58567,94.8028745 176.018608,92.6574911 177.852525,93.2640359 C179.686442,93.8705806 180.093833,90.230009 179.075355,90.0280446 C178.056221,89.8254287 178.667307,88.2077588 179.279051,86.9940177 C179.890138,85.7802767 178.056221,84.7691515 178.056221,84.7691515 C178.056221,84.7691515 176.018608,84.7691515 176.629695,83.1514817 C177.241438,81.5331603 176.425999,80.9266155 175.407521,81.1285799 C174.388387,81.3311958 173.316685,80.4516733 173.316685,79.8451286 C173.316685,79.2379323 174.946907,77.6202624 172.501246,77.6202624 C170.056242,77.6202624 170.57928,75.4129867 170.57928,74.1992456 C170.57928,72.9855046 170.0477,70.9893143 168.443762,71.3150633 C165.024305,72.0095604 164.42176,69.2393902 164.42176,69.2393902 C164.42176,69.2393902 164.067593,65.6429902 161.347272,67.1024763 C159.123705,68.2986269 158.716314,66.2763767 157.086092,66.2763767 C155.455871,66.2763767 156.032132,66.9441623 154.020803,67.3226827 C154.012261,67.3135617 151.894484,64.3415575 148.829195,64.24481 Z" id="Path" fill="#000000"></path><path d="M155.969971,85.6730782 C155.969971,85.6730782 157.701763,84.0063026 158.148568,83.2866768 C159.56131,81.0140374 161.620939,93 161.620939,93 C161.620939,93 160.144657,90.2625616 158.850207,90.2099061 C157.555757,90.1572506 156.681073,90.8060189 155.323084,89.8413173 C153.427711,88.4989259 155.969971,85.6730782 155.969971,85.6730782 Z" id="Path" fill="#000000"></path><path d="M154.868785,103 C154.034078,102.954298 153.233559,102.778995 152.546571,102.208746 C151.711864,101.517763 150.998428,100.735376 150.633325,99.6671828 C150.581075,99.5198458 150.702991,99.2067547 150.833293,99.1058016 C150.955209,99.0041664 151.277094,98.9768817 151.380949,99.0689674 C151.911832,99.5382629 152.389822,100.063492 152.903289,100.551205 C153.685746,101.306307 154.573348,101.480928 155.599638,101.177387 C156.782032,100.836329 157.756072,100.229246 158.530143,99.2251719 C158.643673,99.0873845 158.913308,98.9768817 159.078444,99.0041664 C159.356464,99.0594177 159.539016,99.30839 159.591266,99.6214811 C159.678349,100.155578 159.58288,100.633741 159.182943,101.0205 C157.956685,102.217613 156.512397,102.843796 154.868785,103 Z" id="Path" fill="#000000"></path><path d="M146.224815,115.992471 C145.824225,115.953519 145.439733,115.875614 145.106011,115.574093 C144.521533,115.048233 144.020641,114.434371 143.653485,113.704372 C143.578568,113.55866 143.645436,113.256418 143.728402,113.071754 C143.837373,112.838039 144.062743,112.82794 144.246012,112.964274 C144.463333,113.130183 144.663938,113.344421 144.863923,113.529085 C145.323333,113.947464 145.673771,114.561327 146.358551,114.541851 C147.260034,114.522374 148.036448,114.132849 148.703891,113.461279 C149.104481,113.061655 149.422105,112.565371 149.805978,112.146271 C149.947763,111.990461 150.173134,111.932032 150.348353,112.107318 C150.557007,112.31218 150.699411,112.613701 150.573724,112.925321 C149.914329,114.639232 147.785692,116.118706 146.224815,115.992471 Z" id="Path" fill="#000000"></path><path d="M134.195214,112.020971 C134.195214,112.020971 136.272093,116.185876 139.792082,119.23029 C139.792082,119.23029 140.170646,121.815786 139.474872,125.47732 C139.123069,127.348291 138.70926,128.204022 138.058522,129.995238 C137.662335,131.098078 137.50373,131.221632 136.351069,131.10723 C134.379927,130.921571 132.408786,131.027475 130.446129,131.195483 C127.119338,131.468742 123.934181,132.218569 121.06493,134.080387 C117.931989,136.118713 115.617529,138.810113 114.543845,142.384047 C113.479297,145.957328 112.572703,149.584214 111.771845,153.228097 C110.654429,158.319988 108.638904,169.490902 107.680094,174.617441 C107.565872,175.367268 107.565872,176.01119 108.155257,176.01119 C108.744641,176.01119 109.15845,174.873049 109.15845,174.873049 C109.686481,171.184712 111.429179,161.487303 112.370367,157.878721 C112.458481,157.543359 112.502212,157.190345 112.572703,156.84583 C112.84553,155.469732 113.01262,154.057678 113.426429,152.716881 C114.368269,149.690118 114.825809,146.5398 115.829003,143.513037 C116.295681,142.092484 116.806089,140.716386 117.694408,139.525292 C119.727556,136.789439 122.182998,134.689662 125.394915,133.586822 C127.418925,132.889294 129.521911,132.659835 131.616413,132.571582 C133.077146,132.510131 134.599886,132.818691 136.069757,133.154054 C136.069757,133.154054 137.108197,133.436465 137.970408,134.672012 C140.064909,137.416364 141.789332,140.283618 143.892971,143.02797 C144.719937,144.342618 145.168992,144.889789 145.995957,146.169136 C146.233539,146.681005 146.753085,147.387032 147.052019,147.8636 C147.201487,148.110709 147.518697,148.234264 147.773901,147.995653 L152.402821,142.533751 C153.27417,141.615916 154.06589,140.61898 154.954862,139.718796 C156.679285,137.962881 158.149156,135.731052 160.015214,134.098038 C160.736443,133.463268 161.49357,133.092604 162.443896,132.977547 C165.251141,132.642185 168.031626,132.368926 170.838871,132.616035 C172.660545,132.774892 174.033818,132.924595 175.749755,133.622124 C177.826634,134.468702 179.59544,135.7219 180.695233,137.707273 C181.478468,139.119327 182.165104,140.592831 182.428793,142.225191 C182.428793,142.225191 184.145384,153.413755 184.435833,158.319988 C184.72563,160.278559 185.508865,171.317419 185.62374,173.293641 C185.737962,175.261363 185.869806,177.229086 185.984681,179.205308 C186.010789,179.699527 186.072142,180.185247 186.309723,180.635012 C186.459843,180.917423 186.741155,181.040978 187.013982,180.988026 C187.277671,180.935074 187.532876,180.740916 187.577259,180.432356 C187.620939,180.158444 187.630127,179.867535 187.612504,179.593623 C187.436277,177.140833 187.427791,174.740996 187.216318,172.287552 C186.935006,168.916928 186.046034,159.696087 186.063657,156.299313 C185.491243,151.869649 184.910996,145.313405 184.101,141.528317 C182.921579,135.98666 178.97081,132.157118 173.523409,131.442593 C169.387275,130.895422 165.251141,130.868619 161.105869,131.248435 C160.542592,131.301387 160.226035,131.266086 159.9271,130.718915 C158.52772,128.133419 158.017312,126.086595 157.568257,123.227186 C157.110717,120.244876 157.454035,118.347756 157.454035,118.347756 C157.717724,116.618644 158.730056,114.545017 158.730056,114.545017 C159.143865,113.891942 159.513291,113.203566 159.962346,112.577294 C161.906727,109.84144 163.217993,106.823829 164.124588,103.603563 C164.274055,103.074042 164.397415,102.544522 164.476391,102.006504 C164.749218,100.320538 164.705487,98.6267272 164.362169,96.9061136 C163.816515,94.1709134 162.90992,91.6207183 161.053,89.4673365 C160.322634,88.620758 160.049807,87.5617178 159.425177,86.5203282 C159.372308,86.3791229 159.117104,85.9202054 158.993745,85.6292962 C158.712433,85.3115841 158.615834,83.943984 158.421983,83.6171197 C158.421983,83.6171197 157.577395,85.9731574 161.105869,92.3528943 C163.015657,95.8032736 163.78127,99.4033567 162.769591,103.321152 C161.898242,106.674126 160.041322,109.489081 158.219647,112.338683 C157.841084,112.930308 157.410304,113.494476 157.057849,114.103751 C156.142769,115.647857 154.98097,116.936356 153.476506,117.915642 C152.473312,118.568716 151.505364,119.283242 150.493033,119.918666 C148.469022,121.198013 146.022718,121.983141 144.016331,120.721445 C136.571028,116.02702 134.406035,109.259622 134.406035,109.259622 L134.195214,112.020971 Z M135.075049,110.723974 C134.468041,109.383177 134.256568,108.359438 134.362305,106.903584 C134.476526,105.279723 135.840661,103.480008 136.439183,101.971202 C136.71201,101.459333 136.843855,101.247525 136.975699,101.061866 C137.292909,101.229874 137.46,101.291325 137.943647,101.538434 C140.583803,102.906034 143.118221,102.605973 145.494687,100.850058 C146.110832,100.391141 146.207431,100.038781 145.952227,99.3942045 C145.838005,99.1117938 145.600424,98.9267886 145.292351,99.120946 C144.93141,99.3412525 144.605715,99.6060125 144.271535,99.8707726 C142.634573,101.150119 140.839007,100.912162 139.044093,100.382642 C138.498439,100.206135 138.119875,99.9505275 137.864671,99.7563701 C137.996516,99.4648072 138.286965,99.1117938 138.586553,98.7587803 C139.782945,97.3558789 141.147079,96.1471348 142.933508,95.5208628 C145.257106,94.7174305 147.589188,93.9146518 149.903648,93.0850703 C151.760568,92.423497 153.529374,91.5501157 155.210066,90.5087261 C155.817074,90.1295635 156.354242,89.6706461 156.811782,89.1319738 C157.938335,87.6676218 157.040226,83.679224 156.627069,83 C156.407111,83.2471094 156.099038,87.2172029 155.817074,87.4113602 C155.412402,88.0206352 155.368671,88.6031074 154.708143,89.0528726 C153.370769,89.9707075 151.936143,90.7296863 150.431679,91.3206569 C147.949476,92.2914438 145.485549,93.3236812 142.915885,94.0650094 C140.830522,94.6644785 139.228806,95.9621296 137.758934,97.5415378 C135.594595,99.8799248 134.511772,102.75633 133.367596,105.624238 C132.126821,108.765403 133.024931,111.41235 135.295007,113.688633 L135.075049,110.723974 Z M147.677302,145.119248 C146.963906,144.175264 146.62124,143.654242 146.145425,142.948869 C145.432681,141.898327 144.702314,140.875242 143.883833,139.912954 C142.652196,138.474751 142.079782,137.416364 140.461096,135.41334 C139.668723,134.41575 139.008847,132.871643 138.700775,132.16627 C138.73602,131.857057 138.806511,131.972113 139.096961,131.177833 C140.161508,128.256974 140.856629,125.247861 141.032857,122.133498 C141.032857,122.062896 141.041342,121.992293 141.05048,121.92169 C141.138594,121.286266 141.516505,121.074458 142.088919,121.43597 C143.628629,122.424407 145.274728,122.838871 147.104888,122.645368 C147.817632,122.574765 148.477507,122.424407 149.146521,122.177298 C151.012579,121.480423 152.640402,120.377583 154.277364,119.283242 C154.682035,119.009983 155.069084,118.692271 155.491378,118.445162 C155.649983,118.347756 156.037032,117.888839 156.168877,117.977092 C155.738097,119.5565 156.134284,122.706818 156.134284,122.706818 C156.204122,124.260077 156.662315,125.980691 157.119855,127.621549 C157.595017,129.333664 158.343007,130.913073 159.134727,132.553931 C155.315803,136.736487 151.539957,140.892893 147.677302,145.119248 Z" id="Shape" fill="#000000"></path><path d="M152.274971,82.3203342 C152.206398,82.2838474 152.12957,82.2385769 152.060997,82.2020901 C150.742235,81.4088414 149.620939,79.6574781 149.620939,78.4081452 C149.638082,73.1912175 155.25409,73 155.30552,73 L156.041411,73.4743276 C155.819183,73.4925709 150.143491,73.8574383 150.134602,78.4351724 C150.134602,79.4297738 151.187326,80.7155934 152.300368,81.3811385 C153.627384,82.1656034 155.296631,82.3933076 156.170303,81.8189794 C156.657933,81.5000583 156.906193,80.7791074 156.88905,79.949372 C156.863653,79.1196366 156.88905,79.949372 156.88905,79.949372 C156.880796,79.949372 156.88905,78.5446326 154.929003,78.6176061 L154.894716,77.9338176 C156.64079,77.8426008 157.650973,79.0007168 157.616687,79.7939655 C157.668116,81.0804608 157.248424,82.0378998 156.606503,82.5122274 C155.613464,83.2419621 153.76453,83.1325019 152.274971,82.3203342 Z" id="Path" fill="#A3E1C2"></path><path d="M168.69783,93.9913474 C168.187078,93.9913474 167.449014,93.692199 166.995091,93.3646591 C166.030416,92.6825729 165.368123,91.1030414 164.667945,89.4487227 L164.620939,89.336542 L165.074862,89.1398796 L165.207461,89.1398796 C165.840989,90.6266197 166.522225,92.0468825 167.288352,92.6638762 C168.328798,93.5142333 169.624619,93.2524784 169.993651,93.0752053 C170.69383,92.7386633 171.053039,92.318332 171.034097,91.3647963 C171.024976,90.8599832 170.079244,89.7755701 168.925142,89.5699055 L169.085804,89 C170.816606,89.1585764 171.639562,90.5982283 171.620619,91.3647963 C171.592556,92.2809384 171.394008,93.0378117 170.504403,93.5426247 C170.041359,93.8230764 169.416951,94.0474378 168.69783,93.9913474 Z" id="Path" fill="#A3E1C2"></path><path d="M119.31332,92.1381185 L119.102247,92.5778956 C119.478775,92.8715334 120.222297,93 120.865049,93 C121.544568,93 122.444013,92.8443448 123.141916,91.9362425 C124.050892,90.7521751 123.564062,89.4498369 122.535931,88.596112 C121.829177,88.0183524 119.65308,87.605764 117.073902,89.2296085 C115.678095,90.110522 115.108879,89.9269984 114.649965,89.6517129 C114.209435,89.3947798 113.961594,88.5872757 113.879207,88 L112.620939,90.5502991 C112.988615,90.0643013 113.493148,90.495242 114.016745,90.7983959 C114.998576,91.3578032 116.128158,90.6332246 118.129268,89.2751495 C119.855302,88.1101142 122.838924,88.752447 123.013229,90.2111202 C123.013229,90.2206362 123.077232,93.1835237 119.31332,92.1381185 Z" id="Path" fill="#A3E1C2"></path><path d="M126.963759,78.2144146 C126.535113,78.641309 126.270759,79.5794839 126.50807,80.2161026 C126.735914,80.819215 127.401194,81.1623438 128.057685,81.3888212 C128.850748,81.6736243 129.926419,81.3385619 130.473382,81.0370056 C132.041252,80.1739096 131.66737,77.619989 131.63965,77.3432522 L132.569961,77.5107834 C132.597004,77.8290928 133.016185,80.4338932 130.892562,81.48934 C130.209028,81.8324688 129.506562,82 128.832493,82 C128.412636,82 128.002921,81.9329875 127.619574,81.7989625 C126.781213,81.4974063 126.124722,80.8862275 125.833324,80.1068971 C125.514206,79.2611746 125.550715,78.5575434 125.969896,78.0301302 C127.027313,76.6898804 128.485655,77.041696 128.549884,77.041696 L128.385593,77.5275365 C128.394382,77.5275365 127.528977,77.6534952 126.963759,78.2144146 Z" id="Path" fill="#A3E1C2"></path><path d="M173.604665,107.789669 C173.604665,107.789669 172.723621,108.267251 171.507207,107.522604 C171.456809,107.495352 171.423209,107.458563 171.372811,107.43063 C170.030712,106.649193 167.706771,107.522604 167.597885,107.550537 L168.10125,108.156883 C168.713501,107.95454 170.374792,107.366589 171.263925,108.579962 C171.524007,108.939001 171.700091,109.720438 171.608005,110.409901 C171.490408,111.247204 170.919845,111.936667 170.131509,112.221445 C168.948695,112.635668 167.992364,112.515761 167.488999,111.403219 C166.592803,111.67592 167.523109,113.04878 169.334974,113.232728 C169.670343,113.232728 170.122284,113.187675 170.440854,113.077306 C171.456295,112.718949 171.815752,111.760677 172.403114,110.859334 C172.780171,110.279558 172.765931,109.343686 172.589224,108.76391 L173.0845,108.230462 L173.604665,107.789669 Z" id="Path" fill="#A3E1C2" transform="translate(170.374193, 110.169605) rotate(8.000000) translate(-170.374193, -110.169605) "></path><path d="M136.664343,66.492098 C136.579436,65.0557462 135.620939,64.6531935 135.620939,64.6531935 L137.842968,63.0795847 L137.809005,63.5095887 C139.157443,62.3385326 141.81155,61.7255192 143.422254,62.1189214 C145.008429,62.5123236 149.095251,62.6038283 147.068821,64.2780922 C145.61032,65.4855469 146.560013,66.7666119 144.550564,68.4136956 C143.617853,69.1816568 141.828531,69.0264378 141.293936,68.322191 L141.658719,67.7365612 C142.430423,68.1296923 142.939231,68.4136956 143.863766,68.047677 C144.490815,67.8002756 145.661264,66.6839189 145.500256,65.3484932 C145.237361,63.1619388 143.202126,62.9057258 142.430423,62.8599735 C140.793933,62.7776871 138.843604,63.3631813 138.13102,64.6989458 C136.681324,67.434257 138.122844,70.188208 141.395824,71.3499781 L141.073809,72 C137.961207,71.0937651 137.164346,68.9620457 136.757425,67.159743 C136.757425,67.159743 136.681324,66.8032138 136.664343,66.492098 Z" id="Path" fill="#A3E1C2"></path><path d="M170.524589,76.1228025 L170.428441,76.1477253 C170.68075,74.6511118 171.00275,72.2292398 171.064052,71.345727 L168.662279,71.0011694 C169.732817,70.917055 171.689985,75.3913187 168.836508,77.7122534 C168.166696,78.2586855 166.7135,78.2169398 166.339231,78.0568109 C164.877647,77.4349873 165.156413,76.0050423 165.808802,75.2984813 L165.069299,75.0293152 C164.347218,76.0386881 164.347218,77.9141279 166.200494,78.7720949 C167.314266,79.2848813 168.619045,78.7720949 168.619045,78.7720949 C169.288857,78.4437372 169.732817,77.9645966 170.019972,77.4181644 L170.019972,77.4262644 C170.341972,76.6947805 171.620939,77.1402754 171.620939,77.1402754 L170.524589,76.1228025 Z" id="Path" fill="#A3E1C2"></path><path d="M129.616936,101.261012 C129.654758,101.678899 129.418721,102.291296 129.153968,102.680315 C128.587339,103.515402 127.727941,103.988961 126.254986,104.674901 L125.225389,105 L125.008263,104.70308 L124.999158,104.591736 C126.33063,103.970404 128.039621,103.144252 128.559323,102.485806 C129.220506,101.660342 128.700805,100.491221 128.511695,100.203923 C128.153087,99.6657565 127.643192,99.5262318 126.783793,99.730364 C126.056771,99.9070037 125.273017,100.537271 125.159551,101.493324 L124.620939,101.409472 C124.649655,99.9997911 126.208059,99.0437374 126.91617,99.0066225 C127.765763,98.9605724 128.559323,99.1461472 129.097235,99.8327738 C129.371094,100.194301 129.58822,100.955157 129.616936,101.261012 Z" id="Path" fill="#A3E1C2"></path><path d="M187.373764,177.887648 C187.373764,177.887648 211.910119,177.988665 215.304775,177.988665 C218.69878,177.988665 240.108821,177.792632 244.023878,177.988665 C244.023878,177.988665 261.208184,178.014169 263.349058,177.988665 C269.348976,177.925654 275.617235,177.596099 278.490188,177.792632 C278.490188,177.792632 282.405896,177.792632 283.448652,177.792632 C284.490757,177.792632 286.053914,177 281.884844,177 C281.884844,177 265.996655,177.165028 258.123554,177.101517 C250.264131,177.038006 224.699349,177.196533 220.78364,177.196533 C216.867932,177.196533 190.233039,177.29805 190.233039,177.29805 C190.233039,177.29805 182.161938,177.488081 187.373764,177.887648 Z" id="Path" fill="#000000"></path><path d="M2.5152456,175.887648 C2.5152456,175.887648 29.0343334,175.988665 32.7031623,175.988665 C36.3719715,175.988665 59.5114916,175.792632 63.7435741,175.988665 C63.7435741,175.988665 82.3160292,176.014169 84.6299878,175.988665 C91.1151111,175.925654 97.8892658,175.596099 100.994894,175.792632 C100.994894,175.792632 105.226976,175.792632 106.353431,175.792632 C107.479886,175.792632 109.170224,175 104.663749,175 C104.663749,175 87.4919443,175.165028 78.9820908,175.101517 C70.4874669,175.038006 42.8571604,175.196533 38.6250122,175.196533 C34.3929494,175.196533 5.60557831,175.29805 5.60557831,175.29805 C5.60557831,175.29805 -3.11735625,175.488081 2.5152456,175.887648 Z" id="Path" fill="#000000"></path></g></g></g></svg> 