<?xml version="1.0" encoding="UTF-8"?> <svg xmlns="http://www.w3.org/2000/svg" width="436" height="436"><path d="M339.131 0c-24.824 0-46.571 16.772-52.9 40.77l-4.044 15.365c-3.48 13.256-8.825 25.861-15.717 37.658l-48.539-15.33A165.423 165.423 0 0 1 142.02 28.29a40.74 40.74 0 0 0-30.942-14.223c-22.468 0-40.751 18.284-40.751 40.752v1.934c0 4.782.844 9.37 2.408 13.713-20.956 1.441-37.57 18.916-37.57 40.224 0 12.272 5.679 23.805 15.243 31.47-11.234 3.463-19.76 12.939-21.747 24.718L0 159.792v8.984C0 261.83 75.718 337.55 168.773 337.55h8.052c11.427 0 22.873-1.02 34.142-2.936v73.257c0 15.506 12.623 28.129 28.129 28.129h161.743C420.23 436 436 420.23 436 400.839V210.965h-71.15c9.88-24.28 14.89-49.91 14.89-76.317v-24.402l40.646-16.262-26.581-26.582V54.674C393.805 24.524 369.282 0 339.13 0zm-71.905 225.038h154.71v175.804c0 11.638-9.46 21.097-21.097 21.097l-137.392.002a27.912 27.912 0 0 0 3.78-14.065V225.038zm-42.19 42.19h28.128v140.646c0 7.753-6.311 14.065-14.064 14.065-7.754 0-14.065-6.312-14.065-14.065V267.23zm56.255 126.577v14.065h126.58v-14.065H281.29zm0-28.129v14.065h126.58v-14.065H281.29zm0-28.129v14.065h126.58v-14.065H281.29zm57.841-323.48c22.398 0 40.611 18.214 40.611 40.612v18.565l15.612 15.612-29.676 11.866v33.931c0 26.514-5.486 52.162-16.175 76.318h-96.34v42.193h-42.193v67.14c-11.252 2.075-22.696 3.184-34.141 3.184h-8.053c-82.276 0-149.75-64.553-154.461-145.655l15.348 3.798c3.147 9.775 10.988 17.721 21.184 20.692 20.2 5.855 60.512 15.682 103.866 15.682 39.799 0 87.198-13.29 119.95-24.42 20.798-7.067 34.757-26.6 34.757-48.593 0-20.184-11.638-37.993-29.482-46.379 6.89-12.236 12.288-25.246 15.875-38.888l4.043-15.383c4.677-17.828 20.833-30.275 39.275-30.275zM49.016 215.647l-13.254 4.712c18.898 53.27 69.53 89.064 125.98 89.064h15.085c2.092 0 4.184-.036 6.259-.124l-.528-14.047c-1.898.07-3.832.106-5.73.106h-15.085c-50.528 0-95.815-32.031-112.727-79.711zm288.53 23.453v70.322h70.323V239.1h-70.323zm-56.253 56.258v14.064h42.193v-14.064h-42.193zm70.318-42.194h42.193v42.194h-42.193v-42.194zm-70.318 14.065v14.064h42.193V267.23h-42.193zm0-28.13v14.065h42.193V239.1h-42.193zM111.075 28.132c7.806 0 15.19 3.393 20.27 9.317 21.838 25.493 50.317 44.305 82.349 54.431l55.626 17.577c15.576 4.904 26.037 19.198 26.037 35.53 0 15.963-10.127 30.133-25.229 35.267-31.752 10.811-77.55 23.68-115.418 23.68-41.613 0-80.466-9.493-99.927-15.136-7.525-2.18-12.588-8.896-12.588-16.702 0-9.581 7.788-17.387 17.387-17.387h10.83c19.636 10.408 48.485 21.097 84.296 21.097V161.74c-45.11 0-78.302-18.407-94.054-29.36-7.155-4.975-11.428-13.08-11.428-21.694 0-14.504 11.797-26.3 26.301-26.3H79.5c11.536 20.254 35.021 49.227 75.21 49.227V119.55c-40.294 0-61.022-36.408-68.072-52.073-1.494-3.305-2.25-6.909-2.25-10.724v-1.934c0-14.715 11.973-26.687 26.687-26.687zm233.506-.001c-11.638 0-21.097 9.458-21.097 21.097 0 11.638 9.459 21.096 21.097 21.096 11.638 0 21.096-9.458 21.096-21.096 0-11.639-9.458-21.097-21.096-21.097zm0 14.064c3.885 0 7.032 3.165 7.032 7.033 0 3.867-3.147 7.032-7.032 7.032-3.886 0-7.032-3.165-7.032-7.032 0-3.868 3.146-7.033 7.032-7.033z" fill="#FF9F9F" fill-rule="evenodd" opacity=".3"></path></svg> 