<?xml version="1.0" encoding="UTF-8"?> <svg xmlns="http://www.w3.org/2000/svg" xmlns:xlink="http://www.w3.org/1999/xlink" width="161" height="132"><defs><path d="M95.054 259.726c9.7-2.82 19.51-2.92 28.992-2.6 2.375.103 4.74.213 7.115.323 1.078.101 2.476.211 3.663.321l1.836.22 1.819.322c4.96.864 9.81 2.49 14.23 4.767 8.952 4.666 16.387 12.033 21.237 20.703 4.96 8.67 7.436 18.747 7.006 28.721-.32 10.076-3.983 19.83-10.13 27.638-3.123 3.903-6.677 7.264-10.76 9.982-4.102 2.921-8.952 4.767-13.583 5.851-4.741 1.194-9.271 1.736-13.473 3.142-2.046.762-4.093 1.625-5.819 2.82-.968.541-1.726 1.295-2.585 1.947-.75.762-1.617 1.625-2.475 2.388-6.577 6.392-12.615 13.547-18.862 20.482-1.617 1.846-2.804 2.49-3.124 2.168-1.078.11-1.946-2.278-2.266-5.961-.32-3.684-.11-8.67.11-13.87.1-2.71.1-5.529-.22-7.807-.218-1.185-.538-2.167-.757-2.49 0-.11-.219-.33-.648-.651l-.649-.432-.758-.432c-2.155-1.304-4.85-2.388-7.435-3.471-2.694-1.194-5.39-2.388-8.193-4.014-1.407-.864-3.023-2.278-3.992-3.251-1.077-1.084-2.155-2.168-3.124-3.362-1.936-2.388-3.772-4.877-5.28-7.587-3.022-5.419-5.178-11.27-6.146-17.34-2.156-12.133.21-24.928 6.248-35.656 3.014-5.31 7.006-10.186 11.746-14.09 4.85-3.903 10.24-6.935 16.277-8.78zm67.816 98.165c2.161.77 4.222 1.318 6.704 1.865 2.382.436 5.734 1.309 8.216 3.062 4.06 2.526 6.714 5.858 9.119 9.228l.287.405c2.381 3.507 4.323 7.229 6.367 11.172.329.548-.971 1.643-1.402 1.318-2.812-1.968-5.303-4.269-7.785-6.57-.54-.548-1.19-1.095-1.731-1.643-3.031-2.737-5.944-5.475-8.756-7.34-1.402-.992-2.803-1.428-4.644-1.864-.33-.103-.76-.214-1.19-.325-2.483-.548-5.295-1.318-7.887-2.302-1.3-.547-1.512-2.515-.65-4.38.87-1.856 2.38-3.062 3.352-2.626zm-39.042-93.617c-9.163-.212-18.324-.102-26.627 2.388-4.96 1.515-9.6 4.115-13.692 7.476-3.983 3.362-7.435 7.587-10.02 12.143-5.17 9.211-7.225 20.261-5.39 30.667.75 5.208 2.695 10.297 5.28 14.852a43.875 43.875 0 0 0 4.53 6.503c.86.982 1.727 1.956 2.695 2.93 1.078 1.084 1.617 1.516 2.695 2.168 2.055 1.193 4.64 2.387 7.225 3.471 2.585 1.194 5.28 2.278 8.083 3.794l1.078.652 1.078.762c.758.652 1.516 1.304 2.375 2.387.43.542.539.974.859 1.516.32.542.43.974.539 1.406.21.542.32.973.43 1.405l.218 1.304c.539 3.362.43 6.292.32 9.323-.328 5.63-1.297 10.508-2.265 13.98-.101.321-.21.541-.32.863 5.49-6.723 10.88-13.768 17.026-20.27.75-.864 1.617-1.626 2.476-2.49.977-.762 1.835-1.736 2.913-2.388 2.046-1.524 4.312-2.608 6.577-3.472 4.53-1.846 9.27-2.49 13.582-3.793 4.422-1.191 8.413-2.927 11.958-5.738 3.453-2.71 6.686-5.86 9.271-9.433 5.288-7.156 8.193-15.826 8.303-24.607.21-8.782-2.265-17.562-6.686-25.149-4.522-7.477-10.989-13.76-18.753-17.663-3.882-1.956-7.974-3.251-12.285-4.013l-1.617-.322-1.617-.11c-1.078-.11-2.155-.22-3.343-.22zm78.72 36.78a32.475 32.475 0 0 1 11.34 9.623l.328.455c6.165 8.433 8.436 20.144 5.532 30.521-1.841 6.245-5.404 12.045-10.268 16.425-2.491 2.19-5.193 4.055-8.216 5.475-1.511.659-2.921 1.206-3.783 1.754-.54.222-.751.436-.86.547 0 .111-.11.111-.11.222-.11.214-.431 1.207-.972 2.08-.54.872-1.3 1.642-2.271 1.967-.98.222-2.06-.111-2.922-.984-.861-.984-1.73-2.524-1.08-5.039.32-1.206 1.08-2.523 1.942-3.507.32-.436.76-.659 1.08-.984.65-.436 1.19-.761 1.622-.984 1.73-.872 3.022-1.42 4.213-1.967 2.263-1.095 4.323-2.515 6.265-4.269 3.783-3.499 6.704-8.101 8.106-13.029 2.482-8.211 1.19-17.407-3.242-24.96-2.272-3.722-5.193-7.118-8.866-9.633-3.673-2.515-7.996-4.269-12.54-4.816-.54-.112-.86-.548-.86-.984 0-.437.32-.873.97-.873 4.864-.436 10.048.659 14.591 2.96z" id="a"></path></defs><g transform="translate(-60 -257)" fill="none" fill-rule="evenodd"><use fill="#F2F2F2" xlink:href="#a"></use><use fill="#E6F1F7" xlink:href="#a"></use></g></svg> 