<svg height="27" viewBox="0 0 132 27" width="132" xmlns="http://www.w3.org/2000/svg"><g fill="none" fill-rule="evenodd" transform="translate(1 1)"><g fill-rule="nonzero"><path d="m45.9900802 23.54c1.62 0 3.095-.24 4.425-.72s2.395-1.22 3.195-2.22 1.2-2.25 1.2-3.75c0-1.58-.375-2.83-1.125-3.75s-1.725-1.585-2.925-1.995-2.67-.725-4.41-.945c-1.52-.2-2.68-.48-3.48-.84s-1.2-.96-1.2-1.8c0-.7.375-1.305 1.125-1.815s1.825-.765 3.225-.765c1.1 0 2.11.23 3.03.69s1.57 1.01 1.95 1.65l3.15-1.62c-1.38-2.78-4.13-4.17-8.25-4.17-1.34 0-2.635.225-3.885.675s-2.27 1.125-3.06 2.025-1.185 1.97-1.185 3.21c0 2.14.735 3.665 2.205 4.575s3.485 1.505 6.045 1.785c1.54.18 2.735.51 3.585.99s1.275 1.18 1.275 2.1c0 1.06-.46 1.85-1.38 2.37s-2.07.78-3.45.78c-1.36 0-2.57-.28-3.63-.84-1.0332469-.5307261-1.842129-1.4141105-2.28-2.49l-3.3 1.71c.74 1.84 1.88 3.16 3.42 3.96s3.45 1.2 5.73 1.2zm18.66-.09c.92 0 1.85-.23 2.79-.69s1.61-1.1 2.01-1.92l.18 2.16h3.45v-14.79h-3.51l-.12 2.04c-.42-.74-1.06-1.325-1.92-1.755-.8663057-.43150045-1.8222077-.65248856-2.79-.645-1.48 0-2.8.29-3.96.87s-2.075 1.455-2.745 2.625-1.005 2.585-1.005 4.245c0 1.68.325 3.11.975 4.29s1.545 2.07 2.685 2.67 2.46.9 3.96.9zm.42-3.36c-1.26 0-2.305-.405-3.135-1.215s-1.245-1.905-1.245-3.285.415-2.47 1.245-3.27 1.875-1.2 3.135-1.2c.92 0 1.705.21 2.355.63s1.14.975 1.47 1.665.495 1.415.495 2.175c0 .78-.165 1.515-.495 2.205s-.82 1.245-1.47 1.665-1.435.63-2.355.63zm15.69 2.91v-20.97h-3.63v20.97zm9.93.42c1.02 0 1.915-.175 2.685-.525s1.545-.915 2.325-1.695l.24 1.86h3.27v-14.85h-3.63v7.74c0 1.16-.35 2.14-1.05 2.94s-1.61 1.2-2.73 1.2c-1.14 0-2.02-.37-2.64-1.11s-.93-1.69-.93-2.85v-7.92h-3.66v7.95c0 1.48.265 2.77.795 3.87s1.255 1.94 2.175 2.52 1.97.87 3.15.87zm19.1399998-.06c.64 0 1.215-.045 1.725-.135.552212-.1029058 1.090752-.2689977 1.605-.495l-1.02-3.12c-.64.3-1.23.45-1.77.45-.6 0-1.07-.18-1.41-.54s-.51-.88-.51-1.56v-6.51h4.11v-3.15h-4.08v-4.26l-3.66.39v3.87h-2.76v3.15h2.76v6.51c0 1.76.445 3.1 1.335 4.02s2.115 1.38 3.675 1.38zm13.05.09c1.18 0 2.34-.205 3.48-.615s2.1-1.005 2.88-1.785l-2.34-2.31c-.42.42-1.01.755-1.77 1.005-.70538.2407965-1.444691.3673909-2.19.375-1.28 0-2.305-.29-3.075-.87s-1.215-1.34-1.335-2.28h11.55c.04-.64.06-1.1.06-1.38 0-2.52-.675-4.445-2.025-5.775s-3.185-1.995-5.505-1.995c-1.58 0-2.96.33-4.14.99-1.156521.63654153-2.108458 1.5884786-2.745 2.745-.65 1.17-.975 2.505-.975 4.005 0 1.56.325 2.935.975 4.125.641103 1.1812109 1.616964 2.1466346 2.805 2.775 1.22.66 2.67.99 4.35.99zm3.69-9.51h-7.98c.28-.94.785-1.655 1.515-2.145s1.605-.735 2.625-.735c1.08 0 1.96.245 2.64.735s1.08 1.205 1.2 2.145z" fill="#132573"/><path d="m12.5000802 0c2.777 0 5 2.223 5 5v2.5h2.5c2.777 0 5 2.223 5 5s-2.223 5-5 5c-.833 0-1.667.07-2.5.07v2.43c0 2.777-2.223 5.0000404-5 5.0000404-1.3277132.0053026-2.60258953-.5197657-3.54143214-1.4586083-.9388426-.9388426-1.46391088-2.2137189-1.4585679-3.5414321v-2.43l-2.5-.07c-1.3277132.005343-2.60258949-.5197253-3.5414321-1.4585679-.9388426-.9388426-1.46391088-2.2137189-1.45860828-3.5414321 0-2.777 2.29204038-5 5.00004038-5h2.5v-2.5c0-2.708 2.223-5 5.00000004-5zm3.774 17.567h-7.64000004v2.433c0 2.085 1.73600004 3.823 3.82000004 3.823 2.083 0 3.82-1.738 3.82-3.823zm-7.64000004-1.154h7.64000004v-7.687h-7.64000004zm8.86400004-7.78v7.641h2.502c2.085 0 3.823-1.737 3.823-3.82 0-2.084-1.738-3.82-3.823-3.82h-2.502zm-9.99600004 0h-2.502c-2.085 0-3.823 1.737-3.823 3.82 0 2.084 1.738 3.821 3.823 3.821h2.502v-7.64zm1.131-1.13h7.64100004v-2.503c0-2.085-1.737-3.823-3.82-3.823-2.084 0-3.82000004 1.738-3.82000004 3.823v2.502z" fill="#cc7a55"/><path d="m12.5000802 0c2.777 0 5 2.223 5 5v2.5h2.5c2.777 0 5 2.223 5 5s-2.223 5-5 5c-.833 0-1.667.07-2.5.07v2.43c0 2.777-2.223 5.0000404-5 5.0000404-1.3277132.0053026-2.60258953-.5197657-3.54143214-1.4586083-.9388426-.9388426-1.46391088-2.2137189-1.4585679-3.5414321v-2.43l-2.5-.07c-1.3277132.005343-2.60258949-.5197253-3.5414321-1.4585679-.9388426-.9388426-1.46391088-2.2137189-1.45860828-3.5414321 0-2.777 2.29204038-5 5.00004038-5h2.5v-2.5c0-2.708 2.223-5 5.00000004-5zm3.774 17.567h-7.64000004v2.433c0 2.085 1.73600004 3.823 3.82000004 3.823 2.083 0 3.82-1.738 3.82-3.823zm-7.64000004-1.154h7.64000004v-7.687h-7.64000004zm8.86400004-7.78v7.641h2.502c2.085 0 3.823-1.737 3.823-3.82 0-2.084-1.738-3.82-3.823-3.82h-2.502zm-9.99600004 0h-2.502c-2.085 0-3.823 1.737-3.823 3.82 0 2.084 1.738 3.821 3.823 3.821h2.502v-7.64zm1.131-1.13h7.64100004v-2.503c0-2.085-1.737-3.823-3.82-3.823-2.084 0-3.82000004 1.738-3.82000004 3.823v2.502z" fill="#eababf"/><path d="m12.5000802 0c2.777 0 5 2.223 5 5v2.5h2.5c2.777 0 5 2.223 5 5s-2.223 5-5 5c-.833 0-1.667.07-2.5.07v2.43c0 2.777-2.223 5.0000404-5 5.0000404-1.3277132.0053026-2.60258953-.5197657-3.54143214-1.4586083-.9388426-.9388426-1.46391088-2.2137189-1.4585679-3.5414321v-2.43l-2.5-.07c-1.3277132.005343-2.60258949-.5197253-3.5414321-1.4585679-.9388426-.9388426-1.46391088-2.2137189-1.45860828-3.5414321 0-2.777 2.29204038-5 5.00004038-5h2.5v-2.5c0-2.708 2.223-5 5.00000004-5zm3.774 17.567h-7.64000004v2.433c0 2.085 1.73600004 3.823 3.82000004 3.823 2.083 0 3.82-1.738 3.82-3.823zm-7.64000004-1.154h7.64000004v-7.687h-7.64000004zm8.86400004-7.78v7.641h2.502c2.085 0 3.823-1.737 3.823-3.82 0-2.084-1.738-3.82-3.823-3.82h-2.502zm-9.99600004 0h-2.502c-2.085 0-3.823 1.737-3.823 3.82 0 2.084 1.738 3.821 3.823 3.821h2.502v-7.64zm1.131-1.13h7.64100004v-2.503c0-2.085-1.737-3.823-3.82-3.823-2.084 0-3.82000004 1.738-3.82000004 3.823v2.502z" fill="#eeaeb5"/><path d="m12.5000802 0c2.777 0 5 2.223 5 5v2.5h2.5c2.777 0 5 2.223 5 5s-2.223 5-5 5c-.833 0-1.667.07-2.5.07v2.43c0 2.777-2.223 5.0000404-5 5.0000404-1.3277132.0053026-2.60258953-.5197657-3.54143214-1.4586083-.9388426-.9388426-1.46391088-2.2137189-1.4585679-3.5414321v-2.43l-2.5-.07c-1.3277132.005343-2.60258949-.5197253-3.5414321-1.4585679-.9388426-.9388426-1.46391088-2.2137189-1.45860828-3.5414321 0-2.777 2.29204038-5 5.00004038-5h2.5v-2.5c0-2.708 2.223-5 5.00000004-5zm3.774 17.567h-7.64000004v2.433c0 2.085 1.73600004 3.823 3.82000004 3.823 2.083 0 3.82-1.738 3.82-3.823zm-7.64000004-1.154h7.64000004v-7.687h-7.64000004zm8.86400004-7.78v7.641h2.502c2.085 0 3.823-1.737 3.823-3.82 0-2.084-1.738-3.82-3.823-3.82h-2.502zm-9.99600004 0h-2.502c-2.085 0-3.823 1.737-3.823 3.82 0 2.084 1.738 3.821 3.823 3.821h2.502v-7.64zm1.131-1.13h7.64100004v-2.503c0-2.085-1.737-3.823-3.82-3.823-2.084 0-3.82000004 1.738-3.82000004 3.823v2.502z" fill="#ff9f9f" stroke="#eeaeb5"/></g><path d="m12.5000802 0c2.777 0 5 2.223 5 5v2.5h2.5c2.777 0 5 2.223 5 5s-2.223 5-5 5c-.833 0-1.667.07-2.5.07v2.43c0 2.777-2.223 5.0000404-5 5.0000404-1.3277132.0053026-2.60258953-.5197657-3.54143214-1.4586083-.9388426-.9388426-1.46391088-2.2137189-1.4585679-3.5414321v-2.43l-2.5-.07c-1.3277132.005343-2.60258949-.5197253-3.5414321-1.4585679-.9388426-.9388426-1.46391088-2.2137189-1.45860828-3.5414321 0-2.777 2.29204038-5 5.00004038-5h2.5v-2.5c0-2.708 2.223-5 5.00000004-5zm3.774 17.567h-7.64000004v2.433c0 2.085 1.73600004 3.823 3.82000004 3.823 2.083 0 3.82-1.738 3.82-3.823zm-7.64000004-1.154h7.64000004v-7.687h-7.64000004zm8.86400004-7.78v7.641h2.502c2.085 0 3.823-1.737 3.823-3.82 0-2.084-1.738-3.82-3.823-3.82h-2.502zm-9.99600004 0h-2.502c-2.085 0-3.823 1.737-3.823 3.82 0 2.084 1.738 3.821 3.823 3.821h2.502v-7.64zm1.131-1.13h7.64100004v-2.503c0-2.085-1.737-3.823-3.82-3.823-2.084 0-3.82000004 1.738-3.82000004 3.823v2.502z" stroke="#ff8d8d"/></g></svg>