<?xml version="1.0" encoding="UTF-8"?> <svg xmlns="http://www.w3.org/2000/svg" width="205" height="146" viewBox="0 0 205 146"><g fill="none" fill-rule="evenodd"><path fill="none" d="M-22-20h248v186H-22z"></path><path d="M86.697 61.49c-2.208 1.59-1.856 4.719-1.192 6.992.98 3.348 2.929 6.447 5.153 9.118 3.946 4.74 10.644 10.06 16.818 5.9 5.499-3.705 8.967-11.182 10.164-17.48.37-1.945.863-4.845-.875-6.308-2.57-2.163-7.104-1.77-10.207-1.491-2.043.183-4.015.806-6.034.513-4.692-.679-9.913-.064-13.827 2.755" fill="#FF9F9F"></path><g fill="#132573"><path d="M182.2 86.279c-4.472 5.662-12.075 6.556-18.828 6.5-4.056-.033-8.119-.337-12.094-1.162a52.943 52.943 0 0 1-6.343-1.741c-1.368-.468-3.405-.702-3.987-2.165-1.536-3.86-.406-8.7.227-12.617.321-1.992.563-3.997.876-5.991.2-1.276.295-2.688.831-3.881.628-1.399 1.42-1.12 2.747-.733 1.828.532 3.705.754 5.584 1.04 4.587.7 8.589 2.109 12.757 4.107 4.122 1.975 8.12 3.925 11.797 6.672a29.349 29.349 0 0 1 4.963 4.677c1.155 1.37 2.88 3.51 1.47 5.294m-19.55 25.149c-.035.61-7.044-1.231-7.967-1.438-6.052-1.354-12.224-2.897-17.938-5.345-5.333-2.285-10.032-4.899-14.229-8.958-1.956-1.892-3.715-3.885-5.399-6.007-.844-1.063-1.997-.94-2.938-1.84-.846-.81-1.495-1.442-1.23-2.653 2.114.557 6.02 4.053 8.212 2.287 1.25-1.006-.483-2.057-1.283-2.64-1.505-1.097-2.79-2.45-3.987-3.87 2.053.398 3.965 1.165 5.751 2.233.794.475 3.515 2.196 4.148.555.39-1.01-1.455-2.278-2.03-2.837-1.412-1.372-2.937-2.973-3.687-4.817 1.854-.43 3.602 1 4.864 2.165 1.402 1.294 3.12 2.651 4.295 4.141.607.769.739 1.677 1.212 2.506.533.932 1.386 1.732 2.2 2.422 1.57 1.33 3.406 2.309 5.29 3.119 4.307 1.85 8.923 3.16 13.514 4.079 2.252.45 4.448.658 6.734.734 1.776.06 2.562.59 3.24 2.224 1.836 4.42 1.503 9.282 1.229 13.94m-52.714-33.68c-1.026.96-2.361 1.561-3.435 2.483-.944.812-2.034 1.677-3.088 2.333-1.126.7-1.967.21-2.98-.424-1.19-.744-2.558-1.045-3.783-1.71-4.237-2.301-9.42-7.94-8.629-13.118.335-2.194 1.472-4.353 3.536-5.349 1.875-.904 4.6-1.406 6.606-.65 1.131.426 1.941 1.368 2.666 2.293.845 1.079 1.169.909 2.03-.132 1.54-1.861 4.08-3.494 6.591-3.455a9.002 9.002 0 0 1 3.612.8c.153.07.237.282.39.354.188.088.497-.095.627-.013.33.208.658.858.848 1.187.762 1.323 2.133 3.917.75 5.03 0 .001.062 1.508.043 1.68-.097.898-.408 1.64-.81 2.462-1.204 2.47-2.982 4.37-4.974 6.23m2.048 20.89c-.973.302-2.02-2.741-1.087-3.227.89-.463 1.968 2.954 1.087 3.227M96.705 95c-.338 1.15-.48 2.454-1.304 3.39-.754-.894-.829-2.542-.097-3.46.418-.525 1.769-1.186 1.4.07m31.135-20.14c-.006.03 1.17.59.597 1.205-.784.838-.676-.794-.597-1.205m4.86-9.368c-.013 1.163-2.478.882-2.46-.287.02-1.439 2.475-.945 2.46.287m-2.942-9.713c.244-1.065 4.532-2.545 4.415-.69-.059.93-4.933 2.952-4.415.69M85.796 91.866c-.481.576-1.164.804-1.74 1.246-.604.464-1.036 1.066-1.564 1.61-1.449 1.496-3.194 2.725-4.757 4.099-2.874 2.525-5.628 5.24-8.815 7.382-5.695 3.826-12.3 5.92-18.856 7.752-.543.152-2.107.765-2.645.308-.58-.492-.285-2.224-.258-2.88.109-2.684.423-5.401.389-8.083-.014-1.101-.338-2.667.238-3.674.643-1.126 2.438-1.455 3.548-1.879 3.375-1.287 6.626-3.458 9.607-5.47 3.665-2.472 7.366-4.986 11.137-7.294 3.694-2.26 7.77-3.775 11.891-5.066.191.4-1.775 1.689-2 1.87-1.078.866-2.251 1.764-3.052 2.907-.566.81-1.148 2.641.417 2.688.759.023 1.88-.709 2.567-.946a19.73 19.73 0 0 1 3.495-.844c-1.021 1.122-4.484 3.139-3.854 5.006.611 1.811 4.147-.303 5.364-.303-.2.632-.701 1.077-1.112 1.57m-41.768 5.057c-2.264.794-4.585 1.246-6.922 1.76-2.227.488-4.286.857-6.567.57-3.15-.395-6.636-1.697-7.035-5.269-.474-4.232 2.521-8.121 5.093-11.158 3.13-3.694 6.644-6.997 10.453-9.987a77.202 77.202 0 0 1 12.213-7.846c3.273-1.691 6.97-2.719 10.43-3.988.659-.241 2.48-1.09 3.096-.387.497.569-.18 1.516-.407 2.044-.442 1.03-.503 2.066-.617 3.172-.51 4.936-1.125 9.871-1.407 14.829-.08 1.381-.218 2.827-.137 4.21.045.765.444 1.74.178 2.488-.511 1.437-2.852 2.389-4.093 3.03-2.22 1.15-4.572 2.008-6.816 3.107-2.464 1.207-4.864 2.512-7.462 3.425m31.4-32.076c.622-.085 1.553-.254 2.107.148.723.524.533 1.253-.134 1.633-.527.3-1.76.383-2.281.11-.887-.464-.737-1.747.309-1.89m3.442 11.43c-.503.835-2.338 1.382-2.178-.175.137-1.334 3.103-1.362 2.178.175m-.682-23.517c.808.312 2.273.58 2.512 1.616.223.964-.693.9-1.354.635-.544-.218-2.966-2.268-1.158-2.251m126.492 36.8c-.471-1.831-.112-3.859-.372-5.735-.253-1.818-.707-3.489-1.359-5.202-1.443-3.794-3.096-7.209-5.436-10.538-4.406-6.27-9.518-11.792-15.69-16.372-6.094-4.52-12.842-8.195-19.99-10.77-7.58-2.73-15.21-3.681-23.204-4.205-2.387-.156-4.772-.341-7.146-.642-1.735-.22-3.91-.491-5.625.04-1.077.333-1.68 1.27-.505 1.886.832.436 1.922.489 2.84.605-1.11 3.52-2.916 7.053-5.78 9.477-2.795 2.367-6.535 3.178-10.063 3.778-1.913.326-4.055.577-5.997.437-1.228-.089-2.187-.656-2.682.606-.344.878-.507 1.84-.96.516-.537-1.566-.8-1.556-2.468-2-3.411-.91-7.322-1.74-10.298-3.707-3.087-2.04-4.16-5.342-5.884-8.416-.427-.76-1.713-2.297-1.056-3.168.601-.796 2.555-.717 3.45-.8.944-.087 1.894-.091 2.841-.128.55-.021 1.653.203 1.432-.615-.333-1.233-3.902-1.075-4.788-1.095-1.649-.037-3.32.001-4.96.182-8.131.898-16.336 2.557-24.204 4.77C41.51 42.758 26.725 50.67 15.583 62.066 4.89 73.006 1.5 91.212 8.075 105.181c3.417 7.26 10.832 10.242 18.02 12.65 3.79 1.27 7.806 2.264 11.836 2.024 1.934-.115 3.769-.634 5.655-1.026.823-.17 1.759-.443 2.604-.374.64.052 1.254.638 1.854.326.426-.22.611-.855 1.131-1.125.625-.325 1.383-.442 2.058-.605 1.875-.455 3.691-1.192 5.525-1.797 1.896-.625 3.685-1.43 5.504-2.245.918-.41 3.044-2.083 3.642-.86.273.557.157 1.633.224 2.218.116 1.023.253 2.044.402 3.063.33 2.243.724 4.477 1.129 6.708.73 4.026 1.67 7.88 3.241 11.666 1.256 3.023 2.358 6.45 4.688 8.856 1.018 1.05 2.406 1.522 3.866 1.192 1.66-.375 2.486-1.88 3.494-3.097 2.217-2.678 5.877-4.73 9.258-5.468 4.139-.904 8.17.419 12.122 1.543 4.179 1.19 8.433 2.322 12.535 3.752 3.823 1.332 7.95 3.3 12.096 3.129 3.615-.15 6.992-3.086 9.599-5.324 2.618-2.248 5.892-5.54 9.658-5.275 1.87.132 3.573 1.032 5.394 1.398 2 .402 4.127.459 6.16.608 2.523.186 8.17-.47 9.103-3.5.138-.45.14-1.376-.456-1.555-.547-.166-.826.473-1.345.443-1.054-.059-1.878-1.894-2.458-2.604-2.338-2.868-5.545-5.008-8.168-7.599-2.963-2.925-5.492-6.47-7.724-9.965 1.01-.262 2.098.173 3.075.38 1.186.25 2.343.554 3.512.875 1.29.354 2.597.598 3.905.868.976.2 2.271.261 3.152.75.77.427 1.199.885 2.153 1.008.971.126 1.968.02 2.943.014 2.639-.018 5.271-.067 7.897-.345 9.278-.984 19.113-4.9 24.692-12.674 1.518-2.114 2.74-4.456 3.513-6.942.602-1.94 1.642-4.674 1.117-6.712"></path><path d="M117.66.002c2.438.034 4.724.756 6.996 1.576 1.998.722 4.127 1.389 5.743 2.829 2.906 2.59 3.663 6.878 4.138 10.547.593 4.578-1.38 8.419-3.042 12.56-1.553 3.874-4.405 7.012-7.795 9.403-1.776 1.253-3.738 2.01-5.792 2.672-2.086.673-4.106 1.575-6.338 1.572-3.389-.005-7.728-1.612-9.171-4.944-.658-1.517-.018-1.79 1.298-.965 1.908 1.196 3.747 2.487 5.977 3.018 4.324 1.03 9.503-.565 13.295-2.67 3.79-2.104 6.335-5.264 8.035-9.2 1.716-3.97 2.383-7.882 1.72-12.162-.56-3.627-1.675-6.94-4.95-8.91-7.07-4.25-16.596-3.907-22.884 1.616a90.727 90.727 0 0 1-2.603 2.217c-.565.46-1.23 1.011-1.148 1.806.07.68 1.524 3.305-.227 2.499-1.419-.654-2.19-1.932-3.91-2.09-1.83-.168-4.012 1.235-4.56 3-.522 1.685.41 3.99 1.868 4.957.903.598 1.897.506 2.922.482.51-.012 1.926-.177 2.263.36.596.95-1.507 1.948-2.185 2.158-1.651.511-3.603-.09-4.552-1.561-.965-1.496-1.625-3.227-1.758-5.008-.127-1.707.26-3.435 1.27-4.837 1.073-1.49 3.26-3.161 5.222-2.644.851.225 1.535 1.103 2.37 1.27.528.105.306.18.743-.21.277-.248.539-.704.795-.998 1.472-1.686 2.927-3.486 4.729-4.836 3.23-2.42 7.524-3.564 11.531-3.507zm-8.933 33.438c.382-.894 1.084.7 1.292.967.41.528 1.377.938 1.335 1.716-.069 1.284-1.823 1.046-2.408.376-.665-.763-.596-2.176-.219-3.059zm12.46-6.08c.947 1.471-.206 3.06-.954 4.362-.716 1.246-1.38 2.653-2.212 3.824-1.383 1.944-4.39-.159-4.48-2.157-.068-1.529 1.018-.863 1.714-.292.718.588 1.057.735 1.81.092 1.511-1.293 2.19-3.455 3.236-5.092.207-.325.583-.52.887-.737zm2.698.473c.244.712-.268 2.597 1.155 2.409.786-.104.954-1.23 1.367-1.722 1.39-1.652.964 1.473.601 2.255-.8 1.723-3.041 2.911-4.153.724-.413-.813-.411-1.84-.201-2.714.114-.476.78-2.266 1.231-.952zm-12.688-3.37c-.126.83-.908 2.484.046 3.078.84.523 2.304-.612 2.95-1.086.673-.493 2.196-1.907 2.256-.148.03.897-.869 1.973-1.51 2.49-1.37 1.1-4.214 2.089-5.223.015-.55-1.13-.249-2.737.114-3.875.295-.922 1.67-2.48 1.367-.474zm17.955-4.546c.558.645 1.878 2.092 1.16 3.011-.84 1.075-2.203-.897-2.741-1.446-.485-.494-1.504-1.902-1.07-2.649.72-1.236 2.162.517 2.651 1.084zm-8.756-2.78c1.82 1.183-.574 2.036-1.61 2.142-1.256.128-2.861.212-4.014-.402-1.635-.872-1.09-2.188.494-2.503 1.625-.323 3.716-.157 5.13.762zm-23.675-3.77c1.34.26 2.869.599 3.325 2.056.471 1.506-.206 2.005-1.573 1.666-1.266-.313-3.156-.63-3.872-1.863-.855-1.474.878-2.1 2.12-1.859zM23.034 45.725c-.449 1.448-2.724 2.41-3.858 3.29-3.968 3.08-7.845 6.287-11.432 9.803-1.861 1.825-3.27 4.032-4.885 6.062-.394.495-1.092 1.605-1.864 1.5-.848-.114-1.02-1.57-.992-2.207.092-2.17 2.078-4.265 3.494-5.76a77.68 77.68 0 0 1 5.035-4.847c1.915-1.684 3.993-3.131 6.11-4.549 2.08-1.391 4.074-3 6.236-4.26 1.02-.593 2.71-.82 2.156.968zm138.691-13.756c1.656.052 3.272.594 4.834 1.097 3.436 1.108 6.708 2.644 9.934 4.25a96.43 96.43 0 0 1 16.091 10.09c1.043.808 2.113 1.464 3.247 2.125.726.424 1.761.941 2.04 1.805.711 2.196-2.875-.008-3.384-.323l-.715-.443c-10.618-6.568-21.223-12.948-33.232-16.714-.64-.201-.839-.77-.503-1.335.364-.612 1.073-.571 1.688-.552zM22.551 36.564c-.077.669-.835.82-1.347 1.035-1.91.8-3.866 1.483-5.77 2.297-3.535 1.51-6.78 3.702-10.469 4.848-.843.262-.967-.587-.742-1.165.252-.645 1.007-1.097 1.553-1.47 1.575-1.077 3.361-1.852 5.11-2.6 1.735-.742 3.52-1.303 5.298-1.925 1.653-.579 3.57-1.655 5.345-1.735l.078-.003c.565-.029 1.034-.067.944.718zM164.74 26.408c-1.688-.474-.093-1.54.91-1.466 1.12.084 2.202.612 3.263.93 3.246.972 6.255 2.036 9.287 3.546.452.225 2.444 1.294 1.126 1.767-.913.327-3.046-1.079-3.83-1.416-3.446-1.483-7.148-2.348-10.756-3.36z"></path><path d="M97.432 29.861c.21-.618 2.821-7.373 1.8-7.577-1.083-.216-2.53 3.703-2.844 4.412-1.159 2.615-1.846 5.421-2.384 8.227-.374 1.953-.703 3.954-.572 5.951.1 1.535.736 1.768 1.782 2.708 0-4.662.71-9.308 2.218-13.72"></path></g></g></svg> 