<?xml version="1.0" encoding="UTF-8"?> <svg xmlns="http://www.w3.org/2000/svg" width="243" height="187" viewBox="0 0 243 187"><g fill="none" fill-rule="evenodd"><path fill="none" d="M-22-14h286.667v215H-22z"></path><path d="M75.467 85.005l2.64 26.553 14.372-8.17V128.852c0 .469-.28 2.08 0 2.486.237.344 1.993.354 2.408.412 2.709.378 5.424.714 8.143 1.013 7.167.789 14.837 1.918 22.03 1.012 6.254-.787 12.316-3.003 18.03-5.581a99.906 99.906 0 0 0 5.924-2.91c.412-.219 1.906-.737 2.13-1.184.182-.365-.247-1.647-.304-2.03l-.724-4.852-3.372-22.584 6.37 6.336c.499.497 1.446 1.906 2.137 2.126.506.161 1.76-.338 2.26-.434l10.82-2.077c.84-.161 2.734-.155 3.442-.66.381-.273.4-.827.534-1.353l2.639-10.299c.158-.618 1.042-2.568.818-3.19-.081-.224-.471-.376-.71-.522l-16.33-9.936-8.946-5.443c-1.249-.76-2.783-2.13-4.199-2.555-.878-.264-2.156-.066-3.066-.092l-5.542-.158c-.29-.008-1.303-.213-1.546-.043-.203.14-.119.338-.185.675-.163.822-.164 1.709-.244 2.543-.064.67.063 1.899-.24 2.505-.193.388.052.233-.21.42-.311.224-1.307.152-1.678.195l-5.431.628c-2.153.25-4.33.717-6.492.501-3.278-.326-6.813-.31-10.033-.998-.836-.179-1.138-.648-1.783-1.29-1.26-1.253-2.506-2.52-3.78-3.76-.624-.608-.357-.505-1-.274-.806.288-1.624.985-2.354 1.428l-8.389 5.09-17.071 10.36-1.068.648" fill="#FF9F9F"></path><g fill="#132573"><path d="M239.5 85.946c-3.518 13.378-10.592 27.965-24.845 32.228-3.465 1.037-6.836 1.82-10.435 1.425-.343-.038-.63.01-.955.017-.584.01-.08.221-.735.019-.51-.158-.988-.553-1.52-.728-1.414-.463-2.922-.553-4.36-.927a112.453 112.453 0 0 1-10.593-3.327c-1.611-.597-3.092-1.43-4.608-2.23-1.54-.813-3.173-1.319-4.732-2.065-1.23-.59-3.34-1.359-4.206-2.465-.923-1.18.354-3.692.719-4.946 1.241-4.269 2.72-8.474 3.653-12.827 3.221 3.74 7.693 6.056 12.322 7.55a45.877 45.877 0 0 0 7.707 1.763c2.372.333 4.931.736 7.308.263 1.795-.357 4.048-1.183 5.33-2.555.457-.49 1.006-1.388.75-2.1-.326-.903-1.273-.478-1.787-1.152-.446-.587-.376-1.96-.519-2.676a27.982 27.982 0 0 0-1.02-3.715c-.82-2.365-1.842-4.735-2.087-7.252-.213-2.184.283-4.249 1.37-6.144.515-.896 1.805-3.332 3.065-3.231 1.383.11-.482 5.95-.543 7.141-.242 4.722.39 9.753 2.809 13.892.926 1.585 2.265 3.43 4.243 3.626 2.094.208 3.784-1.443 4.78-3.113 2.433-4.075 1.207-9.666-.025-13.937-1.512-5.24-5.456-8.852-7.95-13.558 3.724.375 5.718 2.744 7.628 5.75 2.104 3.31 3.742 7.284 4.55 11.135.408 1.946.126 3.9.129 5.864 0 .653 0 3.061 1.063 2.966 1.135-.101 1.525-2.817 1.692-3.645.382-1.9.796-3.802 1.129-5.711.588-3.38.85-6.84 1.554-10.195.119-.568.356-2.141 1.204-1.717.653.328.548 2.762.572 3.327.059 1.395.142 2.789.153 4.184.016 2.069-.395 4.21-.193 6.266.132 1.343.851 2.827 1.744 1.016.884-1.797 1.065-4.037 1.558-5.97.518-2.028 1.053-4.087 2.153-5.888.305-.5.633-1.294 1.311-1.059.493.172.856 1.341 1.009 1.754.687 1.866.57 3.94.527 5.893-.053 2.394-.31 4.734-.92 7.054zm-68.591 3.472c-.188-.06-.987-.137-1.185-.154-.232-.02.032-.449-.53-.327.108.27.3.449.578.54-.845.285-1.468-.421-2.045-.513-.553-.087-.576 0-1.122.585-.59-.722-.48-.272-.966-.271-.176 0-.184.268-.472.235-.25-.028-.277-.41-.426-.454-.806-.245-1.635.985-2.55-.082-.221 1.11-2.759-.28-3.736-.085-1.023.204-.582.572-1.409-.057-.788-.598-.568-.2-1.485.29.021-.012-.518.353-.468.359-.634-.075-.598-.732-1.402-.697-.85.037-1.214.705-1.993-.117-.17.615-.204.35-.603.505a.575.575 0 0 1-.576-.173.418.418 0 0 1-.33.311c-.434.04-1.25.1-1.644-.11-.593-.314-.116-.435-.527-.789-.184.976-.588.768-1.439.86-.649.069-.792-.13-1.412-.228-.61-.095-1.4.142-1.996.244-.245.042-.575.213-.825.153-.226-.054-.322-.23-.457-.276-.164-.055-.129-.198-.412-.268-.194-.047-.543.136-.738.167-1.39.226-2.723.229-4.048-.319.653 1.149-1.525.529-1.913.053-.485.762-1.072.224-2.05.284-.942.057-2.359.346-2.74-.83-.075.24-.61.933-.823 1.038-.617.307-.69-.146-1.265-.331-.78-.252-.618.226-1.102.323-.818.164-1.26-.413-1.983-.72-.03.477-.046.77-.458 1.067-.364-1.33-1.665.109-1.441-1.668-.495.323-1.192.57-1.333 1.224.828-.228.089.314.054.331-.11.058-.479-.462-.565-.535l-.07.735c-.33-.165-.639-.46-.906-.609-.242-.133.104-.41-.303-.43-.215-.01-.439.456-.664.495-.345.06-.18-.434-.324-.418-.22.026-.577.347-.743.341-.545-.02-.176-.274-.592-.39-.743-.209-.695.278-1.229.454-1.222.401-1.099-1.447-2.342-.214-.297.295-.488.75-.896.725-.843-.053-.547-1.055-.376-1.545.178.087-3.082 1.764-3.056 1.699.02-.403.533-.713.075-1.07-.374.805-.768.82-1.632.97-.42.072-.503.17-.952-.006-.286-.11-.479-.568-.763-.593.038.003-.484.401-.564.437-.471.213-.77-.028-1.228.06-.39.074-.544.407-.933.316-.518-.122-.214-.742-.927-.57-.244.06-.39.53-.775.628-.6.152-1.334-.131-1.967.017a7.087 7.087 0 0 1-1.315.191c-.355.02-.209-.256-.862.07l-.277-.7-.982.884a4.786 4.786 0 0 1-.118-.802c-.488.49-1.102.573-1.758.617-.71.048-1.24.203-1.93.333-.22.04-.782.106-.961.03.026.011-.337-.14-.227-.111a4.6 4.6 0 0 1-.132-.293c-.06-.276-.259-.288-.594-.037-.173-.026-.51-.254-.682-.198-.446.145-.385.491-.83.44-.288-.033-.435-.46-.735-.488-.459-.045-.857.47-1.27.583 1.257-.342-1.632-.077-.734-.054-.589-.015-1.2-.044-1.745.22-.3-.206.064-.62-.24-.79-.275-.155-.296.253-.328.262.173-.049.087.298-.087.36-.543.193-.976-.297-1.004-.782-.461.694-.59.415-1.268.458-.668.042-1.244.393-1.912.387-1.322-.013-2.22-.473-2.66-1.656 1.408.172 2.826-.735 4.203-.521.453.07.735.41 1.132.35.489-.074.83-.608 1.456-.666 1.382-.126 2.745-.003 4.136-.215 1.662-.254 3.397-.404 5.075-.28 1.296.095 2.346-.402 3.661-.497 1.7-.124 3.414-.146 5.118-.236 1.75-.092 3.632-.372 5.377-.282.545.028 1.014.082 1.555.049.228-.014.445-.17.685-.146.312.03.446.35.77.34.551-.02 1.14-.474 1.795-.487 1.076-.02 2.148-.017 3.228-.079.95-.054 1.968-.276 2.914-.264.667.008.832.578 1.22.636.7.106 4.237-1.91 4.542-.1 1.842-1.263 4.311-.194 6.36-.431 2.634-.305 5.315-.033 7.966-.142 2.697-.11 5.473-.008 8.16.247 1.112.105 2.188.204 3.304.14.497-.028 1.072-.156 1.57-.04.12.027 1.043.672.928.69.504-.452.163-.519 1.05-.542.683-.018 1.33.13 2.01.17 1.22.073 2.448-.097 3.666-.06 1.016.032 2.01.182 3.031.19 1.101.007 2.402.038 3.199.928l-.253-.838c1.23.096 2.444.536 3.687.33-.314.302-.634.549-.754.99.67-.084 1.124-.553 1.83-.557.592-.003.716.295 1.341-.09l.231 1.414c.867-.204.298-.852.361-1.435.705.212 1.301-.031 1.023.983-.214.783-1.189 1.168-1.922.93zm-1.218 8.715c-.302.85-2.915.364-3.533.275-.799-.116-1.712-.3-2.447-.391a1.285 1.285 0 0 0-.317-.3.757.757 0 0 1-.351.274c-.338.074-.34.424-.783.346-.02.517.338.223.612.41-.691.465-.375-.07-.763-.06a.377.377 0 0 0-.402-.162c-.218.057-.42.15-.604.282-.173.182-.321.192-.445.028a.769.769 0 0 0-.432-.22c-.681.11-.872.414-1.64.364-1.095-.07-2.281.219-3.36.066-.669-.094-1.786-1.147-2.09-.12-.462-.761-1.199-1.279-1.641-2.056 2.062-.12 4.123-.261 6.187-.336 1.807-.065 3.783.138 5.472.053 1.581-.08 3.256-.255 4.871-.4 1.712-.153 2.279.224 1.666 1.947zm-53.793.126c.75.207 1.462-.264 2.188-.115.24.05.737.487.847.496.2.016.787-.414 1.04-.472 1.594-.363 3.526-.324 5.12-.101.846.118.975-.27 1.713-.457.766-.196 1.856-.045 2.663-.1 1.9-.127 3.797-.036 5.683-.175 1.937-.143 3.864-.22 5.8-.32 1.32-.068 4.492-.822 5.585.159.902.81-.26 2.214-1.162 2.535-.675.239-.998-.265-1.499-.217-.57.054-.371.73-.88.103-.315.623-2.298.358-2.866.399-1.238.09-2.286.338-3.129-.819l.172 1.001c-1.118-.598-2.317-.407-3.288-.198-.48.103-1.954.817-2.475.51-.358-.212.273-.575-.331-.755-.317-.095-.863.432-1.25.405-1.07-.073-.767-.795-1.819.123-.356-.308-.474-.833-.428-1.283-.764.653-.7 1.74-2.065 1.541-.51-.074-.603-.594-.868-.69-.566-.204-.63.164-1.12.454-.184.11-.41.287-.628.309-.447.044-.518-.161-.579-.155-.297.033-.672.185-1.025.077-.317-.098-.41-.658-.968-.527-.534.126-.538.49-.441 1.033-.527-.054-.846-.348-1.24-.667-.398.93-1.235.16-1.699.944-.603-.721-.99-.523-1.74-1.228.038.294.074.589.111.883-.584-.113-.844-.526-1.343.02-.483-.902-1.95.384-2.704-.488-.336 1.104-2.558.84-3.496.86-.832.016-1.448-.052-2.26.142-.718.17-1.714.348-2.39.27-.44-.051-.923-.133-1.472-.073-.793.086-1.478.497-2.299.303-1.236-.293-1.994-1.92-.617-2.634.943-.489 2.64-.308 3.677-.398 1.719-.15 3.645-.463 5.366-.32 1.342.11 2.566-.21 3.935-.346 1.032-.102 2.722-.285 3.394.738.258-.299.232-.921.787-.767zm-18.814 14.013c-.185-.921 7.673-1.428 8.453-1.488a95.536 95.536 0 0 1 4.92-.259c1.35-.034 2.609.224 3.958.017 1.26-.194 2.782-.591 3.878.303.162-1.223 4.892-.627 5.791-.624 3.917.014 7.666.023 11.455-.22 2.165-.138 4.464-.325 6.63-.217.977.05 1.763.31 2.735.084.633-.148 1.316-.455 1.922-.021.71.508 1.012 2.234.524 2.955-.356.525-.67.466-1.24.376-.873-.14-1.523-.342-2.414.014.145-.058-.597.107-.535.103-1.01.075-2.394.782-3.264-.033.349.062.855-.561.416-.613-.33-.038-.54.316-.797.435-.88.406-1.331.279-1.857-.573-1.06.92-1.175.665-1.64-.467-.359.277-.436.93-.718 1.145-.042.032.131.43-.072.413-.19-.015-.251-.325-.397-.35-.092-.016-.14-.288-.23-.304-.096-.018-.195.155-.304.15-.292-.013-1.125.608-.826-.264-.442.563-.632.204-.791-.308l-1.53 1.164c-.237-.66-.645-.48-1.158-.25.155-.458.058-.892-.33-.573-.225.185-.376.77-.606 1.02-.93-.945-1.27-.686-2.555-.563-.491.047-1.101.138-1.54-.16-.385-.26-.603-1.219-1.263-.444.147-.173-.083 1.15-.124 1.36a2.878 2.878 0 0 1-.74-.724c-.38.752-1.376.077-2.192.23-1.285.243-2.61.65-3.746-.307-.08.309-1.01.703-1.01.715.054-.548.4-.355-.305-.46-.13-.018-.277.215-.4.24-.42.088-.91.005-1.333-.007-1.76-.05-3.372.34-5.11.482-.587.047-1.282.141-1.832-.08-.567-.229-.552-.487-1.125-.34.181-.047-.358.521-.33.5-.076.056-.398-.221-.512-.2l-.1.363-.415-.051c-.378.05-.719-.333-1.074-.346.065.003-.959.385-.912.408-.715-.357-.51-.254-1.416-.036-.857.205-1.71.157-2.59.285-2.558.372-1.034-.912-1.349-2.48zm-2.259 12.81c-.48-.683.799-.92 1.208-.98.672-.099 1.564.099 2.012-.008.682-.163 1.34-.55 2.108-.656.97-.133 1.946-.154 2.92-.238.324-.027.725-.14 1.04-.12.47.028.665.277 1.044.279.646.003 1.443-.406 2.105-.48a40.367 40.367 0 0 1 2.556-.184c1.795-.09 3.571-.053 5.365-.055.819 0 2.998-.851 3.406.102.567-.722 2.022-.624 2.833-.645 1.428-.037 2.842-.175 4.27-.241 1.222-.057 2.588.205 3.788.021.662-.1.88-.313 1.63-.217.558.07 1.408-.224 1.886-.094-.025-.007.597.38.403.392.214-.014.201.135.437.069.31-.088.167-.477.808-.616 1-.216 2.334.034 3.373-.021a52.133 52.133 0 0 1 3.024-.073c.464.002 1.039-.109 1.49-.018.222.045.693.334.88.305.532-.083.803-.453 1.522-.43.815.026 1.548.014 2.358-.048.785-.06.91-.172 1.3.482.385.648.491 1.493-.218 1.934.46-.03 1.028.588.485.93-.336.211-1.009-.266-1.41-.231-.496.042-.884.304-1.423.32-.566.018-1.141.16-1.7.172-.581.011-1.021-.25-1.573-.139-.485.098-.537.497-1.121.147-.29-.175-.34-.82-.736-.825-.531-.008-.32.679-.625.997-.082-.983-.84.644-1.14-.55-.278.397-1.306.951-1.804.633-.454-.29-.303-.947-.492-1.42-.315.85-1.16 1.732-1.083.185-.41.505-1.519.425-1.241 1.31-.334-.006-.413-.484-.695-.52-.242-.03-.435.156-.472.153.133.011-.398.188-.406.19.36-.073-1.037-.198-.799-.196-.324-.002-.72.263-1.099.262-.345 0-.688-.137-1.028-.175-.883-.102-.7.093-1.254.37-.205.103-.257.278-.548.256-.215-.016-.296-.298-.32-.3-.303-.03-.08-.132-.55-.085l-.16.278c-.17.218-.39.272-.66.164-.696.149-3.001.796-2.775-.402-.354.172-.707.345-1.06.519-.152-.967-2.071.315-2.5.38-.55.082-.6-.13-1.12-.242-.094-.02-.282.29-.502.245-.57-.115-.672-.172-.77-.793-.407.762-.745.422-1.483.547-.163.028-.268.35-.502.294-.169-.04-.173-.35-.29-.39-.105-.035-.089-.28-.243-.314-.177-.04-.78.456-.954.532-.39.173-1.032.458-1.413.373-.472-.106-.262-.456-.928-.416-1.051.061-1.49.957-2.143-.454-.295.565-.258.718-.732.905-.35.138-1.237-.006-1.698-.023-1.969-.073-3.905.6-5.858.423-.858-.077-1.582-.25-2.448-.109-.91.148-1.8.366-2.724.453-.47.045-1.45.18-1.68-.421-.204-.53.553-.89.129-1.493zm3.862 21.703c-2.554 1.712-4.67 4.05-7.015 6.028-2.351 1.985-4.217 4.19-6.331 6.388-1.956 2.031-3.752 3.953-6.115 5.488-1.496.971-2.83 2.167-4.366 3.083-1.151.686-2.895 1.588-2.333-.51.575-2.15 1.638-4.324 2.56-6.332 1.312-2.855 2.633-5.683 4.052-8.483.533-1.053.832-2.1 1.677-2.938.92-.913 1.565-2.103 2.573-2.965 4.238-3.626 10.627-.825 15.298.241zm8.012 1.23c-1.159.608-2.455.758-3.683 1.16-1.046.343-2.02.953-3.145.998 1.025-.77 1.905-1.817 3.06-2.402 1.299-.658 2.478-.18 3.768.243zm50.853 5.07c-4.261-1.441-8.23-3.564-12.38-5.272-.716-.295-6.32-2.144-6.207-3.023 3.927-.721 7.972-1.958 11.908-.61 3.58 1.227 6.494 4.17 9.266 6.632.723.643 5.196 3.569 4.796 4.5-.277.647-2.433.47-2.942.338-.657-.171-1.036-.571-1.551-1.01-.863-.734-1.816-1.193-2.89-1.556zm-7.867-24.066c.647-.597 1.035-1.502 1.653-2.053.795-.708 2.077-.363 2.945.005 2.606 1.103 4.833 2.957 7.423 4.108 2.87 1.276 5.355 2.98 7.943 4.737 2.367 1.605 4.925 2.935 7.34 4.467 2.462 1.562 5.217 2.577 7.712 4.083 2.539 1.534 5.068 3.073 7.508 4.762 4.351 3.013 8.881 6.107 12.1 10.39a45.837 45.837 0 0 1 4.418 7.171c1.103 2.248 2.3 5.368.87 7.705-1.373 2.246-3.714 4.014-5.696 5.69-.75.634-1.464 1.404-2.437 1.68-1.183.334-2.563.241-3.78.34-6.505.529-12.566.03-18.977-1.136-6.181-1.123-12.389-1.753-18.618-2.534-3.514-.44-7.028-.954-10.494-1.687a59.09 59.09 0 0 1-4.44-1.103c-1.266-.373-2.33-1.195-3.632-1.52-5.526-1.383-11.848-1.911-17.319-4.236 4.841-2.016 9.986-3.233 14.947-4.908 5.222-1.762 10.322-3.241 15.826-3.742 2.833-.258 5.367-.982 8.092-1.74 2.596-.723 5.307-.945 7.973-1.269 1.186-.144 4.571.072 4.964-1.48.585-2.313-2.74-2.58-4.158-2.373-2.011.294-3.67.797-5.208-.856-1.572-1.688-3.099-3.416-4.699-5.082-2.967-3.09-6.025-6.663-10.218-8.05-5.116-1.69-11.05-.085-16.154.876-5.392 1.016-10.775 1.988-16.066 3.465-2.19.611-5.016 1.958-7.29 1.742-2.241-.214-4.78-.581-6.945-1.229-.98-.292-1.786-.835-2.662-1.341-1.14-.659-2.39-1.08-3.6-1.592-2.447-1.035-4.832-1.987-7.472-2.394-2.222-.343-4.583-.546-6.738.235-2.113.766-3.986 2.325-5.46 3.991-1.602 1.81-2.926 3.838-4.239 5.86-.63.97-1.4 1.818-2.052 2.766-.548.797-.868 1.682-1.448 2.457-1.298 1.732-2.18 3.949-2.966 5.964-.874 2.239-1.844 4.901-1.636 7.337.08.92.161 2.14.517 2.993.452 1.085 1.097 1.058 2.026 1.467 1.596.704 2.044 2.648 4.107 2.269 1.935-.355 3.614-1.953 5.025-3.226 1.84-1.66 3.602-3.409 5.363-5.152 1.807-1.79 3.587-3.773 5.025-5.878.566-.828 1.007-1.764 1.675-2.519.852-.96 1.808-1.076 2.965-1.459 10.112-3.347 20.273-6.575 30.701-8.785 2.499-.53 5.018-1.213 7.472-1.917 2.603-.748 3.95.042 6.099 1.465 4.488 2.972 9.793 5.066 14.79 7.006 1.574.61 4.08.65 5.31 1.854-7.292 1.113-14.24 3.255-21.274 5.389-3.467 1.051-6.974 1.963-10.455 2.97-3.482 1.005-6.831 2.31-10.266 3.444-3.417 1.129-7.03 1.59-10.48 2.63-3.523 1.063-7.03 1.795-10.646 2.44-3.651.653-7.277 1.406-10.94 1.99-1.678.268-3.355.546-5.014.913-1.623.36-3.191 1.223-4.822 1.423-7.285.893-14.427 2.882-21.684 4.007-5.418.84-14.844 2.01-18.358-3.435-3.533-5.476.802-11.864 4.67-15.78 2.403-2.433 5.104-4.575 7.938-6.48 3.032-2.04 5.95-4.241 8.983-6.277 6.865-4.608 14.308-8.366 21.683-12.069 3.54-1.777 6.96-3.683 10.403-5.633 1.71-.968 2.655.594 4.006 1.655 1.063.836 3.014 2.894 4.5 1.942l.172 1.029 1.307-.597c.292.769.258 1.246 1.075 1.65.502.248 1.573.546 2.051.11l.293.91c.418-.033.5-1.231.578-1.512.717 1.049 1.708 1.925 2.968 2.221.006-.068-.205-.93-.196-.935.399-.244.901.803 1.113 1.027.7.742 1.118.627 1.892.028.056.06.318.746.356.733.168-.053.486-.66.52-.715-.047.798 1.49.959 2.034.788l-.365-.702c1.892-.253 2.635 1.76 4.45 1.659 1.344-.076.267-.37 1.026-.946.664-.504.783.597.848.562a1.44 1.44 0 0 0 .294-.458c.246.943 2.202 1.789 2 .239.769.308 1.315.82 2.167.928 1.035.131 2.14-.089 3.173-.175 2.225-.185 4.322-.64 6.328-1.66 1.189-.606 2.454-1.156 3.572-1.886.935-.611 2.71-2.467 3.955-1.668-.318-.942 1.183-.069 1.23-1.283l.724.546c.145-.317.105-.818.298-1.095.267-.38.396-.156.623-.37.254-.24.475-.88.78-1.063.313-.188.682.036 1.02-.128.513-.25 2.723-2.69 2.349-.6.95-.322.217-.618.336-1.252.238-1.271.818-.357 1.396-.246.946.182.927-.602 1.455-1.171.482-.52 1.388-.753 1.076-1.657.356.193.432.57.473.936zm-57.04-27.145c-.745.832-1.304.477-2.132.355-.09-.298-.24-.34-.455-.124-.245.141-.51.234-.792.279-.68.168-1.386.096-2.05.35.018-.223.252-.62.103-.846-.7.485-1.133.793-1.992.802-.695.007-1.916-.525-2.494.111l-.053-.743c-.283.141-.53.33-.739.567-.04-.367-.061-.644-.304-.941-.46.947-.963.97-1.855.607.125.051-.894-.547-.855-.381-.322-1.36 4.763-1.248 5.296-1.301 1.333-.135 2.666-.214 4.002-.337 1.266-.116 2.21-.314 3.087.744-.39-1.528 3.304-1.453 1.233.858zm-58.3-23.705c.14 2.31.654 4.767-.243 6.991-.721 1.788-2.16 3.807-3.71 4.974-3.172 2.389-5.862-.534-6.303-3.747-.46-3.35.452-7.445 3.332-9.511 1.72-1.235 3.387-1.15 5.369-.743.465.095 1.22.059 1.487.522.062.108.006 1.512.068 1.514zm42.143 30.79c-.548.277-1.122.439-1.605.816-.168.131-.225.43-.403.54-.324.2-.788.067-1.126.233-.559.274-.96.665-1.624.918-.987.374-1.852.888-2.785 1.375-1.554.812-3.222 1.509-4.847 2.17-.82.333-3.089.984-3.01 2.187-.184.05-.371-.353-.754-.32-.526.043-1.221.652-1.767.802-1.021.28-1.812.305-1.812 1.61-.325-.222-.408-.763-.84-.835-.487-.081-.692.445-1.081.609-.459.193-1.029.008-1.483.213-.199.21-.42.394-.662.55a2.513 2.513 0 0 1-.738-.022c-.964.205-1.851.568-2.818.756-.942.185-1.587.252-1.19 1.367-1.008.198-1.254-.873-2.391-.481-1.393.48-2.696.826-4.15 1.118-.742.15-1.517.483-2.264.561-.533.056-1.03-.135-1.556-.076-.632.071-1.14.365-1.795.376-.621.01-1.273-.1-1.883-.21.086.245.194.481.323.707-.421-.088-.616-.596-.973-.671-.376-.079-.712.309-1.024.223-.133-.037-.045-.448-.283-.526-.216-.071-.308.013-.523-.021-.072-.011-.971-.06-1.115.016-.25.133.003.382-.046.42-.846.626-.857.288-1.234-.367-.554-.962-1.222-.355-2.228-.523-1.122-.188-2.006.308-3.11.237-1.19-.076-2.59-.968-3.643-1.49-2.274-1.125-4.491-2.19-6.4-3.896-3.733-3.332-6.77-7.431-8.56-12.124-1.924-5.04-2.289-10.298-2.134-15.646.093-3.217.35-6.431.856-9.61.348-2.187.421-6.072 2.882-7.068.423 5.12-.912 10.337-.07 15.423.254 1.532.872 3.574 2.042 4.709 1.732 1.68 2.138-.749 2.294-2.09.292-2.49.834-4.968 1.217-7.447.384-2.478.654-4.984 1.187-7.436.195-.894 1.762-7.442 2.912-7.131-.233 4.763-.85 9.443-.875 14.224-.01 1.917-.181 3.943.095 5.848.142.98 1.034 3.856 2.566 3.616 1.418-.222-.14-2.248-.273-3.029-.351-2.068.096-4.641.423-6.694.62-3.885 2-7.864 4.257-11.11 2.021-2.907 5.134-5.675 8.883-5.162 1.602.22 2.852.618 3.657 2.083.631 1.15 3.12 2.457 1.677 3.897-1.312 1.31-3.435.261-4.894-.051-1.786-.383-3.7.077-5.195 1.126-2.563 1.799-4.024 5.015-4.5 8.03-.643 4.067 1.075 14.712 7.402 12.326 4.203-1.585 7.369-7.286 7.016-11.65-.142-1.748-.824-5.065 1.59-5.536 3.091-.605 3.528 2.81 3.215 5.028-.455 3.227-2.158 6.227-4.106 8.779-1.697 2.223-3.672 3.614-5.715 5.45-.604.544-2.147 1.766-1.888 2.778.284 1.108 2.708 1.423 3.68 1.605 4.801.9 10.217.072 15.011-.556 9.853-1.293 19.577-4.476 27.657-10.33.326 3.622.738 7.231.89 10.866.073 1.764.092 3.554.293 5.309.124 1.08.572 2.587-.652 3.207zm-27.322 12.619c-.387.202.031-1.024-.076-.618.578.207.603.413.076.618zM90.041 77.75c.614-.678 2.291-2.291 2.824-.76.198-.653.224-1.62.989-.738.304-1.083 3.663-.981 4.495-1.03 2.664-.152 5.339-.234 7.994-.499 5.454-.544 11.005-.263 16.48-.281 1.185-.004 2.367-.068 3.544.104 1.136.166 2.33.633 3.487.462 1.03-.151 1.704-.436 2.763-.314 1.268.145 2.499.249 3.777.244 5.657-.02 11.31.21 16.968.218 1.103.002 2.424-.214 3.458.255.384.174.802.753 1.095.816.336.073.136-.451.585-.215.602.317.136 1.292-.261 1.446.238-.092-.43-.183-.363-.187-.317.017-.587.26-.927.245-.518-.022-.952-.339-1.37-.617-.007.113.223.872-.04.91-.224.033-.436-.715-.458-.889-1.266 1.119-2.607.495-4.177.637-1.114.1-3.437.845-4.214-.32a1.187 1.187 0 0 1-.298.65c-.222.34-.414.31-.576-.087-.055.003-.596.12-.607.12-.38-.03-.875-.167-1.262-.2-.6-.052-.489.385-.967.392-.26.004-.926-.373-1.38-.397-.788-.04-1.593.294-2.37.193-.535-.07-1.019-.506-1.543-.523-.654-.022-.867.478-1.385-.224-.106-.03-.172.384-.214.39.01 0-.493.074-.553.097-.103.04-.505.224-.628.226-.264.005-.408-.185-.688-.189-.464-.008-1.945.401-1.904-.458-1.655.614-3.068.375-4.767.52-.78.067-1.27-.038-2.012-.181-.928-.18-1.545.046-2.472.091-.89.044-1.17-.333-1.922-.674-.297-.134-.493-.311-.856-.237-.207.043-.06.393-.121.416-.32.124-.543-.007-.98.023-.809.055-1.13.732-1.962.097l.829-.101c-.795-.338-1.843-.51-1.651.719-.678-.095-.091-.558-.424-.723-.333-.165-.707.111-1.126.248-1.108.36-2.032.181-3.187.117-1.313-.074-4.385 1-5.325-.394-.028.294-.343 1.112-.761 1.073-.137-.013.244-.88.287-.973-.216.46-1.2.548-1.685.786l.163-.741c-.45.48-.669.187-1.199.348-.231.07-.566.548-.764.577a.953.953 0 0 0-.87-.346 1.75 1.75 0 0 0-.697-.034c-.93.068-1.778.585-2.703.233-.8-.306-1.11-1.091-1.587.159l-.377-.667-.465.723c-.606-.397-.643-.627-1.34-.481a.598.598 0 0 1-.503-.028l-.123.367c-.017.308-.108.41-.274.305a1.12 1.12 0 0 1-.377-.228c-.462.035-1.05.156-1.546.09-.19-.026-1.388-.66-1.477-.561zm14.112-8.274l.163.25c-.749.397-.925.17-1.002-.626.366.007.428.651.84.376zm.464-.467c.36.16.774.473 1.114.053.228.666-1.47 1.574-1.114-.053zm2.329.294c.757.513-1.06.1-1.056.102.326-.302.678-.336 1.056-.102zm6.51-2.857c.26 1.312.976 1.274 2.131.664 1.686-.89 1.97-2.346 2.088-4.086.112-1.668.316-2.313 2.033-1.965 1.198.243 2.212.039 3.42.005 1.29-.035 1.744.162 1.848 1.491.104 1.33.34 2.341 1.304 3.354.98 1.03 2.287 1.644 3.56 2.22.656.296 1.27.615 1.995.679.281.025 1.742-.16 1.773.303.023.348-2.001 1.33-2.216 1.448-.938.51-1.874.97-2.9 1.28-2.358.712-4.86.754-7.302.711-3.94-.07-9.384-1.738-11.74-5.24 1.336-.287 2.67-.576 4.006-.864zm-.353-11.363c-.624-.524-1.027-1.315-1.545-1.936-.261-.313-.452-.412-.7-.57-.263-.164-.41.07-.628-.318-.564-1.002 1.176-2.412-.67-2.798-.624-.13-2.128.365-2.31-.531-.258-1.268 2.157-1.35 2.726-1.994 1.13-1.279.363-3.447 1.05-4.923.652-1.398 2.334-1.646 3.661-2.066 1.85-.585 3.721-.924 5.599-1.392 1.313-.327 3.494-1.642 4.712-.48-1.88.417-.787 1.073.465 1.444 1.42.42 2.923.583 4.393.7 1.513.12 3.055.143 4.55-.159 1.382-.28 2.927-1.483 4.376-1.175-.804 1.401-3.2 2.166-4.656 2.533-.742.187-1.217.129-1.118 1.056.097.898.876 1.798 1.052 2.734.233 1.238.03 2.376-.41 3.54-.433 1.146-.534 1.295-.156 2.39.59 1.705-.677 3.589-1.848 4.827-4.735 5.005-13.796 3.109-18.543-.882zm12.03-29.914c.02.051.003.032 0 0zm1.475 12.632c-.196.147-1.327.455-1.28.012.064-.593 1.083-.379 1.28-.012zm2.577-11.981c-.265-.198-1.008-.117-.465-.868l.465.868zm-17.832-4.747c.338-.88.712-1.7.865-2.636.094-.577-.093-1.237.712-1.327-1.026-.449-1.037-2.219-1.097-3.136-.084-1.264-.482-2.956.072-4.132.57-1.208 1.337-1.188 1.569.25.09.564-.257.746-.322 1.138-.129.777.128.606.628.015.206.601.285 1.504 1.125 1.466-.056-.162-.378-.521-.27-.723.165-.31.972.164 1.074.236.737.516.896.987.37 1.638.728.078.118.716.587.882.716.254.236-.948.158-1.16.437.171.583.366.859.71.162.239.31.486.443.742.148.467.453.584.916.35.928.292 2.209.247 3.04.756.38.233.517.743.834.936.357.218.836.119 1.22.256-.141.319-.028.492.34.519.284.026.56.09.827.192.2-.15.417-.27.652-.356.158.278.38.347.669.207.855.16 1.266.484 1.81.97.488.434.09.47.625.43.215-.015.592-.38 1.083-.309.283.056.556.143.818.262.284.244.586.274.905.092.518.254.569.703 1.2.765.699.068.474-.804.954.426.646-1.305.882.773 1.55.941.69.174.765-.387 1.356.226.177.184.167.487.366.682.326.32.768.255 1.05.69-.157-.242.038.86.035.824.044.487-.388 1.032.497.99-.01.052-.435.672-.518.602a2.34 2.34 0 0 1-.05-.215c-.096.04-.138.632-.12.736.075.012.105-.044.092-.167-.146.455.073.745-.206 1.178-.179.276-.668.484-.928.655-.627.412-1.24.825-1.853 1.263-1.427 1.023-3.024 2.256-4.821 2.47.902-.888 6.094-4.247 3.49-5.211-.483-.179-1.362-.348-1.867-.386-.629-.046-1.278.314-1.971.089-.836-.27-.521-1.058-1.032-1.34-1.085-.6-.828.81-1.17 1.178-.359-.377-.282-.56-.848-.594-.575-.035-.712.497-1.382.166-.925-.457-.436-1.367-1.747-1.389.022-.2.212-.758-.038-.914-.337.438-.076.928-.389 1.35-.157.212-.497.38-.745.449-.581.16-.664.466-.57-.41-.43.777-1.751.457-2.537.379-1.277-.128-2.635-.37-3.86-.78-1.132-.38-1.737-1.032-2.67-1.625-.354-.225-.522-.139-1.029-.278-.5-.138-.987-.404-.751-1.018zm2.695-13.764c.193-.117.331 1.62.098 1.944-.428-.678-1.187-1.672-.098-1.944zm.616-.693c.62-.562.19.89.076 1.133l-.69-.442c.293-.18.367-.467.614-.691zm23.397-2.34c5.729 1.204 11.406 3.455 16.001 7.16 4.186 3.375 7.14 8.163 8.796 13.256 1.72 5.286 1.142 11.151-2.948 15.197-2.155 2.131-5 3.417-7.712 4.672-1.3.6-2.637 1.101-3.942 1.689-.937.421-2.08 1.096-3.15.98.546-.576 1.337-.587 1.997-.939.798-.425 1.45-1.24 2.137-1.823.682-.578 2.196-2.4 3.245-1.959-.146-.97.958-1.42 1.455-2.06.526-.677.564-1.469 1.533-1.69-1.041-.816-.722-2.355-.496-3.466.29-1.42.424-2.724.538-4.17.206-2.606.372-5.925-1.066-8.216-.466-.744-1.06-1.428-1.476-2.2-.502-.931-.391-1.751-.391-2.772-.917.617-1.11-.641-1.498-1.254-.29-.46-.672-.718-.766-1.297-.068-.421.388-.492.138-.934-.307.232-.43.592-.585.926-.283-.114.051-.509-.111-.637-.005-.004-.551-.242-.524-.207-.352-.447-.465-1.188-.637-1.719-.644.327-.524.288-1.242-.258-.127-.096-.76-.537-.819-.682-.278-.674.21-.275.073-.693-.391-1.203-2.587-.976-2.76-2.778-1.072.68-1.48-.284-2.113-.97-.649-.704-1.737-.974-1.678-2.089l-1.011.346c.175-1.03-1.35-.964-1.904-1.486.307.004.612.028.916.073zm.872 63.729c.531-.476.37.157.712.085.292-.062.35-.284.63-.351 1.154-.28 2.88.071 4.094.011 1.406-.07 3.816.223 4.486 1.87.404.993-.212.655-.89.582-.527-.057-.995.05-1.515.044a2.27 2.27 0 0 1-.77-.012.486.486 0 0 1-.221-.347c-.725-.11-1.494.32-2.296.34-1.071.03-2.023-.177-2.836-.9-.324.482-.544.722-1.126.776-.015.001-.583-.228-.671-.251-.117-.03-.411.215-.636.145.399-.636.457-1.47 1.04-1.992zm73.133 5.735c.19-.659.347-1.326.52-1.99 2.643 3.015 4.956 7.05 5.997 10.916.676 2.512 1.728 7.063-1.495 8.359-2.626 1.055-4.09-2.728-4.754-4.591-1.467-4.113-1.467-8.51-.268-12.694zM93.811 26.51c.034-.008-1.71 1.009-1.136.186.231-.331 1.107-.564 1.496-.564l-.36.377zm-1.678.43c-.202.17-.406.338-.612.504l-.593-.938c.39-.165 2.044-.288 1.205.434zm-1.23 31.609c-.365-.248-.655-.117-.764.3 0-.415.215-1.376.545-1.488.214-.072-.71-1.167-.45-1.454.66.38.265.742.458 1.231.088.22.35.43.407.6.098.287.492 1.276-.196.81zm-1.789-2.464c-.374.096.281.714.28.988 0 .206-.248.365-.35.648-.222.612.16 1.026-.468 1.494 0-1.343-.9-4.9.829-5.554-.843-.665-.15-1.433.51-.637.635.765.23 2.797-.8 3.061zm-.9-5.298c-.34-1.207-1.363-1.629-2.531-1.557.044-.618.512-1.509.85-.395.138-.33.234-.759.55-.977.534 1.674 3.191 2.6 1.537 4.413-.135-.495-.267-.99-.406-1.484zm-3.088-1.467c-6.154.447-14.793 1.726-19.718-3-3.21-3.08-3.04-7.878-.444-11.301 1.48-1.953 3.502-3.329 5.532-4.64.783-.505 1.447-.839 2.307-1.13.14-.014.27.017.393.094a.676.676 0 0 1 .351-.463c.332-.178.806-.241.997-.61-.204.693-.31 1.408-.384 2.126a874.22 874.22 0 0 1-.497-.58c-.139 1.308-1.5.517-2.311.68.535.742.917 1.011.963 1.992-.398-.737-1.232-1.222-2.006-1.46.42 1.247.718 1.987.294 3.355-.511-.293-.546-.996-1.167-1.165-.164.816-.193 1.72-.402 2.511-1.59-.726-1.435 1.23-.797 2.198.34.515.507 1.11.81 1.605.742 1.213.178-.6 1.003-.514-.185 1.278-.25 1.406.685 2.342.911.913 1.384 2.18 2.36 3.038.282-.361-.162-.74-.201-1.086.907.153 1.332 1.064 2.205.257.38.743.792 1.56 1.703 1.713-.602-1.147 1.156-.369 1.607-.206.343.123.955.221 1.088.269.743.269.233-.214.684.668.662-.2.912-.75 1.704-.286.644.378.646 1.026.793 1.69.154-.434.309-.868.478-1.296.173.073.898.872.82.876 1.697-.084 1.637.972 1.15 2.323zm-8.64-21.642c.34-.24.756.08 1.14-.006.529-.119.83-.573 1.422-.622-.165.527-.474.478-.735.892-.09.141-.043.48-.122.56-.664.681-.893.126-1.57-.39.059.622.178.818-.406.985-.53.151-1.402-.405-1.669-.832.225-.45 1.532-.3 1.94-.587zm4.222-.97c.575.054-.118 1.752-.941.105.31-.068.624-.103.94-.106zm2.955-.329c.906-.185 3.928-1.048 4.265.365.06-.035.285-.833.39-.736.418.39.465.907.433 1.449-.506-1.056-.326-.128-.67-.2-.088-.02-.225.148-.452.079-.297-.091-.51-.725-.698-.94-.312.448-.7 1.023-1.325.984-.443-.027-1.156-1.17-.583.08-.336-.11-.726-.363-1.101-.312-.42.057-.639.472-1.032.539-.873.148-1.004-.693-1.57-1.15.78-.045 1.571 0 2.343-.158zm5.482-.014c.064-.29.857-.406 1.059-.314.493.224.31.52.22 1.012l-1.097-.52c.546.881-.443 1.009-.182-.178zm153.496 51.578c-.064-2.11-.126-4.257-.66-6.311-.373-1.438-1.292-4.016-3.028-4.266-2.619-.376-4.07 4.809-4.803 6.589-.147-2.096-.018-4.326-.808-6.315-.633-1.594-2.231-3.104-3.608-1.314-1.225 1.593-1.46 3.945-1.782 5.861-.418 2.484-.669 4.986-.974 7.485-1.196-2.316-1.405-4.967-2.35-7.373-.893-2.271-2.297-4.44-3.65-6.46-1.103-1.65-2.447-3.201-4.177-4.21-1.506-.878-4.14-1.828-5.574-.37-1.198 1.217-1.01 2.845-.948 4.38.028.684.135 1.152-.465 1.497-.295.169-.756.081-1.08.172-.522.146-.923.393-1.365.722-3.097 2.306-4.524 6.462-4.966 10.167-.56 4.694 1.267 8.718 2.84 13.013.25.685 1.045 2.137.935 2.9-.12.838-1.169.86-1.877.877-2.138.053-4.373-.106-6.5-.306-5.065-.475-10.125-2.917-14.66-5.098-.828-.398-1.998-.626-2.674-1.252-.635-.59-.802-1.533-1.35-2.209-1.345-1.658-2.202-3.073-4.182-4.074-2.017-1.02-4.075-1.963-6.043-3.08-2.433-1.382-4.681-3.132-7.013-4.68-4.334-2.875-8.638-6.026-13.233-8.471-2.135-1.136-4.52-1.32-6.737-2.25-2.158-.906-4.808-.907-7.06-.335-1.098.278-1.844.94-2.854 1.37-1.182.506-2.147-.052-3.188-.655-1.59-.922-3.166-2.424-.902-3.418.768-.338 1.73-.465 2.402-.996.715-.565 1.29-1.608 1.87-2.316 1.294-1.574 2.066-3.386 3.958-4.364 2.093-1.083 4.573-1.377 6.805-2.085 2.417-.766 4.784-1.677 7.157-2.572 4.274-1.611 8.718-3.351 11.79-6.9 2.65-3.06 3.804-7.011 3.697-11.024-.219-8.204-4.606-16.53-10.9-21.659C146.966 2.324 137.148.227 127.4.337c-4.576.052-10.036.652-13.854 3.437-3.297 2.405-3.846 6.612-3.355 10.41.199 1.54.88 3.574-.206 4.933-.607.76-1.697.947-2.515 1.421-1.028.595-1.934 1.166-3.099 1.48-4.945 1.338-10.154.873-15.21.798-8.423-.123-17.057 2.161-23.34 8.107-5.075 4.801-6.597 13.854-.408 18.534 5 3.781 12.843 3.366 18.739 2.706 1.828-.205 3.085-.502 3.089 1.738.005 2.448-.4 5.006.223 7.41.982 3.783 4.612 3.874 7.821 3.059 1.694-.43 3.33-1.077 4.939-1.754 2.359-.993 4.52-2.454 6.85-3.445 1.58-.672 2.762 1.501 4.162-.005.26-.278.307-.693.697-.836.612-.223 1.638.56 2.175.807.803.37 1.613.643 1.934 1.535.3.835.169 2.162-.119 2.986-.625 1.79-2.308 1.436-3.844 1.316-2.68-.209-5.342-.652-8.021-.838-2.404-.167-4.654.553-6.728 1.74-4.354 2.494-7.916 6.46-11.692 9.722-1.943 1.679-3.821 3.492-5.934 4.954-.92.636-1.914 1.22-2.713 2.01-.792.784-.88 1.496-1.15 2.539-.483 1.856-2.88 2.764-4.378 3.744-2.119 1.385-4.365 2.362-6.74 3.212-5.03 1.8-10.1 3.056-15.358 3.985-2.575.455-5.128.754-7.728 1-2.24.212-4.623.903-6.862.35.645-1.047 1.787-1.676 2.677-2.485 1.147-1.044 2.122-2.28 2.99-3.562 1.69-2.495 2.875-5.173 3.147-8.2.246-2.723-.036-5.982-1.676-8.283-.567-.795-1.688-1.011-2.196-1.727-.504-.712-.312-1.937-.588-2.767-.703-2.11-2.789-4.727-4.625-5.952-1.991-1.331-4.905-1.82-7.206-1.126-4.263 1.284-6.88 5.847-8.831 9.535-1.066-2.246.719-5.578-1.363-7.417-1.755-1.551-3.149 1.454-3.736 2.74-2.756 6.036-3.382 12.437-4.537 18.896-.47-.465-.23-1.658-.185-2.212.082-1.032.074-2.044.076-3.08.006-2.618.492-5.248.27-7.863-.13-1.512-.61-4.7-2.804-4.198-1.86.426-3.024 3.046-3.608 4.647-.843 2.31-1.038 4.597-.985 7.037.058 2.697-.455 5.349-.58 8.041-.24 5.23-.002 10.415 1.496 15.462 2.453 8.266 8.093 15.133 15.62 19.28 4.148 2.285 8.749 3.731 13.48 4.042 2.563.168 5.037-.137 7.579-.403 2.508-.262 5.03-.383 7.533-.69 5.576-.685 11.01-2.454 16.077-4.833 2.668-1.253 5.177-2.79 7.8-4.126 1.054-.536 1.765-1.206 2.664-1.95.89-.74 1.137-.797 2.15-.797-.297-.797.57-1.042.957-1.546l-.066.733c.295-.64.569-.633.822.018.25-.73.436-1.48.739-2.19 1.156.585 1.059 1.98 2.606.962 1.273-.838 2.445-1.826 3.743-2.647 2.958-1.87 5.508-4.304 8.475-6.153 0 1.801.127 3.617-.114 5.409-.228 1.703-.863 3.296-1.368 4.927-.931 3.009-.996 6.224-2.028 9.203-.427 1.233-1.539 2.265-1.857 3.466-.325 1.225.425 2.206-.833 3.01-.888.568-1.997.807-2.98 1.15-1.498.524-2.921 1.262-4.38 1.889-6.844 2.937-13.52 5.929-19.86 9.878-6.017 3.749-12.126 7.62-17.654 12.071-4.797 3.863-9.646 8.858-10.814 15.16-1.133 6.113 1.886 12.675 7.948 14.688 3.152 1.047 6.716.917 9.999.963 3.532.048 7.275-.804 10.748-1.421 3.667-.652 7.272-1.672 10.95-2.254 3.53-.558 6.766-1.806 10.237-2.575 3.698-.82 7.49-1.264 11.207-2 1.674-.332 3.314-.822 4.992-1.129 1.837-.336 3.695-.462 5.514-.907 3.53-.864 6.909-2.257 10.453-3.061 1.594-.362 3.163-.846 4.757-1.183 1.468-.311 2.611-1.138 4.082-.46 1.189.55 2.137 1.49 3.261 2.144 1.459.85 2.997 1.61 4.518 2.342 3.055 1.469 6.225 2.484 9.42 3.587 3.356 1.158 6.652 2.48 10.128 3.244 3.565.784 7.201 1.003 10.79 1.623 7.35 1.27 14.639 1.84 22.1 1.887 3.772.024 7.543-.424 11.305-.371 3.331.047 6.227.799 9.273-.975 4.866-2.835 10.512-7.104 10.392-13.306-.109-5.616-3.472-10.983-6.627-15.413-3.83-5.38-9.293-9.168-14.647-12.879-5.705-3.955-12.114-6.687-18.11-10.14-3.068-1.765-5.896-3.664-9.226-4.92-1.59-.598-3.14-1.292-4.712-1.937-1.264-.519-3.09-.805-4.171-1.666-.675-.537-.74-1.35-.918-2.149-.395-1.767-1.015-3.442-1.617-5.146-1.16-3.291-1.932-6.642-2.431-10.093-.476-3.29-1.532-6.712-.985-10.055 3.597 3.485 7.293 6.835 10.972 10.228 1.38 1.271 2.733 2.57 4.12 3.833 1.04.95 2.342 2.358 3.792 2.64 1.853.36 1.176-1.694 2.449-2.012.777-.194 3.122 1.785 3.737 2.176 3.896 2.478 8.21 4.048 12.496 5.735 4.493 1.768 9.115 3.34 13.95 3.784 4.467.412 9.034-.116 13.344-1.335 8.584-2.428 14.9-8.188 19.536-15.654 5.282-8.508 9.125-18.474 8.814-28.63z"></path><path d="M111.452 59.397l-.014.03c.016-.011.02-.021.014-.03"></path><path d="M111.866 59.506a3.03 3.03 0 0 0-.208-.796c-.284.452-.538.645-.165 1.123l.373-.327M131.66 124.005c.318-.339-.238-.466-.45-.47.022.363-.158 1.234.338 1.402a.992.992 0 0 1 .112-.932M123.275 53.11c-.546 1.057.66 1.385 1.36.874.525-.384.836-1.362.922-1.99.28-2.031-1.14-3.965-1.847-5.767-.183-.466-.433-2.064-1.022-2.108-.676-.05-.726 1.421-.735 1.801-.026 1.145.276 2.311.631 3.392.382 1.165 1.33 2.564.691 3.798M125.873 48.872c2.1 1.873 3.78-1.247 3.633-3.092-.036-.457-.345-2.143-1.21-1.53-.435.309-.064 1.31-.272 1.75-1.004 2.132-1.971-1.175-2.647-1.434-.823-.317-.906.766-.905 1.345.002 1.15.548 2.2 1.401 2.96M118.251 49.163c.495-.78 1.103-1.827 1.17-2.762.105-1.452-.74-1.331-1.436-.317-.491.716-.86 1.93-1.945 1.628-1.338-.372-.93-2.176-1.679-3.033-1.893 2.547 1.69 7.955 3.89 4.484M121.088 56.957c.784.17 2.825.107 2.117-1.094-.892-1.513-3.858.717-2.117 1.094M148.517 11.846c.143-.427-.054-.505-.396-.841-.323.299.091.613.396.841M163.12 89.284c.517.082.683-.191.498-.821-.815-.053-.98.22-.498.82M134.915 23.226c.57.26.351.796.342 1.248.293-.32.886-.903.644-1.362-.371-.708-1.343-.05-.986.114M115.508 14.32l-.26-.51c-.354.285-.9 1.037-.338 1.404.23-.28.43-.578.598-.894M122.344 19.312c.709.557.369-1.152.348-1.292-.106.2-.706 1.01-.348 1.292M121.951 18.444l-.163-.424c-.287.267-.639.81-.164 1.123.13-.219.24-.452.327-.699M126.453 24.314l.174.16c.233-.472-.032-.827-.474-.841.032.265.132.492.3.68M107.458 77.465c.282-.191.537-.41.767-.656-.833-.51-.334.595-1.336-.083-.216.299.137.968.57.74M142.43 123.815c.316-.487.373-.473-.059-.842-.36.601-.323.447.059.842M76.29 46.384l.516.54c.08-.235.52-.9.221-1.122l-.738.582M82.417 48.165c-.275-.046-.933-.247-1.085.01.402.33 1.31.028 1.085-.01"></path></g></g></svg> 