<svg xmlns="http://www.w3.org/2000/svg" width="498.000000pt" height="387.000000pt" viewBox="0 0 498.000000 387.000000" preserveAspectRatio="xMidYMid meet"><metadata>
Created by potrace 1.15, written by Peter Selinger 2001-2017
</metadata><g transform="translate(0.000000,387.000000) scale(0.100000,-0.100000)" fill="#000000" stroke="none"><path d="M1845 3776 c-811 -328 -1301 -737 -1585 -1321 -204 -418 -270 -923 -179 -1370 100 -496 437 -883 866 -996 123 -32 330 -37 459 -10 196 40 350 127 497 280 135 140 209 269 253 441 28 109 25 334 -5 445 -45 169 -127 302 -264 431 -91 85 -161 132 -259 171 -216 87 -502 60 -703 -67 -107 -68 -138 -66 -170 12 -25 60 -24 236 4 389 72 401 331 813 678 1077 143 109 355 226 501 278 l52 19 0 137 c0 76 -3 138 -7 137 -5 0 -66 -24 -138 -53z"></path><path d="M4595 3789 c-771 -307 -1244 -673 -1547 -1197 -337 -582 -385 -1374 -116 -1892 159 -308 449 -545 754 -617 118 -27 379 -24 489 6 333 90 610 371 696 706 31 123 31 322 0 440 -82 308 -324 562 -613 642 -88 24 -297 23 -393 -1 -87 -23 -175 -62 -246 -110 -29 -20 -66 -36 -81 -36 -84 0 -109 187 -63 456 69 392 348 827 695 1083 141 105 369 230 493 270 l37 13 0 139 c0 76 -1 139 -2 139 -2 -1 -48 -19 -103 -41z"></path></g></svg>