<?xml version="1.0" encoding="UTF-8"?> <svg xmlns="http://www.w3.org/2000/svg" width="203" height="290" viewBox="0 0 203 290"><g fill="none" fill-rule="evenodd"><path fill="none" d="M-22-8h246v306H-22z"></path><path d="M108.68 144l.061.008c.894.173 2.376 2.726 2.983 3.452l5.869 7.021c.783.937 1.912 1.92 2.47 3.004.429.834.576 1.984.832 2.878 3.181 11.103 6.293 22.278 8.61 33.598.499 2.437.972 4.89 1.25 7.363.136 1.223.495 3.02-.038 4.2-.6 1.332-2.535 1.886-3.792 2.298-2.445.804-5.005 1.282-7.538 1.712-6.103 1.034-12.282 1.634-18.45 2.12-1.884.149-3.823.146-5.696.4-.894.12-.626-.12-.908.48-.392.834-.132 2.574-.178 3.483l-.33 6.416-.897 17.5-.91 17.742-.345 6.723c-.061 1.197.122 2.744-.2 3.903-.244.878.157.619-.92.671-2.495.12-5.08-.181-7.574-.27-2.83-.101-5.66-.203-8.491-.303-.808-.03-1.712.2-2.037-.38-.397-.704-.095-2.64-.123-3.427l-.236-6.578-.646-18.055-.883-24.623a70428.396 70428.396 0 0 1-23.394 4.7c-2.133.428-4.666 1.406-6.868 1.09-2.188-.312-3.092-1.245-3.215-3.319-.132-2.222-.08-4.462-.05-6.686.048-3.639.153-7.276.29-10.913l18.642-1.676 9.926-.893c.751-.067 2.602.078 2.937-.488.521-.878-.059-3.767-.074-4.76l-.148-9.394-.544-34.563c1.488.048 2.976.093 4.463.134 6.473.183 12.977.447 19.452.248 3.246-.1 6.323-.974 9.388-2.006 1.63-.548 3.243-1.145 4.843-1.774.504-.197 1.987-1.133 2.53-1.028l-.061-.008zm-8.714 32.163l-3.307 16.147 11.315-.749-8.008-15.398z" fill="#FF9F9F"></path><g fill="#132573"><path d="M194.12 45.726c-.23 1.794-.067 3.75-2.088 4.222-1.87.438-3.922.316-5.828.469-2.143.172-4.28.408-6.417.62-2.696.268-2.312-.77-2.9-3.077-.54-2.107-1.399-4.21-2.114-6.265a22.316 22.316 0 0 0-1.182-2.733c-.41-.815-.215-1.924-.657-2.608-1.51-2.337-8.87 4.053-9.554 2.793 1.245-.972 3.4-2.059 3.783-3.722.45-1.954-.79-2.537-2.347-1.823-3.831 1.76-8.253 3.134-12.431 3.775 1.35-.905 13.574-8.04 9.472-10.157-.925-.477-2.16.421-2.993.76-1.324.54-2.706.902-4.087 1.255-1.456.372-2.915.73-4.378 1.069-1.027.237-2.857 1.081-3.857.873-1.015-.212.783-.843 1.078-.992a95.826 95.826 0 0 0 3.801-2.051c2.225-1.252 4.28-2.702 5.971-4.638 1.277-1.46 3.384-4.65 2.496-6.67-.515-1.17-1.644-2.252-2.307-3.361-.774-1.296-1.4-2.677-2.071-4.026 1.125.496 2.388.623 3.537 1.068a36.91 36.91 0 0 0 3.51 1.137c2.398.664 4.788.782 7.164 1.32 2.69.61 5.492 1.291 8.224 1.644 2.38.306 4.518.958 6.557 2.258 4.163 2.656 7.05 6.47 8.51 11.187.856 2.764 1.065 5.647 1.165 8.522.107 3.032.33 6.133-.058 9.15m-23.361.224c-2.907 2.123-6.296 3.783-9.416 5.59-1.785 1.033-3.608 1.999-5.428 2.967-1.292.688-2.862 1.953-4.284 2.305-.9.224-.833.24-1.402-.582-.545-.785-1.02-1.63-1.53-2.438-.938-1.49-1.886-2.976-2.834-4.461-2.125-3.33-4.247-6.657-6.48-9.916-2.24-3.269-4.389-6.598-6.559-9.914-1.008-1.542-2.01-3.089-3.08-4.588-.818-1.145-2.914-2.89-1.919-4.239.925-1.252 3.03-2.292 4.276-3.24 1.521-1.156 3.052-2.301 4.57-3.464 3.263-2.5 6.44-5.109 9.7-7.612 2.766 4.863 6.021 9.422 9.304 13.943-2.969 1.898-5.968 3.703-9.096 5.328-2.31 1.2-5.845 2.823-7.305 5.1-1.438 2.242-.025 4.83 2.537 4.87 1.533.025 3.06-.382 4.563-.614 1.085-.168 3.065-.952 4.043-.4-1.758 1.125-8.135 4.4-4.697 7.272 2.457 2.053 6.611-.943 9.265-.326-.809 1.556-1.65 4.038.596 4.884 1.869.705 4.315-.608 5.996-1.305a103.068 103.068 0 0 0 3.619-1.572c.95-.436 2.088-1.321 3.103-1.51 1.185-.22 3.597 3.089 2.458 3.922m-54.039 114.683c1.663-.304 2.517-.993 3.041 1.03.47 1.813.934 3.56 1.539 5.338-2.598.225-4.89 1.469-6.784 3.217-1.35 1.246-4.032 4.22-3.367 6.306 1.616 5.07 9.778-6.304 10.748-7.52 1.187 1.74 1.624 4.017 2.214 6.005.42 1.416 1.979 4.129-.082 4.473-2.893.483-8.32 1.563-7.977 5.669.405 4.846 6.557 4.819 10.008 5.036 1.946.123 1.955 1.686 2.232 3.434.124.782.511 1.839-.151 2.412-.588.508-2.39.522-3.156.686-2.232.48-4.463.97-6.695 1.45-2.534.545-3.874-.218-6.242-.914-.877-.257-1.758-.148-1.823-1.132-.04-.604.55-1.538.743-2.135.765-2.363 1.416-4.795 1.635-7.277.32-3.605-.08-9.01-4.509-9.714-2.107-.335-2.513-.444-3.464-2.426-1.029-2.143-2.663-4.128-2.268-6.597.286-1.79-.196-5.175.944-6.659.526-.685 1.553-1.095 2.254-1.598a37.051 37.051 0 0 0 2.586-2.049c.7-.604 1.553-1.785 2.347-2.222.97-.534 1-.17 1.696.664 1.028 1.23 2.662 4.865 4.531 4.523m4.701 8.01c-.576 1.166-1.908 2.25-2.757 3.223-.853.979-1.66 2.013-2.613 2.9-1.047.977-4.768 3.335-3.949.16.638-2.469 3.025-4.469 5.126-5.701.407-.24 5.168-2.555 4.193-.582m4.07 11.756c.37 1.653.568 3.356.883 5.021.162.851 1.055 2.907.69 3.726-.616 1.387-6.168-.255-7.319-.733-2.74-1.136-3.997-4.054-1.47-6.132.957-.787 6.848-3.534 7.217-1.882m3.64 19.85c.309 1.578 1.213 3.041-.282 4.234-1.242.99-3.276 1.666-4.806 2.019-2.086.48-2.756-.691-3.86-2.197a76.197 76.197 0 0 0-3.762-4.706l12.351-2.77c-.002 1.15.137 2.294.358 3.42m-9.864 7.323c-2.147-.111-4.458.537-6.635.707-2.72.213-5.431.522-8.153.705.698-2.23 1.95-4.218 2.93-6.324.983-2.113 1.673-2.342 3.934-2.505 2.095-.151 3.573-.874 5.119.908 1.609 1.852 3.066 3.865 4.535 5.83-.5.334-1.097.712-1.73.68m-15.348.454c-.53.387-2.163-.712-2.714-.925-1.07-.415-1.308-.549-1.867-1.595-.48-.9-1.244-1.923-1.394-2.95-.199-1.355.4-3.138.617-4.484.58 1.401 2.483 1.564 3.768 1.793.973.174 3.854-.103 4.587.591.81.767-.681 2.905-1.07 3.71-.463.962-1.036 3.21-1.927 3.86m-1.038 1.111c-.637.104-2.472.74-2.435-.428.04-1.333 2.565.105 2.435.428m-3.233-.07c-.116 1.123-2.526 1.03-2.581.042-.094-1.668 2.766-1.834 2.581-.042M96.891 178.8c-.616 1.759-4.368 2.388-5.81 2.93-1.316.494-5.248 2.777-6.605 1.948 4.594-3.164 9.302-6.265 13.194-10.305.16.998-.083 1.832-.377 2.777-.265.852-.129 1.871-.402 2.65m-1.142 6.413c-.661 4.308-1.31 8.673-2.204 12.938-1.705-.522-3.111-1.58-4.902-1.949-1.634-.336-3.323-.344-4.97-.099-3.512.524-6.643 2.264-9.707 3.96-.283-2.953-.869-6.115-.8-9.08.058-2.463 4.263-3.192 6.17-4.209 1.154-.615 2.198-1.48 3.513-1.695 1.352-.222 2.658-.215 3.994-.628 3.16-.977 6.133-2.526 9.229-3.68.253 1.478-.099 2.985-.323 4.442m-2.952 18.232c-.14.98.036 2.727-.708 3.473-.701.703-2.2.726-3.124.917-2.817.58-5.63 1.167-8.444 1.766-1.258.268-2.517.524-3.78.764-.603.114-2.115.693-2.622.212-.482-.456-.123-1.914-.097-2.526.052-1.222.12-2.447.044-3.67-.147-2.344-.016-3.242 2.161-4.455 2.313-1.29 4.703-2.172 7.306-2.65 2.637-.483 5.148-.218 7.658.796.698.282 1.745.63 2.07 1.384.442 1.027-.315 2.949-.464 3.99m-3.172 37.793c-1.032.649-3.279.538-4.465.67-1.915.212-3.842.091-5.745-.205-1.432-.223-3.57-.531-4.667-1.54-1.56-1.43.24-1.496 1.433-1.396 3.47.293 6.984.089 10.45-.163.675-.049 2.49-.643 3.14-.365.832.356.577 2.545-.146 3m-1.967 23.137c-6.465-.63-10.213-5.995-12.558-11.48-1.258-2.944-.804-6.033-.928-9.147-.023-.569-.38-1.98.204-2.405.549-.4 2.766.835 3.366.982 3.075.755 6.476.828 9.557.094 1.335-.318 2.083-.909 2.507.417.342 1.068-.219 3.036-.28 4.155-.106 1.935.197 17.585-1.868 17.384m-12.915.006c-.024-.94-.498-10.437-.039-10.465 1.364 2.948 2.765 5.586 5.248 7.755 1.269 1.109 2.695 2.108 4.281 2.703.596.223 3.973.393 4.139 1.134.29 1.296-2.016.773-2.7.668-.549-.085-1.042-.32-1.58-.417-1.026-.187-1.995.064-3.025.085-1.565.031-3.101-.133-4.667.003-1.43.123-1.618-.041-1.657-1.466m.955-42.596c5.534-1.793 10.16 1.603 13.08 6.046 1.666 2.534 2.038 4.306 1.747 7.307-.105 1.074.088 1.801-.897 2.239-.976.433-3.192.112-4.247.161-3.035.142-6.059.331-9.094.151-1.971-.117-2.25-.452-2.216-2.37.041-2.308-.15-4.607-.28-6.92-.142-2.5-1-5.673 1.907-6.614m-1.811-3.325c.003-1.696-.099-3.437.005-5.13.103-1.68.816-1.597 2.398-1.883 3.425-.62 6.846-1.315 10.225-2.157 1.337-.332 2.847-.97 4.24-.976 1.46-.005 1.383.747 1.286 2.044-.217 2.872-.742 5.701-.902 8.558a154.895 154.895 0 0 0-.249 9.292c.005 1.042.258 1.813-.628.838-.888-.976-1.322-2.533-2.114-3.63-1.623-2.248-4.035-4.056-6.712-4.817a9.635 9.635 0 0 0-4.545-.19c-.458.093-2.751 1.19-3.043.973-.197-.147.038-2.854.039-2.922m20.246 58.792c2.195 1.575 4.626 2.848 7.087 3.953 1.385.621 6.866 1.93 7.04 3.33.094.746-.814 1.582-1.41 1.67-.754.113-1.997-.381-2.766-.475-2.795-.34-5.585-.342-8.313-1.122-5.445-1.557-11.091-1.996-16.593-3.354-1.31-.323-2.621-.626-3.937-.918-1.25-.278-1.81-.23-1.854-1.57-.098-2.937.743-5.947.75-8.921 4.451.51 8.918.502 13.38.921 1.913.18 1.869.543 2.707 2.218.87 1.737 2.35 3.149 3.91 4.268M72.43 181.806c-.056-1.087-.1-2.178-.198-3.262-.066-.729-.73-2.766-.356-3.333.445-.674.893-.262 1.69-.281 1.049-.025 1.928-.448 2.793-1.001 1.639-1.048 2.857-2.427 3.92-4.036.936-1.417.762-3.352.75-5.048-.029-4.385.29-8.662.023-13.067-.123-2.023 1.6-.783 2.992-.52 2.277.428 4.75.131 7.064.137-.086.54-4.817 1.878-5.58 2.388-1.957 1.303-3.098 3.39-2.92 5.768.36 4.786 5.618 5.585 9.46 5.595-3.188 2.825-6.319 5.518-8.824 9.003-1.848 2.57-5.101 7.636-2.081 10.479-2.67 1.52-5.316 3.21-8.336 3.94-.135-2.253-.28-4.507-.397-6.762m-1.212-87.35c1.087.7 1.544-.29 2.371-.802 1.165-.722 1.551-.65 1.699-2.263.273-2.99-.982-5.696-2.558-8.143-.716-1.112-1.43-2.436-2.441-3.306-.922-.792-1.853-.52-2.707-1.338-.336-.323-.264-.777-.818-.764-.365.008-1.252 1.141-1.553 1.391-.952.79-2.117 1.391-3.364.74-1.817-.948-1.234-4.389.177-5.503 1.087-.859 2.37-.726 3.608-.865.927-.103 1.12-.063.739-1.126-.268-.745-.884-1.327-1.189-2.055-.585-1.4-.457-3.1-.71-4.58-.227-1.327-.758-2.762-.739-4.11.025-1.715.585-2.16 2.068-2.642 1.437-.465 2.627-1.492 3.85-2.355 1.386-.977 2.903-1.622 4.327-2.514.967-.606 1.59-1.83 2.653-1.259 1.263.68 2.598 2.648 3.672 3.653-1.571 1-1.936 1.437-1.72 3.394.199 1.794.563 3.392 1.932 4.642.525.48 1.506.865 1.913 1.419.476.645.167.076.107.804-.032.393-.342.65-.275 1.104.302 2.016 2.613.826 3.565.126 3.403-2.503-2.95-4.49-4.46-5.402-1.042-.63-1.557-2.64.094-2.106 1.098.356 3.58 3.367 3.831.622 2.724 1.585 4.405 4.954 6.688 7.084 1.647 1.536 3.86 3.24 2.552 5.692-1.666 3.127-4.969 4.547-7.984 5.896-2.925 1.308-2.318 5.011-.754 7.277.904 1.31 2.088 2.078 3.513 2.715 1.455.65 1.757 1.415 2.075 2.924.353 1.674-.022 2.349-1.468 3.214-1.412.844-2.889 1.662-4.397 2.324-3.26 1.43-6.642 1.52-10.11 2.007-1.215.17-2.38.526-3.044-.681-.745-1.36-.8-3.7-1.143-5.214m-.524-6.503c-.816-.431-2.786 1-3.818 1.063-1.668.102-2.764.063-4.246.95-2.8 1.677-5.124 3.837-7.37 6.178-2.529 2.637-5.044 5.288-7.565 7.933a319.91 319.91 0 0 1-3.45 3.57c-.916.93-1.81 2.238-2.942 2.902.06-.788.541-1.346.713-2.077.1-.427-.075-.79-.01-1.2.02-.132.377-.594.43-.745.145-.4.322-.795.493-1.21.16-.387.137-.789.3-1.193.166-.418.624-.694.782-1.105.465-1.202-.304-1.76-1.535-1.732.482-2.406.692-3.583 3.202-4.432 2.399-.81 4.742-1.72 6.945-2.987 1.957-1.125 3.589-2.746 5.47-4 1.683-1.122 3.78-2.297 3.762-4.6.954.65 1.849 1.196 2.941.55.922-.546 1.044-.985 2.11-1.088.87-.083 1.408-.106 2.184.278.914.45 1.038.764 1.57-.563.605.51 2.133 2.634 2.082 3.475-.028.463-.098.672-.67.794-.813.173-.781-.446-1.378-.761M66.89 213.668c-.398.61-2.072.498-2.718.49-1.97-.026-2.66-1.684-3.524-3.286-1.363-2.525-3.4-7.77-1.165-10.42 1.766-2.092 5.204.543 6.408 2.123 1.04 1.365.73 3.412.827 5.05.082 1.38.956 4.84.172 6.043m-5.384.915c-.788.79-3.345.622-4.39.792-1.863.302-3.716.665-5.523 1.217-1.346.41-2.676 1.515-3.031-.365-.298-1.58-.15-3.476-.121-5.072.03-1.72.21-3.42.36-5.133.1-1.16-.153-3.29.791-4.18.814-.767 2.792-.84 3.848-1.094 1.734-.417 3.546-.965 5.348-.778-1.052 2.86-1.14 5.86-.013 8.711.321.814 3.217 5.414 2.73 5.902m-13.251-11.396c-.44 4.303-.882 8.633-.459 12.957.026.258.333 1.44.2 1.625-.139.191-1.233.29-1.481.349-.987.234-1.973.483-2.966.691-1.933.405-2.185-.818-2.564-2.614-.813-3.846.762-8.017 1.717-11.711.465-1.8.81-2.006 2.574-2.156 1.229-.103 3.165-.97 2.979.859m-7.465 16.053c-.738.674-1.477-2.503-1.542-2.827-.258-1.286-.114-2.59-.11-3.895.006-2.04-.15-4.07-.153-6.1-.002-1.098-.823-3.343.474-3.924.38-.17 1.892-.1 2.235.125.712.466.431.768.22 1.579-.472 1.82-.881 3.65-1.293 5.485-.403 1.8-.802 3.53-.61 5.39.064.614 1.25 3.738.78 4.167m23.557-20.05c1.8-.508 1.897.875 1.894 2.198-.275-.21-2.834-1.932-1.894-2.197m-24.087-97.132c-.44.729-3.235.928-4.034 1.12-1.571.377-3.143.751-4.71 1.144-2.936.736-5.8 1.566-8.809 1.95 1.653-2.65 2.167-4.94 1.86-8.25-.388-4.178-.881-8.313-1.841-12.403-.946-4.033-2.041-8.039-3.097-12.044-.518-1.968-1.078-3.899-1.768-5.814-.552-1.535-1.415-3.467-.477-5.04 2.38 1.74 4.29 3.616 5.647 6.26 1.455 2.834 2.724 5.744 4.413 8.455.772 1.24 1.673 2.37 2.498 3.57.492.715.85 1.745 1.475 2.347.721.694 1.49 1.021 1.903-.15.442-1.257-.969-3.745-1.385-4.926-1.006-2.85-2.003-5.694-2.779-8.618-.627-2.363-1.665-5.22-1.298-7.714.364-2.469 2.035-.702 2.88.446 1.745 2.366 2.788 5.124 3.934 7.807 1.053 2.464 2.28 4.814 3.446 7.221.405.838.94 3.002 2 3.251 1.544.363 1.413-1.815 1.266-2.7-.978-5.857-3.531-11.467-4.06-17.427-.026-.285-.395-2.5-.099-2.684.576-.359 1.352 1.888 1.6 2.438 1.29 2.863 2.19 5.881 3.015 8.906.701 2.571 1.336 5.163 2.124 7.71.432 1.4.928 2.778 1.417 4.16.443 1.25.892 3.389 2.045 4.213 1.637 1.17 7.493-1.611 8.087.875.422 1.767-5.009 3.19-6.165 3.727-1.523.706-3.016 1.48-4.54 2.187-1.153.535-2.81.754-3.644 1.76-.884 1.067-1.026 2.564-1.052 3.887-.02 1.001.672 3.472.148 4.336m-3.7 19.297c-.078.555-.519 1.29-.717 1.819-.403 1.077-.746 2.363-1.307 3.37-.483.865-1.195 1.64-1.662 2.52-.442.834-.501 1.796-1.018 2.631-.591.955-1.568 1.642-2.155 2.59-.29.469-.589 1.003-.998 1.501-1.448 1.766-2.885 3.432-4.05 5.324-.298.484-1.753 2.598-2.332 2.712-1.21.238.199-1.486.436-1.842 1.714-2.58 3.237-5.295 4.892-7.914 1.604-2.535 3.244-5.052 4.787-7.626 1.259-2.098 2.129-5.111 4.174-6.59a15.21 15.21 0 0 1-.05 1.505m55.914-23.702c.996 4.103 2.187 8.08 3.31 12.147 1.042 3.774 2.428 7.812 2.86 11.702.428 3.854 1.411 7.754 2.733 11.412.612 1.692 1.24 3.391 1.904 5.064.364.919.772 1.817 1.185 2.715.322.697 1.17 1.826 1.203 2.565.026.592.231.356-.352.8-.603.46-1.648.293-2.351.375-1.833.212-3.62.903-5.407 1.35-3.447.864-7.554 1.549-11.086.948-1.485-.252-3.028-.471-4.497-.8-1.807-.406-2.179-1.155-2.55-2.936-.81-3.891-1.51-7.773-2.18-11.69-.796-4.661-1.658-9.316-2.272-14.005-.621-4.744-1.067-9.492-2.04-14.184 3.924.658 7.62 1.4 11.555.323 3.485-.954 6.001-2.82 7.985-5.786m15.36 50.806c.878 1.812-1.237 3.441-2.261 4.837-1.352 1.84-2.614 3.761-4.186 5.425-.471-1.89-.885-4.018-2.143-5.571-1.607-1.983-3.482-1.173-5.451-2.111 2.064-1.007 4.7-.623 6.89-1.52 2.16-.885 4.342-1.58 6.352-2.73.267.556.53 1.114.8 1.67m-7.657 42.276c-1.32.074-.436-2.715-.35-3.408.235-1.905.473-3.81.68-5.718l3.264 8.631c-1.196.171-2.384.428-3.594.495m-2.146 13.792c.18.4 1.02 1.737.357 1.983-.909.338-1.018-1.875-.357-1.983m-1.574-30.994c-4.204 3.364-8.378 6.735-12.926 9.63-.996.635-2 .9-2.66-.357-.52-.99.029-2.104.362-3.072.85-2.469 2.328-4.615 3.967-6.624 3.274-4.013 7.171-7.44 12.143-9.022.814-.259 2.07-1.04 2.354.039.168.634-.542 2.218-.686 2.814-.594 2.459-.464 4.92-2.554 6.592m12.1 24.528c.092 2.856-7.698.552-8.669.042 1.019-.342 8.626-1.326 8.668-.042m2.893.018c.463.123 2.238.28 1.575.888-.594.545-3.281.326-3.994.393.479-1.575.842-1.702 2.419-1.281m-1.443-3.825c-.174.635-.245 1.604-.813 2.04-.708.542-2.213.213-3.014.217a43.18 43.18 0 0 0-4.075.212c-.518.052-2.617.686-3.103.253-.356-.317-.223-1.808.036-2.142.534-.689 1.762-.45 2.532-.478 2.817-.101 5.618-.11 8.437-.102m-1.809-10.556c-.397-.592-.468-.586-.638-1.48-.181-.958-.642-1.777-.914-2.702-.596-2.035 1.31-1.854 2.708-1.108 3.627 1.936 2.751 8.702 1.854 11.87-1.304-.96-1.785-1.397-2.233-2.947-.17-.589-.362-1.167-.54-1.753-.13-.431-.039-1.585-.237-1.88m.314-32.93c1.013-.123 1.94 3.025 1.65 3.707-.592 1.394-2.854 2.639-4.006 3.528-.768.592-1.53 1.272-2.35 1.788-.76.48-1.198.21-1.906.44-1.025.333-1.273 1.419-2.321 1.886-1.475.657-3.263.84-4.804 1.434-1.869.72-3.582.739-5.542.398-2.819-.49-6.123-1.892-5.869-5.324.448-6.056 12.45-9.16 15.722-4.025.852 1.337.839 2.895 1.392 4.33.599 1.554 1.18.944 2.08-.2 1.18-1.498 2.274-3.076 3.407-4.608.366-.496 1.817-3.265 2.547-3.354m-73.547 58.964c-.057 1.03.004 2.074-.353 3.057-.36.991-1.09 1.792-1.51 2.756-.853 1.952-.847 4.313-.813 6.405.08 4.866 1.23 9.593 1.838 14.401-2.025-.005-4.117.018-6.08-.562-1.752-.518-2.032-1.801-2.528-3.419-1.391-4.543-2.895-9.067-3.344-13.824-.214-2.268-.304-4.553-.406-6.828-.09-1.995.358-2.866 2.155-3.853 3.907-2.148 7.957-3.936 11.823-6.186-.395 2.67-.631 5.36-.782 8.053M201.741 50.285c-.951-.175-1.911-.284-2.871-.399-.501-.06-2.062.023-2.437-.304-.446-.389.327-3.333.366-3.964.242-3.8-.039-7.716-.387-11.5-.629-6.851-2.779-13.199-7.74-18.132-2.468-2.456-5.244-4.404-8.616-5.344-1.965-.548-3.989-.84-5.958-1.371-1.588-.43-3.07-.92-4.72-1.09-3.29-.34-6.299-1.586-9.51-2.307-2.363-.53-6.163-1.788-7.695.886-1.205-1.417-2.418-2.482-3.939-3.539-1.456-1.012-1.695-2.024-3.478-.855-3.466 2.272-6.711 5.044-9.948 7.629-3.023 2.414-5.948 4.942-9.117 7.162-3.231 2.265-2.618 6.107-1.099 9.293 2.86 5.997 7.269 11.123 11.129 16.263 2.418 3.22 4.843 6.444 7.251 9.67 2.303 3.084 4.294 6.653 6.984 9.423 1.696 1.747 3.72-.537 5.251-1.592 1.9-1.311 3.767-2.67 5.67-3.977 3.96-2.722 8.199-5.272 12.38-7.642l.913 2.593c-.918.069-2.16-.137-2.626.853-.668 1.413.97 1.599 1.257 2.409.257.724-.795 2.635-1.106 3.288-.7 1.469-1.677 2.736-2.754 3.946-4.258 4.787-9.648 8.21-15.116 11.474-5.851 3.492-12.123 5.625-18.529 7.875-3.257 1.144-6.638 1.675-10 2.408-3.239.706-6.475 1.633-9.785 1.9-6.771.544-13.957.953-20.647-.51-.732-.16-1.507-.508-2.252-.574-.597-.053-1.04.198-1.603.23-1.211.07-1.905-1.015-2.867-.007-.48.504-.49 1.35-1.16.41-.853-1.198 1.328-1.43 2.135-1.77 2.721-1.149 4.908-3.46 6.636-5.797 1.727-2.335 1.976-4.83.924-7.563-1.051-2.733-3.442-4.586-5.238-6.805-.868-1.075-1.667-2.212-2.62-3.215-.51-.536-1.33-1.049-1.361-1.59-.038-.627.338-.94.113-1.703-.058-.199-.307-.311-.36-.53-.084-.348.046-.646.002-.985-.1-.777-.404-1.265-.835-1.902-.268-.398-.66-1.195-1.03-1.493-.646-.522-1.528-.31-2.186-.839-1.04-.838-1.406-2.603-2.327-3.62-1.296-1.431-1.572.015-2.945-.441-1.174-.39-1.16-2.16-2.109-2.76-1.336-.843-2.461.709-3.648 1.054-1.56.455-.961-1.31-2.352-1.47-1.257-.146-2.997 2.408-3.624 3.315-.638-.745-1.337-2.016-2.485-1.56-1.206.477-1.42 2.701-2.302 3.495-.307.276-.242.48-.62.606-.488.164-1.138-.546-1.769-.33-1.272.437-1.117 2.14-1.12 3.242-1.501-.22-2.548-.332-3.05 1.29-.493 1.587-.68.886-2.262 1.402-1.365.444-1.556 1.743-1.781 3.013-.14.79-.01 1.112.201 1.832.268.908.268.896-.168 1.762-.76 1.51-.805 3.175-.927 4.838-.129 1.774-.439 3.389.064 5.121.312 1.073.335 2.532 1.383 3.132.416.238 1.122.108 1.476.344.675.45.47 1.137.92 1.795.336.492.88.54 1.257.94.41.434.435.964.669 1.494.692 1.57 1.343 2.33-.913 2.42-1.391.056-2.876.474-4.261.346-1.636-.151-2.043-1.068-2.563-2.462-2.624-7.03-4.033-14.649-7.489-21.333-.758-1.468-3.872-7.464-5.188-3.095-1.11 3.684.346 8.181.904 11.849-1.751-1.583-2.4-4.432-3.73-6.364-.982-1.428-4.058-4.933-5.862-2.924-1.421 1.583-1.066 4.94-.804 6.832.415 2.994 1.37 5.88 2.052 8.816-.86-1.126-1.283-2.5-1.878-3.767a25.07 25.07 0 0 0-2.742-4.494 26.382 26.382 0 0 0-3.092-3.395c-.86-.796-2.4-2.537-3.622-2.631-3.144-.242-2.156 5.537-1.677 7.19.993 3.425 2.069 6.755 2.84 10.249 1.506 6.826 3.33 13.494 4.44 20.407.245 1.533.541 2.756-.064 4.23-.533 1.297-1.086 2.85-2.07 3.848-2.226 2.26-4.074 4.673-5.738 7.397-1.783 2.916-3.618 5.867-5.073 8.963-.669 1.425-1.216 2.965-1.985 4.336-.694 1.237-1.529 2.214-2.022 3.583-2.358 6.543-4.104 12.971-4.903 19.9-.657 5.687-.045 13.253 6.808 14.584 3.148.612 5.974-.787 8.813-1.942 2.936-1.194 5.059-3.135 7.454-5.198 2.975-2.564 6.065-4.969 9.072-7.49 3.009-2.522 5.788-5.319 8.78-7.868 2.956-2.518 5.63-5.193 8.186-8.117 2.535-2.902 4.595-6.116 7.05-9.057-.01 3.809-.573 7.582-.732 11.386a127.827 127.827 0 0 0-.007 10.456c.14 3.484-.778 6.8-.786 10.275-.008 3.391-.142 6.762-.216 10.15-.033 1.519-.33 3.223.236 4.689.423 1.095 1.753 1.437 2.887 1.732 1.753.456 7.027-.422 7.81 1.455.427 1.024-.003 2.888.03 4.02.056 1.865.124 3.729.187 5.593.066 1.926.13 3.852.2 5.777.063 1.696.392 3.586.188 5.266-.175 1.44-1.012 1.251-2.34 1.325a515.8 515.8 0 0 1-6.011.288c-2.94.129-6.009.07-8.827.418-1.184.145-2.478.083-3.727.321-1.566.299-3.012.375-4.6.454-1.281.063-2.928-.03-3.934.919-.349.329-.427.721-.674 1.088-.464.686-.206.505-.966.66-2.97.603-5.792 1.283-8.696 2.297-1.454.508-2.803 1.19-4.264 1.668-1.28.418-2.218.934-2.851 2.193-1.13 2.25-.844 5.504-.762 7.928.128 3.782.967 7.382 1.871 11.04.94 3.805 1.678 7.712 3.508 11.208.6 1.148 1.25 2.614 2.478 3.213 1.585.772 4.024.304 5.754.307 1.161.002 4.272.401 5.14-.574.84-.945-.005-3.61-.124-4.783-.416-4.11-1.165-8.257-1.155-12.395.948 1.403 2.59 3.824 4.234 1.675.404-.529.246-.775.965-1.081.397-.17 1.235-.274 1.667-.244.589.04.807.277 1.348.16.478-.102 1.017-.532 1.566-.663 6.803-1.62 13.568-3.367 20.401-4.81 1.807-.383 1.55 1.007 1.67 2.573.131 1.73-.12 3.48.12 5.191.208 1.49.37 2.941.076 4.44-.346 1.767-.123 3.242.222 4.992 1.329 6.749 1.091 14.069 1.391 20.928.156 3.573-.179 7.22.157 10.774.126 1.342.874 2.083 1.177 3.304.348 1.402-.601 3.187-.89 4.545-.58 2.726-1.598 6.628.265 9 1.006 1.281 2.325 1.467 3.815 1.9 1.783.518 3.54 1.123 5.33 1.614 6.544 1.795 13.616 2.146 20.322 3.135 1.643.242 3.166.22 4.819.105 1.018-.071 3.528.265 4.375-.346.454-.327.224-.737.454-1.136.328-.568.725-.8 1.283-1.152.924-.585 1.992-.927 2.148-2.135.381-2.959-3.308-4.526-5.28-5.805-2.521-1.636-5.566-2.267-8.242-3.602-1.476-.736-2.9-1.57-4.322-2.406-.617-.362-1.867-.773-2.297-1.343-.438-.582-.009-1.413.173-2.245.75-3.436.496-6.95.884-10.424.388-3.478.282-6.979.41-10.475.132-3.6.429-7.193.656-10.788.21-3.321.422-6.696.457-10.02.033-3.082.452-6.107.551-9.21.034-1.053-.155-2.963.543-3.855.612-.782 2.638-.684 3.583-.82 2.547-.371 4.971-.696 7.49-.92 5.992-.531 12.66-.922 18.326-3.015 2.337-.863 5.446-2.043 6.222-4.732.891-3.091-.273-6.89-.311-10.05-.041-3.375-1.017-6.668-1.75-9.937-.788-3.52-1.284-7.1-2.136-10.607-.781-3.218-2.049-6.067-3.247-9.122-.487-1.24-3.256-5.508-2.397-6.561.463-.568 2.13-.711 2.806-.97 1.457-.56 2.917-1.195 4.26-1.99 1.795-1.063 5.723-2.821 5.904-5.182.173-2.257-2.04-4.537-3.165-6.31-1.812-2.855-4.097-5.352-5.823-8.264-3.488-5.885-6.262-12.332-8.805-18.674-1.33-3.318-1.765-6.443-1.984-9.985 3.863.01 7.795.486 11.633-.055 4.178-.59 8.36-1.582 12.502-2.4 7.54-1.49 14.78-3.17 21.766-6.525 6.541-3.14 13.179-6.578 18.595-11.563 2.8-2.578 5.657-5.205 8.076-8.153 2.484-3.028 4.353-6.469 6.27-9.868 2.115-3.752 3.8-7.696 5.13-11.8.268-.825.27-1.876.612-2.656.387-.88 1.09-.903 1.825-1.366 1.033-.652 1.721-2.835-.072-3.165M111.805 8.281c.883.76 4.69 3.438 5.919 2.787 1.516-.804-.885-3.225-1.531-3.822-.823-.76-3.763-3.057-4.89-2.844-2.25.426-.292 3.195.502 3.879"></path><path d="M113.685 35.766c.5-.984 1.826-1.346 2.44-2.298.738-1.145 1.077-2.147.805-3.55-1.89.637-4.04 2.566-5.304 4.075-1.056 1.261-2.558 3.896.2 3.902l-.072-1.125c.827.12 1.556-.262 1.931-1.004M104.683 19.394c1.218.35 2.224.3 3.469.328.903.02 2.137.518 2.869-.043-.65-.377.171-.398.01-.765-.135-.307-.391-.206-.6-.454-.743-.884-1.39-.873-2.569-1.057-.913-.143-2.257-.473-3.135-.018-.923.479-1.28 1.652-.044 2.009M122.024 46.503c.788-.662 1.647-2.58 1.806-3.568.062-.388-.216-.685-.183-.97.064-.544 1.178-1.594.01-2.04-1.02-.391-1.98 2.642-2.24 3.304-.267.677-.992 1.996-.77 2.65.185.544.845 1.071 1.377.624M131.449 5.45c.713-.663 1.164-1.415 1.09-2.327-.059-.718-.595-3.194-1.2-3.121-2.005.242-1.103 6.577.11 5.448M89.107 116.158c-.165-.605-.765-4.307-1.803-4.055-.788.192.03 3.45.068 3.878.076.897-1.644.867-2.443.746-1.268-.192-1.166-.936-1.355-2.09-.072-.437-.346-2.41-1.255-1.687-.613.488-.175 2.92-.123 3.475.177 1.922.385 5.204 1.525 6.95.454.696.863 1.04 1.341.147.483-.904-.61-3.657-.802-4.581.902.088 3.5-.206 4.044.734.496.857-.298 3.307 1.294 3.506.945.118.774-.98.683-1.822-.19-1.77-.709-3.492-1.174-5.2M91.526 115.302c-1.046.473.268 7.378 1.798 7.155 1.786-.26-.8-7.606-1.798-7.155M90.36 113.016c-.128 1.554 1.888 2.134 1.983.444.073-1.303-1.846-2.079-1.982-.444M79.296 71.8c.92 3.437 9.297 4.9 8.168.264-.565-2.32-2.925-.259-4.573-.529-1.067-.175-4.243-2.158-3.595.265M77.192 65.67c.394-1.84-3.62-3.87-5.076-3.363-2.131.741-2.122 5.478-.497 6.737.214.166.87.561 1.191.246.507-.498-.047-.362-.165-.86-.188-.79-.802-1.806-.19-2.706 1.155-1.7 4.174 2.58 4.737-.054M64.952 74.596c-1.447-.081-2.634 2.17-.504 1.981.407-.036 1.284-.138 1.52-.568.392-.711-.38-1.377-1.016-1.413M135.166 20.927c-.495-.718-1.534-1.874-2.427-1.153-.792.638-.654 2.215-.35 2.998.817 2.11 2.749 3.988 4.934 2.773-.759-1.524-1.187-3.212-2.157-4.618"></path></g></g></svg> 