<?xml version="1.0" encoding="UTF-8"?> <svg xmlns="http://www.w3.org/2000/svg" width="275" height="210" viewBox="0 0 275 210"><g fill="none" fill-rule="evenodd"><path fill="none" d="M-18-12h311v233H-18z"></path><path d="M148.133 54.263c4.518 3.14 10.57 1.3 14.959-1.064.263 1.83 3.702 1.657 4.933 2.54 1.942 1.39 4.117 3.923 5.64 5.768 3.517 4.26 5.691 10.215 7.66 15.32 2.028 5.257 4.532 9.766 9.745 12.689 1.684.944 3.315 2.21 5.044 3.096 2.066 1.06 4.46 1.577 6.733 1.407 2.708-.202 5.044-.286 7.698-.794 2.837-.542 5.865-1.11 8.675-1.025 2.085.064 4.19-.359 6.223-.263 1.248.059 2.484-.047 3.73.005.494.02.88.017 1.389.063 1.207.108 1.226-.022 1.404 1.042.209 1.258-.6 3.3-.68 4.592-.092 1.5.164 2.982.109 4.47-.062 1.672-.546 1.518-2.014 2.284-1.424.744-2.777 1.46-4.249 2.115-4.215 1.878-8.667 3.715-13.317 4.233-5.579.62-11.391-.038-16.935-.277-3.089-.133-6.29-.66-9.262-1.414-2.337-.594-6.127-1.8-7.953-3.36 2.09-.094 1.357-1.94.137-2.757-2.223-1.488-3.219-.773-2.687 1.721-2.616-.852-4.957-2.918-7.184-4.573-2.865-2.126-7.115-5.322-7.285-9.148-.191-4.314-5.299-13.022-4.767-8.481.477 4.08 2.271 9.596 0 13.418-.099-2.291-4.204-6.057-6.136-6.702-3.436-1.147-7.517-.97-11.097-.751-6.632.405-13.285 1.703-19.648 3.451-6.42 1.765-13.291 4.056-18.623 8.245-.657.516-1.27 1.371-1.939 1.816-.233.155-.931.067-1.263.239-.884.456.457.533-.996.64-.315.023-1.14-.312-1.354-.409-3.515-1.588-3.316-5.833-3.106-9.085.481-7.475 2.907-15.017 5.87-21.84 2.652-6.102 6.268-12.645 11.51-16.918 2.293-1.869 4.57-4.061 7.212-5.394 1.003-.505 2.808-1.297 2.412-2.81-.422-1.614-2.34-.828-3.69-.892-7.005-.336-12.653-3.27-17.957-7.732-5.436-4.573-11.148-6.117-17.896-7.845-1.942-.497-15.301-3.691-17.218-3.675-2.121.019-4.234.088-6.352.128-1.26.023-2.52.02-3.782.121-1.015.081-2.133.499-3.144.39-.948-.1-.874.179-1.34-.522-.328-.493-.24-1.514-.335-2.115l-.248-1.574c-.262-1.655-1.485-2.501-.137-3.17 1.98-.984 6.06-1.875 8.227-2.27 2.073-.377 13.814-3.173 17.738-3.934 1.955-.378 25.628-1.255 26.511-1.262 8.505-.058 26.642 4.603 30.717 8.328 4.074 3.726 4.079 6.427 5.84 7.934 1.967 1.684 4.63 3.779 6.015 5.962.936 1.475 1.295 5.38 3.209 5.955-1.39 4.426-.89 11.205 3.254 14.084z" fill="#FF9F9F"></path><g fill="#132573"><path d="M22.6 40.705c.54.124.801-.09.895-.645l-.895.645m7.067 131.604c-.479.027-.005 1.235.056 1.23-.02-.41-.038-.82-.056-1.23M160.179 22.874c.624.104 4.136 1.06 2.953-.89-.635-1.05-1.917.89-2.953.89m-11.604 23.59c-1.787.984 3.725 4.461 4.514 4.68.77.212 6.579.98 6.648-.295-2.027-.447-4.063-.177-6.05-.774-2.43-.73-3.369-1.933-5.112-3.611m86.876 53.694c.106-1.586.17-3.126.494-4.686.067-.324.615-1.819.493-2.013-.19-.304-1.647-.559-1.948-.661-.231 3.106-.494 6.202-.927 9.289 1.017-.35.752-1.744 1.888-1.93M45.439 27.418c0-1.699-.455-4.227-.795-5.877-.278-1.348-1.27-2.66-1.836-4.016-.177.934-.796 2.36-.598 3.312.259 1.24.85 1.037.85 2.564 0 .93-.155 1.987.015 2.9.333 1.8.868 1.512 2.364 1.118m131.294-13.113c-2.045-1.129-5.542 1.018-7.375 2.006-2.177 1.172-4.367 4.323-5.25 6.612.865-.096 1.596-.112 2.225-.576.324-.239.664-.913.97-1.232.788-.821 1.782-1.586 2.647-2.333 2.062-1.781 4.291-3.358 6.783-4.477m12.091 28.453c1.699-.298 3.657-1.066 4.143-2.972.47-1.842-.885-2.734-2.542-2.963-3.8-.527-6.37 4.967-1.6 5.935m-13.263-5.685c1.874 1.303 3.922 1.139 5.777-.318 1.486-1.165 2.936-3.159 1.253-4.584-2.706-2.29-6.583 2.396-7.03 4.902m80.824 144.213c-1.174.071-3.065 1.292-4.094 1.894-1.29.755-2.648 1.55-3.897 2.246-2.59 1.445-5.501 3.066-8.373 4.15-2.817 1.061-5.657 2.397-8.533 3.653-1.23.537-2.952 1.165-4.347 1.02-1.277-.134-2.618-1.442-3.761-2.014-1.777-.89-2.931-2.044-4.35-3.468-.619-.62-2.193-3.225-3.027-3.322-.714-.084-2.663 1.47-3.22 1.804-.86.516-2.16 1.362-2.977 2.01-.81.642-.854.17-.91 1.013-.04.573 1.28 1.698 1.687 2.16 1.366 1.551 2.793 3.07 4.084 4.688 1.108 1.39 2.14 2.883 3.092 4.385.924 1.456 2.635 3.142 3.008 4.845 2.148-2.095 4.258-1.074 6.959-1.705 1.169-.274 2.208-.92 3.303-1.302.913-.319 1.893-.423 2.833-.63 4.168-.917 8.212-2.71 12.11-4.315.911-.375 1.667-1.091 2.546-1.524.943-.464 1.973-.62 2.923-1.046a268.076 268.076 0 0 0 7.342-3.429c2.594-1.261 5.327-2.352 7.872-3.683 1.538-.804 4.52-2.245 5.23-3.948-1.698.303-3.124 1.267-4.697 1.755-2.774.86-2.638-1.742-2.638-3.724-.928 0-2.793 1.326-3.681 1.738-1.148.531-2.653 1.936-3.927 2.03-3.153.234-1.63-3.897-.557-5.281M145.002 40.254c-1.76-.53-2.113-3.883-2.859-5.27-1.1-2.045-3.208-3.702-4.89-5.3-1.547-1.47-3.204-2.715-4.94-3.95-1.777-1.264-3.007-2.928-4.642-4.323-6.828-5.825-15.166-7.796-23.978-8.1-8.852-.307-17.786.667-26.68 1.234-1.134.072-2.147.103-3.278.294l-.814-.245-.63.45c-.435.065-1.056.131-1.457.209-2.073.4-4.145.933-6.216 1.4a840.38 840.38 0 0 1-13.064 2.821c-1.056.22-3.623.362-4.45 1.03-.643.517-.403.72-.253 1.671l.414 2.623c.268 1.698.152 2.284 1.994 2.108 1.584-.151 3.128-.43 4.73-.503 2.303-.105 4.644-.238 6.947-.193 2.282.045 4.91-.332 7.144.251-.689-1.438-1.094-5.793.733-2.78.86 1.418.647 3.154 2.494 3.66 1.505.412 3.144.653 4.696 1.044 6.118 1.543 12.495 2.607 17.715 6.624 5.115 3.937 9.771 8.469 16.32 9.906 1.57.345 3.48.546 5.133.625.963.046 2.878-.535 3.532.332 1.59 2.103-4.296 4.577-5.476 5.625-2.398 2.13-5.11 3.795-7.186 6.28-2.17 2.598-4.035 5.43-5.633 8.392a75.305 75.305 0 0 0-7.613 21.153c-.698 3.512-1.488 7.535-.86 11.129.254 1.45 1.07 2.893 2.324 3.72.408.269.92.455 1.392.596.445.146.902.232 1.371.258.052-.262.152-.504.3-.726.331-.171 1.03-.083 1.263-.238.668-.445 1.28-1.302 1.937-1.819a31.088 31.088 0 0 1 3.626-2.473c3.163-1.826 6.607-2.9 9.991-4.049 6.968-2.364 14.267-4.303 21.665-5.025 3.904-.38 8.293-.615 12.162.107 2.495.466 7.558 2.649 7.689 5.666 2.262-3.814.828-7.826.342-11.903-.543-4.556-1.475-8.86.061-13.356 1.045-3.059 2.842-7.095 5.896-8.657 1.094-.56 3.428-.222 2.618 1.627-.02.047-1.544.911-1.76 1.162-.742.86-1.303 1.984-1.855 2.97-4.39 7.848-.484 16.416-.196 24.744.134 3.845 4.423 7.03 7.281 9.157 2.221 1.651 4.57 3.725 7.181 4.577-.532-2.498.463-3.212 2.686-1.723 1.219.817 1.952 2.665-.137 2.758 1.647 1.41 5.01 2.503 7.104 3.045 2.453.636 4.963 1.203 7.517 1.563 5.102.719 10.296.49 15.425.543 5.281.054 9.688-1.351 14.54-3.176 2.226-.838 4.32-1.806 6.438-2.907.718-.373 2.348-.806 2.743-1.624.51-1.052-.252-3.782-.206-4.986.048-1.281 1.002-3.944.71-5.111-.278-1.118.429-.333-.711-.892-.308-.15-.999-.23-1.376-.272-2.11-.237-4.605-.042-6.655.221-2.349.302-4.525-.105-6.809.164-3.17.373-6.423.933-9.485 1.837-4.832 1.427-9.304 1.326-13.623-1.404-1.826-1.155-3.978-2.34-5.543-3.92-2.105-2.125-3.647-5.149-4.835-7.86-2.614-5.967-4.519-12.231-8.097-17.736-1.534-2.359-3.667-4.279-5.637-6.287-.932-.95-1.468-1.498-2.744-1.906-1.03-.33-3.12-.43-3.322-1.83-4.387 2.366-10.434 4.206-14.95 1.066-4.141-2.88-4.642-9.672-3.254-14.098m-.227 57.015c-5.717.629-11.253 1.1-16.876 2.397-5.672 1.307-11.59 3.302-16.974 5.27-2.112.773-4.789 1.318-6.7 2.513-1.42.888-1.243.854-.224 2.489.682 1.095 1.255 2.32 1.985 3.371 2.965 4.272 7.027 7.927 10.436 11.803 3.766 4.282 8.178 8.522 12.494 12.275 4.15 3.609 8.243 7.475 12.656 10.718 9.2 6.76 18.516 13.425 28.076 19.667 5.31 3.467 10.492 7.019 15.817 10.51 2.768 1.815 5.35 3.82 8.292 5.336 3.034 1.565 6.742 3.756 9.24 6.067 1.744-3.072 5.431-5.06 8.19-7.047.552-.397 1.144-.933 1.672-1.378 1.004-.846 1.055-.705.518-1.674-.59-1.065-2.2-1.923-3.043-2.804-.771-.806-1.28-1.623-1.98-2.485-2.33-2.87-5.33-5.251-7.937-7.86-2.51-2.513-4.843-5.064-7.297-7.739-1.215-1.325-2.595-2.278-3.76-3.619-1.618-1.862-3.214-3.769-4.811-5.65-2.867-3.375-5.275-6.957-8.065-10.349-5.075-6.172-8.925-13.15-13.368-19.772-2.726-4.063-6.097-7.856-8.576-12.08-1.365-2.328-2.68-4.646-3.658-7.189-.558-1.448-.423-1.561-1.783-1.985-1.313-.409-2.97-.692-4.324-.785m-71.026 59.28c2.894-.278 5.871.68 8.68.797 2.73.115 5.524.411 8.26.232 3.002-.196 6.022-.19 9.013-.097 3.242.1 6.33-.423 9.455-.88 3.16-.461 6.6-1.892 9.688-2.808 1.827-.541 3.584-1.244 5.42-1.754 1.856-.517 3.335-1.744 5.027-2.686 1.154-.642 3.6-1.42 3.088-2.742-.455-1.174-3.49-2.938-4.482-3.79-2.936-2.524-5.912-5.028-8.632-7.797-5.767-5.874-11.264-11.733-16.136-18.362-1.158 3.262-2.436 6.573-4.995 9.056-2.174 2.11-4.68 3.919-7.003 5.84-4.51 3.732-9.937 6.39-15.325 8.54-2.665 1.063-5.243 1.745-7.93 2.686-1.271.445-2.625.358-3.818.638-1.807.423-3.694 1.3-5.524 1.813-2.58.726-5.188 1.235-7.885 1.004-3.51-.301-6.428-2.015-9.625-3.255.166 1.238-.789 5.63-.08 6.556.392.514 2.903.725 3.681.898 3.175.706 6.554 1.133 9.726 1.542 3.363.434 6.536 2.093 9.818 2.864 3.097.729 6.518 1.407 9.579 1.706m-56.521 18.07c.202 2.351.497 5.904 2.407 7.595.732-1.769.326-4.16.65-6.045.193-1.122.454-2.228.726-3.333.155-.628.25-2.438.579-2.802 2.363-2.618 2.842 5.173 3.11 6.079.873-2.101.585-4.433 1.362-6.486.929-2.455 2.381-.48 3.173 1.062.234-3.39-1.103-6.807-1.056-10.262.051-3.684.68-6.135 3.513-8.616 1.354-1.186 4.972-2.637 5.623-4.129.111-.253.083-2.123.01-2.384-.303-1.096-.19-.87-1.526-1.19-1.17-.28-2.26-.656-3.444-.831-3.226-.476-5.712-.544-8.446 1.457-2.844 2.082-4.196 5.785-4.954 9.109-1.55 6.79-2.264 13.829-1.727 20.776m223.35-74.985c4.832-.614 9.616-2.583 14.382-2.91 2.866-.198 6.06-.852 8.868-1.45 1.846-.395 5.703-.719 6.734-2.498-1.245.382-2.887 1.251-4.188 1.285-.957.025-1.29.205-1.48-1.103-.09-.626.115-1.377.496-1.869.657-.847 2.063-1.262 3.018-1.8a45.442 45.442 0 0 0 3.697-2.35c-.37-.913-5.536.92-6.345 1.21-1.004.359-2.02.707-2.983 1.165-.632.3-1.728 1.271-2.441 1.245-1.804-.065-1.642-2.233-.768-3.48 1.239-1.764 3.707-3.078 5.37-4.45-1.778.076-3.393 1.11-5.026 1.73-1.805.684-3.635 1.462-5.401 2.226-4.335 1.874-8.953 3.159-13.36 4.968 1.325 2.251-.182 3.36-2.346 2.532-.326 1.899-.454 3.833-.454 5.755l2.227-.206M39.696 23.003c.024-.416.34-2.445-.034-2.796-.131-.123-2.24.173-2.447.203-1.371.2-2.504.712-3.788 1.257-3.143 1.334-6.32 2.536-9.457 3.879-5.872 2.513-11.688 4.848-17.17 8.116 4.074-.344 8.241-1.52 11.95-3.232 1.569-.725 7.457-5.596 7.63-1.358.077 1.876-1.544 2.543-2.913 3.447-1.676 1.106-3.319 2.203-4.875 3.47-.828.673-7.428 5.094-7.108 5.802 1.676-.4 3.478-1.66 4.954-2.539 1.643-.978 3.367-1.848 5.063-2.738.926-.485 3.037-2.17 4.054-1.433 1.762 1.277-.653 3.65-1.446 4.523 1.542-.16 3.608-2.396 4.808-3.328 1.517-1.18 3.112-2.232 4.652-3.393 1.61-1.212 3.295-2.35 4.929-3.533 1.526-1.105 1.278-1.099 1.129-2.92-.094-1.143.003-2.286.07-3.427m66.74 77.966c1.986-.203 3.766-1.42 5.672-1.801 1.878-.376 3.651-1.417 5.499-2.008 2.43-.778 4.888-1.353 7.398-1.791 2.106-.369 4.14-1.167 6.248-1.41 4.35-.504 8.504-1.086 12.884-.466 2.168.307 4.067.76 6.006 1.793 2.158 1.149 2.37 1.092 4.688.076-.724-1.942-3.473-3.232-5.317-3.627-2.778-.596-5.69-.327-8.52-.233-4.887.162-9.96 1.22-14.642 2.53-8.976 2.513-17.602 5.44-25.852 9.627.698.955 1.434-.206 2.243-.697 1.181-.718 2.489-1.296 3.694-1.993m76.357-72.494c-1.566-.308-3.131-.432-4.695-.803-1.975-.469-2.84.244-4.68 1.16.737.334 1.674.912 2.457 1.114 1.378.355.917.068 2.227-.455 1.163-.464 3.351-.65 4.547-.408 3.203.647 2.69 4.414 2.383 6.925 1.578-.764 1.778-2.202 2.34-3.666.607-1.584 1.26-3.022 1.728-4.67-1.999.521-4.231.825-6.307.803M207.94 88.16c5.683-2.114 12.065-1.574 17.911-2.067 2.25-.19 5.36.15 7.574.868 1.061.344 2.256.596 3.262 1.062.54.25.977.851 1.532 1.037 1.088.363 1.032.15 2.198-.487a64.669 64.669 0 0 1 3.103-1.592c6.355-3.037 12.768-5.73 19.308-8.263 1.698-.658 3.387-1.1 5.132-1.674 1.102-.363 3.028-1.101 4.214-.726 4.132 1.31-1.88 6.228-3.235 7.494 1.686-.078 4.783-.862 5.758 1.006.405.775.263 1.908-.1 2.683-.265.568-.844.896-1.136 1.431-.55 1.01-.338.648-.254 1.66.231 2.809-.32 4.053-2.67 5.855-2.222 1.703-5.095 2.43-7.743 3.175-4.633 1.304-9.494 1.674-14.186 2.8-2.206.529-4.51.871-6.722 1.27-2.457.445-5.348.101-7.428 1.46-4.158 2.716-7.97 6.106-12.584 8.07-4.072 1.734-7.869 2.583-12.245 3.331-4.119.705-8.385.205-12.363.306-4.651.118-8.966-.198-13.4-1.534-4.51-1.358-8.86-3.096-12.695-5.694-2.168-1.467-4.326-2.882-6.366-4.534-2.487-2.016-4.18-4.404-6.04-6.994-1.07 1.148-1.924 1.786-3.322 2.52 4.27 4.674 7.876 10.095 11.929 14.96 1.689 2.03 3.09 4.216 4.691 6.287 1.585 2.05 2.64 4.586 4.38 6.494 1.624 1.78 2.724 3.843 4.102 5.818 1.689 2.423 3.96 4.542 5.759 6.9 1.855 2.433 3.755 4.834 5.77 7.116 1.868 2.114 3.856 4.198 5.603 6.396 3.554 4.47 7.766 8.51 11.808 12.547.828.828 1.739 1.63 2.474 2.542.542.672 1.07 1.118 1.723 1.818.548.587 1.216 1.612 1.664 2.322.79 1.253 1.262 1.803 2.3 2.886.684.714 2.05 2.136 1.756 3.245-.18.68-1.006.703-1.238 1.271-.13.317.138.72.127 1.039-.048 1.56.711 1.992 1.96 3.135 1.258 1.153 2.884 2.074 4.366 2.934 1.118.648 2.278 1.53 3.516.938.86-.412 1.754-1.196 2.66-1.661 2.29-1.178 4.765-2.235 7.1-3.184 5.222-2.121 10.455-4.43 15.467-7.148 2.827-1.533 5.91-3.051 9.023-3.79 1.402-.334 2.881-1.171 3.913.072 1.025 1.234.364 2.916-.21 4.163 1.45-.208 3.37-.616 4.31.816.354.541.124 1.972.512 2.287.171.14 1.556-.164 1.83-.092 3.533.927 2.301 6.144.524 8.108-4.061 4.49-10.12 6.703-15.406 9.289-1.383.676-2.784 1.255-4.209 1.811-1.825.713-3.495 1.614-5.348 2.279-3.087 1.109-6.07 2.719-9.08 3.943-3.071 1.25-6.492 1.874-9.72 2.8-2.737.787-8.547 2.581-8.607-1.825-2.584 2.005-5.888-4.54-7.203-6.085a128.475 128.475 0 0 1-3.493-4.252c-1.027-1.317-2.037-4.52-3.384-5.38-.822-.524-1.732.526-2.998.776-2.197.435-3.286-.181-5.139-1.198-3.394-1.862-6.525-4.153-10.005-5.865-3.446-1.695-6.386-4.153-9.618-6.213-3.096-1.974-6.446-3.62-9.354-5.812-5.701-4.3-12.331-7.27-17.68-12.047-2.758-2.462-5.994-4.512-8.937-6.795-1.34-1.04-2.759-1.925-4.151-2.888-.784-.542-1.538-1.347-2.396-1.76-.852-.408-.42-.569-1.216-.26-.454.176-.975.996-1.348 1.327-5.527 4.891-11.768 7.204-18.743 9.386-1.579.494-3.048 1.03-4.651 1.449-1.529.398-2.648 1.085-4.312 1.324-3.07.443-6.093.467-9.184.485-3.044.018-6.175.064-9.131.326-3.042.27-6.206-.249-9.192-.495-1.51-.124-3.073-.347-4.587-.577-1.476-.223-2.723.06-4.175-.097-4.084-.444-7.72-1.366-11.61-2.693-3.551-1.21-7.177-1.429-10.77-2.44-1.91-.537-4.073-.98-5.833-1.879-1-.51-2.472-2.348-2.922-1.045-.533-.686-.874-1.499-.815-2.38-1.367.333-2.058 2.092-3.06 3.013-1.112 1.02-2.206 1.69-2.963 3.072-1.695 3.093-.594 7.319.074 10.563.7 3.403 1.333 7.252.929 10.725-.148 1.266-.485 3.117-2.048 3.2-1.592.085-2.523-2.404-3.087-3.495-1.218 2.892-2.816 3.91-5.129 1.448-.44 1.64.745 8.268-2.559 7.501-2.477-.575-4.542-5.973-5.279-8.002-2.425-6.678-2.043-14.345-1.204-21.287.815-6.733 1.57-14.14 7.049-18.967 2.37-2.088 4.682-2.43 7.687-2.354 3.02.077 7.26 1.422 9.273 3.72.498-.85-.502-1.772-.1-2.651.537-1.175 1.659-.683 2.746-.417 2.457.6 4.74 1.721 7.27 2.145 1.295.217 2.629.15 3.925.282 1.14.115 1.444-.177 2.434-.351.78-.137 1.965.058 2.701-.197.308-.107.822-.66 1.206-.847.626-.305 1.563-.444 2.25-.542 4.133-.586 8.085-2.178 12.088-3.534 4.863-1.647 9.587-3.235 13.9-6.162 3.948-2.68 8.2-5.323 11.46-8.828 1.463-1.572 2.31-3.376 3.101-5.331.696-1.719-.203-1.94-1.047-3.535-.74-1.401-.872-2.723-2.15-3.57-1.866-1.237-4.074-1.475-5.908-2.926-2.255-1.784-2.178-4.626-2.674-7.343-1.016-5.555-.2-12.262 1.185-17.679 1.52-5.95 3.744-11.706 6.739-17.067 2.823-5.055 6.641-8.846 10.744-12.816-1.031-.714-2.812-.821-4.041-1.37-1.794-.8-3.263-1.987-4.826-3.09-2.92-2.06-5.566-4.312-8.701-6.048a54.881 54.881 0 0 0-9.087-4.017c-1.575-.529-3.442-.395-5.091-.833-1.287-.342-2.75-.55-3.996-1.008-.643-.235-1.206-.753-1.87-.9-7.203-1.594-15.178-1.277-22.659-1.317-1.598-.009-4.149-.475-5.632.217-1.548.723-3.283 2.505-4.67 3.528-3.263 2.408-6.71 4.498-9.879 7.014-3.752 2.979-7.585 5.931-11.475 8.738-1.334.963-3.77 3.296-4.858.932-.934-2.028.945-4.063 1.629-5.792-1.924 1.097-5.941 4.139-6.944.62-.97-3.402 2.106-6.592 4.122-8.902-2.262.46-6.62 1.734-8.666.168-2.097-1.605-.298-5.11 1.195-6.34 4.548-3.753 10.616-6.064 16.06-8.181 5.525-2.149 11.09-3.757 16.758-5.261 1.166-.31 2.169-1.292 3.379-1.4 1.394-.125.883.785 1.546-.759.288-.671.182-1.492.56-2.135 1.846-3.125 4.213 1.545 4.924 3.178 3.942-1.613 7.96-2.375 11.988-3.562 3.183-.939 6.456-1.964 9.677-2.87 1.735-.489 3.49-.733 5.244-1.055 1.676-.308 3.668-.806 5.452-.978 3.043-.293 6.269-.577 9.268-.646 14.65-.338 30.225-1.267 42.094 9.154 0 .95 3.055 3.52 3.81 4.044 2.1 1.46 3.964 2.893 5.912 4.627 2.106 1.874 3.79 3.494 5.039 6.039 1.075 2.193 1.338 4.613 1.912 6.966 1.53-1.737 2.002-.103 2.297 1.327.317 1.537.694 2.46 1.68 3.72 2.105 2.695 4.87 4.108 8.254 4.441.621.061 2.677.236 3.255-.001 1.048-.43.735-.686 1.185-1.84.343-.88.848-1.525 1.295-2.34.547-.388.753-.906.62-1.555l.044-.857c1.138-.665 2.433 2.402 2.852 2.955 1.213 1.605 2.522 1.877 4.493 1.877-.129-1.073-.414-1.134.601-1.625.626-.303 1.524-.09 2.118.15 1.707.69 1.67 1.029 3.6.24 1.426-.582 2.703-1.34 3.995-2.17 1.098-.707 1.271-.827 1.693-2.063.323-.946.27-2.204.391-3.185-1.302.779-2.065 2.281-3.495 3.054-1.45.784-3.199 1.274-4.777.553-3.285-1.502-2.36-5.656-1.39-8.29-1.502-.257-3.074-1.147-4.035-2.32-.646-.79-1.114-1.774-1.805-2.676-1.577-2.056-5.653-2.549-6.426.592-.393 1.599.54 2.17 2.013 2.373 1.752.242 2.18-.188 1.541 1.875-.703.36-.921.922-.655 1.685l-.131.76c-.16.64-.502 1.134-.688 1.748-.53 1.74-.622 2.217-2.598 2.747-3.465.93-7.49 1.416-11.064 1.721-1.188.102-2.448.09-2.054-1.518.325-1.328 2.538-1.777 3.66-2.186 1.3-.475 3.701-.696 4.815-1.381 1.187-.73 1.073-2.057.807-3.467-.332-1.76-.67-3.1-.616-4.99.06-2.072.807-2.823 2.046-4.463-3.266.903-6.911 3.264-10.302 3.26-4.511-.007-3.675-4.627-2.775-7.666-1.649.278-4.207.963-5.015-1.092-.946-2.404 1.412-5.179 2.86-6.781-1.897-.184-3.706.272-4.397-2.007-.481-1.586.11-3.458 1.204-4.655 2.867-3.135 7.323-3.761 11.25-4.203 2.172-.245 4.386-.448 6.565-.244 2.112.197 3.766 1.084 5.694 1.974 2.015.93 3.384 2.23 4.73 4.006.632.835 1.16 1.644 1.514 2.636.173.484.335 2.877.716 3.15.563.406 4.016-1.006 5-.967 1.086.044 1.76.381 2.403 1.29.348.493.702 2.313 1.353 2.512.315.096 2.278-.71 2.739-.78.67-.102 1.319-.25 2.006-.315 2.135-.205 4.353-.262 6.424.39 4.132 1.302 6.487 5.037 5.406 9.437-.201.82-.764 1.419-1.011 2.196-.332 1.045-.211 2.14-.46 3.22-.525 2.277-1.498 3.629-3.471 4.812 6.342 5.03-.537 16.458-7.089 10.692-1.862 2.6-5.916 4.46-8.957 5.184-4.098.975-7.903.404-10.095-3.362-.248.646-.652 1.342-.774 2.015l-.29.75c-.286.38-.148.599.414.657.383 1.079.664 1.188.1 2.493 4.187-1.445 8.602 2.312 11.493 5.097 1.948 1.876 2.984 4.628 4.204 6.976 1.431 2.754 2.52 5.632 3.842 8.432 1.188 2.516 1.92 5.249 3.217 7.709 1.227 2.328 3.21 4.007 5.27 5.499 1.908 1.383 3.824 2.766 6.267 3.342 2.784.655 5.89-.273 8.612-.968"></path><path d="M21.294 100.866c.216-3.418 5.404-6.53 7.756-8.622 3.05-2.714 6.112-5.454 9.46-7.85 8.388-6.002 17.103-11.407 26.388-15.891 1.42-.686 11.775-5.58 12.06-2.815.171 1.656-4.044 2.484-5.196 2.98-2.527 1.086-4.924 2.452-7.365 3.696-7.326 3.73-13.971 9.005-20.753 13.775-4.048 2.847-7.834 6.064-11.843 8.952-2.136 1.538-4.014 3.368-6.078 4.963-1.471 1.138-3.722 3.54-4.429.812M196.516 123.063c1.147-.463 2.469 4.174 2.97 5.002.954 1.577 1.999 3.208 3.157 4.636 2.677 3.302 5.393 6.466 8.55 9.33 3.024 2.745 6.44 5.344 10.07 7.267 1.045.554 8.876 3.036 5.925 5.514-.913.766-3.77.04-4.748-.265-1.692-.527-3.566-1.406-5.115-2.26a38.987 38.987 0 0 1-8.89-6.714c-2.977-3.018-5.41-6.33-7.805-9.813-2.15-3.126-5.438-8.843-4.114-12.697M65.708 84.293c-.453.985-1.234.717-2.079 1.031-1.313.488-2.561 1.38-3.777 2.076a224.442 224.442 0 0 0-6.936 4.148c-4.248 2.638-8.351 5.495-12.143 8.755-2.389-2.393 9.573-10.823 11.144-11.83 2.348-1.504 4.785-3.057 7.304-4.267 1.976-.95 6.4-3.53 6.487.087M211.55 129.726c1.585-.326 2.041 2.147 2.701 2.92 1.049 1.227 2.385 2.276 3.637 3.252 1.525 1.188 2.898 2.413 4.5 3.5 1.302.884 4.171 2.262 3.924 4.205-.563 4.442-8.59-1.95-9.941-3.28-1.926-1.894-7.558-7.774-4.822-10.597M229.674 139.48c-1.092 3.791-8.438-2.98-7.88-5.705.507-2.474 3.162.086 4.28 1.025 1.541 1.295 3.527 2.576 3.6 4.68M59.26 98.239c-1.716-.487-5.965 1.658-3.391-1.616.735-.935 1.565-1.827 2.59-1.328 1.039.505 1.567 2.086.802 2.944M166.4 51.616l-1.217.505.436-1.212c.153.407.413.642.78.707M80.614 8.245c-.937.167-1.788.197-2.738.167.927-.161 1.8-.158 2.738-.167M13.188 168.182l.09 2.424-.09-2.424M196.924 22.424l-.051-2.121c.286.703.225 1.411.051 2.121M83.96 8.111l-2.13.01c.814-.24 1.546-.243 2.13-.01M88.714 87.879l-.078 1.818.078-1.818M102.517 7.356l-1.826.137 1.826-.137M104.95 7.49l-1.825-.131 1.825.13M27.074 137.465c-.612.013-1.237.224-1.825-.152l1.825.152M271.654 83.687c-.59.39-1.217.086-1.825.13l1.825-.13M150.58.643c-.583.397-1.211.161-1.824.142l1.825-.142M52.323 140.536l-1.521.015c.505-.28 1.013-.229 1.521-.015M142.367 11.079l.913-.037-.913.037M96.128 7.37l-1.216.17c.368-.445.812-.102 1.216-.17M212.334 87.046l-1.217.15 1.217-.15M24.945 181.999c.305-.02.61-.04.912-.058l-.912.058M214.463 86.8l-1.216.037 1.216-.038M158.07 34.848l-.072 1.213.071-1.213M90.957 163.507l.912-.045-.912.045M5.171 38.337l.913-.007-.913.007M229.978 86.332l-1.217-.002c.406-.201.812-.416 1.217.002"></path><path d="M229.458 139.394l-.042-1.212c.254.397.292.8.042 1.212M222.981 86.145l-1.217.134 1.217-.134M65.875 84.242l-.03-1.212.03 1.212M42.284 31.378c.204-.01.408-.02.609-.028l-.609.028M109.21 8.123l-1.218-.185 1.217.185M30.725 137.503l-1.217-.158 1.217.158M64.491 137.655l-1.217.144 1.217-.144M227.24 86.102c-.404.292-.81.293-1.217.007l1.217-.007M56.886 139.697c-.152.459-.572.261-.913.257l.913-.257M143.584 19.565l.608-.039-.608.039M87.61 7.652l-1.216.15 1.217-.15M237.279 104.08l.608.022-.608-.023M149.364 41.357c.204.005.408.01.608.013l-.608-.013M55.365 158.918l.608.042-.608-.042M218.114 86.617l-1.217-.004c.407-.314.812-.214 1.217.004M257.965 100.78l.608-.044-.608.043M264.049 173.1l-1.217.164 1.217-.164M185.564 13.412l-1.217.146 1.217-.146M106.471 100.92c-1.235.685-2.57 1.259-3.786 1.959-.859.494-1.558 1.656-2.298.685 1.63-.793 4.27-2.815 6.084-2.645M28.218 162.121a2.983 2.983 0 0 1 .024-2.121c-.007.708-.016 1.415-.024 2.121M29.746 172.121l.063 1.212c-.068.005-.594-1.186-.063-1.212M39.65 24.545l.098-1.515-.098 1.515M93.39 157.485l1.522-.121-1.522.12M17.423 175.455l.137 1.212-.137-1.212M73.921 156.586l1.217-.142-1.217.142M70.271 155.869c.401.095.859-.339 1.217.164l-1.217-.164M17.223 167.273l-.071.909.071-.91M25.993 36.06c.01.304.021.608.033.91-.01-.305-.022-.607-.033-.91M21.383 170.91l.127-.91-.127.91M17.144 173.636l.087.91-.087-.91M238.553 98.182c.259.302.245.606.006.909l-.006-.91M145.41 97.15l-.61-.057.61.056M12.472 32.351l1.217-.157-1.217.157zM216.4 103.006c-2.252.326-.176-2.778.435-3.208.71-.5 1.461-.7 2.15-1.301.43-.376.918-1.284 1.579-1.221 1.457.136.8 2.218.365 3.111-.851 1.748-2.633 2.65-4.529 2.62M143.31 67.273c-1.325-.469-8.028-1.738-5.06-4.441 1.962-1.787 7.41 2.78 5.06 4.44M112.56 88.445c-.207-2.362 6.226-4.978 5.397-1.875-.192.721-2.015 2.502-2.513 2.973-1.332 1.263-2.883.988-2.884-1.098M52.323 23.16c.436-1.53.916-2.25 2.44-2.841.973-.379 2.586-.722 2.727.857.104 1.165-1.547 2.3-2.345 2.795-1.429.888-2.215.84-2.822-.81M139.32 79.503c.016 1.607-.548 3.495-1.968 4.46-1.112.756-3.64 1.11-2.681-1.077.292-.667 1.117-.997 1.622-1.49.83-.814.898-1.695 1.363-2.456.158-.26-.093-.876.406-1.028.833-.254 1.317 1.008 1.259 1.591M169.499 66.364c1.146-.002 2.23.408 1.563 1.712-.505.988-2.701 1.746-3.695 1.885-1.275.177-2.7-.215-2-1.825.583-1.34 2.869-1.461 4.132-1.772M178.872 87.577c-.048 2.945-5.376-.133-4.828-2.343.691-2.784 4.4 1.042 4.828 2.343M117.725 35.754c0 2.502-5.294-.702-4.838-2.89.61-2.918 4.948 1 4.838 2.89M112.504 25.152c-2.237-1.781 2.89-6.363 4.363-4.346 1.334 1.828-3.014 4.237-4.363 4.346M114.05 62.727c-1.226-.11-2.639-.097-3.717-.797-.788-.51-2.154-2.483-.955-3.335.738-.524 2.602.969 3.358 1.36 1.29.67 2.148 1.086 1.314 2.772M165.928 79.394c-2.888.037-3.8-3.439-.322-2.99.925.119 3.205.34 3.227 1.554.025 1.399-1.814 1.256-2.905 1.436M136.587 47.369c-.207 1.32-.566 2.29-1.729 3.062-1 .663-2.963 1.546-2.827-.435.08-1.178 4.022-5.589 4.556-2.627M80.369 19.394c1.149.548 2.65 6.387 1.109 6.9-2.45.817-1.894-5.866-1.109-6.9M130.297 74.242c-1.785-2.017 2.892-6.029 4.018-3.976.93 1.695-2.934 3.26-4.018 3.976M98.264 20.749c.315-3.092 3.883 1.473 3.631 2.96-.441 2.603-3.796-1.576-3.631-2.96M100.996 97.648c-.02 2.064-4.087-.076-3.612-2.255.535-2.46 3.581 1.105 3.612 2.255M183.13 99.095c1.206-3.59 1.911-1.148 2.25 1.118.108.724.598 2.726-.662 2.496-1.172-.214-1.492-2.855-1.587-3.614M197.877 101.212c.945.645 2.834 5.467.712 4.782-1.62-.522-1.955-3.83-.712-4.782M150.195 81.515c.107 1.295.283 1.738.976 2.805.594.915.982 1.343.144 2.347-.993-.755-2.193-1.342-2.49-2.6-.23-.973.078-2.512 1.37-2.552M121.918 68.182c-.7-.554-3.138-3.507-2.59-4.579.675-1.323 4.075 2.545 2.59 4.579M167.856 89.697c.756.667.407 2.078.537 2.94.13.875.862 2.043.095 2.818-1.887-1.075-1.823-4.224-.632-5.758M103.125 78.477c-.013-1.042 2.477-2.936 2.994-1.72.444 1.045-2.323 4.173-2.994 1.72"></path></g></g></svg> 